# Blender 4.3.2
# www.blender.org
mtllib myfences_short_gate_open.mtl
o Cube
v 0.503075 -0.066900 0.448843
v 0.503075 -0.116900 0.448843
v 0.403075 -0.066900 0.448843
v 0.403075 -0.116900 0.448843
v 0.503075 -0.066900 -0.451157
v 0.503075 -0.116900 -0.451157
v 0.403075 -0.066900 -0.451157
v 0.403075 -0.116900 -0.451157
vn -0.0000 1.0000 -0.0000
vn -1.0000 -0.0000 -0.0000
vn -0.0000 -0.0000 -1.0000
vn -0.0000 -1.0000 -0.0000
vn -0.0000 -0.0000 1.0000
vn 1.0000 -0.0000 -0.0000
vt 0.529758 1.384239
vt 0.529758 1.131599
vt 0.782398 1.131599
vt 0.782398 1.384239
vt 0.529758 0.877187
vt 0.782398 0.877187
vt 0.782398 1.129827
vt 0.529758 1.129827
vt 0.529758 0.624547
vt 0.782398 0.624547
vt 0.782398 0.877187
vt 0.529758 0.877187
vt 1.035021 0.875414
vt 1.035021 0.622774
vt 1.287661 0.622774
vt 1.287661 0.875414
vt 0.277118 1.131599
vt 0.529758 1.384239
vt 0.277118 1.384239
vt 0.277118 0.878959
vt 0.529758 0.878959
vt 0.529758 1.131599
vt 0.277118 1.131599
s 0
usemtl Material
f 1/1/1 5/2/1 7/3/1 3/4/1
f 4/5/2 3/6/2 7/7/2 8/8/2
f 8/9/3 7/10/3 5/11/3 6/12/3
f 6/13/4 2/14/4 4/15/4 8/16/4
f 2/17/5 1/2/5 3/18/5 4/19/5
f 6/20/6 5/21/6 1/22/6 2/23/6
o Cube.001
v 0.500989 0.000155 0.447018
v 0.500756 0.000155 0.497018
v 0.400990 0.000155 0.446553
v 0.400757 0.000155 0.496552
v 0.500989 -0.502241 0.447018
v 0.500756 -0.502241 0.497018
v 0.400990 -0.502241 0.446553
v 0.400757 -0.502241 0.496552
vn 0.0047 -0.0000 -1.0000
vn -1.0000 -0.0000 -0.0047
vn -0.0000 -1.0000 -0.0000
vn -0.0047 -0.0000 1.0000
vn -0.0000 1.0000 -0.0000
vn 1.0000 -0.0000 0.0047
vt -0.357431 0.626311
vt -0.230506 0.626311
vt -0.230506 0.878959
vt -0.357431 0.878959
vt 0.024478 0.373679
vt 0.024478 0.626317
vt -0.102448 0.626318
vt -0.102448 0.373680
vt 1.287661 1.382475
vt 1.035029 1.384239
vt 1.035029 1.131591
vt 1.287661 1.129827
vt -0.355088 1.131591
vt -0.228162 1.131591
vt -0.228162 1.384239
vt -0.355088 1.384239
vt 0.782398 1.129827
vt 0.782398 1.382475
vt -0.230506 -0.131623
vt -0.230506 0.121015
vt -0.357431 0.121014
vt -0.357431 -0.131624
s 0
usemtl Material
f 9/24/7 13/25/7 15/26/7 11/27/7
f 12/28/8 11/29/8 15/30/8 16/31/8
f 16/32/9 15/33/9 13/34/9 14/35/9
f 14/36/10 10/37/10 12/38/10 16/39/10
f 10/40/11 9/34/11 11/33/11 12/41/11
f 14/42/12 13/43/12 9/44/12 10/45/12
o Cube.002
v 0.505392 0.000155 -0.498866
v 0.505160 0.000155 -0.448867
v 0.405394 0.000155 -0.499332
v 0.405161 0.000155 -0.449333
v 0.505392 -0.502241 -0.498867
v 0.505159 -0.502241 -0.448867
v 0.405393 -0.502241 -0.499332
v 0.405161 -0.502241 -0.449333
vn 0.0047 -0.0000 -1.0000
vn -1.0000 -0.0000 -0.0047
vn -0.0000 -1.0000 -0.0000
vn -0.0047 -0.0000 1.0000
vn -0.0000 1.0000 -0.0000
vn 1.0000 -0.0000 0.0047
vt -0.357431 0.373663
vt -0.230506 0.373663
vt -0.230506 0.626311
vt -0.357431 0.626311
vt 0.529758 -0.384239
vt 0.529758 -0.131601
vt 0.402832 -0.131601
vt 0.402832 -0.384239
vt 1.287661 1.128062
vt 1.035029 1.129827
vt 1.035029 0.877179
vt 1.287661 0.875414
vt -0.357431 0.121015
vt -0.230506 0.121015
vt -0.230506 0.373663
vt -0.357431 0.373663
vt 0.782398 0.875414
vt 0.782398 1.128062
vt 0.402266 -0.384239
vt 0.402266 -0.131601
vt 0.275341 -0.131601
vt 0.275341 -0.384239
s 0
usemtl Material
f 17/46/13 21/47/13 23/48/13 19/49/13
f 20/50/14 19/51/14 23/52/14 24/53/14
f 24/54/15 23/55/15 21/56/15 22/57/15
f 22/58/16 18/59/16 20/60/16 24/61/16
f 18/62/17 17/56/17 19/55/17 20/63/17
f 22/64/18 21/65/18 17/66/18 18/67/18
o Cube.003
v 0.503075 -0.349323 0.448843
v 0.503075 -0.399323 0.448843
v 0.403075 -0.349323 0.448843
v 0.403075 -0.399323 0.448843
v 0.503075 -0.349323 -0.451157
v 0.503075 -0.399323 -0.451157
v 0.403075 -0.349323 -0.451157
v 0.403075 -0.399323 -0.451157
vn -0.0000 1.0000 -0.0000
vn -1.0000 -0.0000 -0.0000
vn -0.0000 -0.0000 -1.0000
vn -0.0000 -1.0000 -0.0000
vn -0.0000 -0.0000 1.0000
vn 1.0000 -0.0000 -0.0000
vt 0.277118 0.878959
vt 0.277118 0.626319
vt 0.529758 0.626319
vt 0.529758 0.878959
vt 0.277118 0.373679
vt 0.529758 0.373679
vt 0.529758 0.626319
vt 0.277118 0.626319
vt 0.529758 0.371907
vt 0.782398 0.371907
vt 0.782398 0.624547
vt 0.529758 0.624547
vt 1.035021 0.622774
vt 1.035021 0.370134
vt 1.287661 0.370134
vt 1.287661 0.622774
vt 0.024478 1.131599
vt 0.277118 1.131599
vt 0.277118 1.384239
vt 0.024478 1.384239
vt 0.024478 0.878959
vt 0.277118 1.131599
vt 0.024478 1.131599
s 0
usemtl Material
f 25/68/19 29/69/19 31/70/19 27/71/19
f 28/72/20 27/73/20 31/74/20 32/75/20
f 32/76/21 31/77/21 29/78/21 30/79/21
f 30/80/22 26/81/22 28/82/22 32/83/22
f 26/84/23 25/85/23 27/86/23 28/87/23
f 30/88/24 29/68/24 25/89/24 26/90/24
o Cube.004
v 0.403073 0.002396 -0.448239
v 0.403072 0.002396 -0.298239
v 0.373073 0.002396 -0.448239
v 0.373072 0.002396 -0.298239
v 0.403072 -0.502241 -0.448239
v 0.403072 -0.502241 -0.298239
v 0.373072 -0.502241 -0.448239
v 0.373072 -0.502241 -0.298239
vn -0.0000 -0.0000 -1.0000
vn -1.0000 -0.0000 -0.0000
vn -0.0000 -1.0000 -0.0000
vn -0.0000 -0.0000 1.0000
vn -0.0000 1.0000 -0.0000
vn 1.0000 -0.0000 -0.0000
vt -0.103014 -0.131601
vt 0.024478 -0.131601
vt 0.024478 0.121039
vt -0.103014 0.121039
vt 1.035021 0.622774
vt 1.035021 0.875414
vt 0.907529 0.875414
vt 0.907529 0.622774
vt 0.024478 0.626319
vt 0.277118 0.626319
vt 0.277118 0.878959
vt 0.024478 0.878959
vt 0.654906 -0.133373
vt 0.782398 -0.133373
vt 0.782398 0.119267
vt 0.654906 0.119267
vt 0.024478 0.373679
vt 0.277118 0.373679
vt 0.277118 0.626319
vt 0.024478 0.626319
vt 1.035021 0.370134
vt 1.035021 0.622774
vt 0.907529 0.622774
vt 0.907529 0.370134
s 0
usemtl Material
f 33/91/25 37/92/25 39/93/25 35/94/25
f 36/95/26 35/96/26 39/97/26 40/98/26
f 40/99/27 39/100/27 37/101/27 38/102/27
f 38/103/28 34/104/28 36/105/28 40/106/28
f 34/107/29 33/108/29 35/109/29 36/110/29
f 38/111/30 37/112/30 33/113/30 34/114/30
o Cube.006
v 0.400831 0.002396 -0.206679
v 0.400831 0.002396 -0.046679
v 0.370831 0.002396 -0.206679
v 0.370831 0.002396 -0.046679
v 0.400831 -0.502241 -0.206679
v 0.400831 -0.502241 -0.046679
v 0.370831 -0.502241 -0.206679
v 0.370831 -0.502241 -0.046679
vn -0.0000 -0.0000 -1.0000
vn -1.0000 -0.0000 -0.0000
vn -0.0000 -1.0000 -0.0000
vn -0.0000 -0.0000 1.0000
vn -0.0000 1.0000 -0.0000
vn 1.0000 -0.0000 -0.0000
vt -0.230506 0.626319
vt -0.103014 0.626319
vt -0.103014 0.878959
vt -0.230506 0.878959
vt 1.035021 0.117494
vt 1.035021 0.370134
vt 0.907529 0.370134
vt 0.907529 0.117494
vt 0.277118 0.121039
vt 0.529758 0.121039
vt 0.529758 0.373679
vt 0.277118 0.373679
vt -0.230506 0.373679
vt -0.103014 0.373679
vt -0.103014 0.626319
vt -0.230506 0.626319
vt 1.287661 0.117494
vt 1.287661 0.370134
vt 1.035021 0.370134
vt 1.035021 0.117494
vt 0.024478 0.626319
vt 0.024478 0.878959
vt -0.103014 0.878959
vt -0.103014 0.626319
s 0
usemtl Material
f 41/115/31 45/116/31 47/117/31 43/118/31
f 44/119/32 43/120/32 47/121/32 48/122/32
f 48/123/33 47/124/33 45/125/33 46/126/33
f 46/127/34 42/128/34 44/129/34 48/130/34
f 42/131/35 41/132/35 43/133/35 44/134/35
f 46/135/36 45/136/36 41/137/36 42/138/36
o Cube.008
v 0.403073 0.002396 0.037640
v 0.403072 0.002396 0.197640
v 0.373073 0.002396 0.037640
v 0.373072 0.002396 0.197640
v 0.403072 -0.502241 0.037640
v 0.403072 -0.502241 0.197640
v 0.373072 -0.502241 0.037640
v 0.373072 -0.502241 0.197640
vn -0.0000 -0.0000 -1.0000
vn -1.0000 -0.0000 -0.0000
vn -0.0000 -1.0000 -0.0000
vn -0.0000 -0.0000 1.0000
vn -0.0000 1.0000 -0.0000
vn 1.0000 -0.0000 -0.0000
vt -0.230506 0.121039
vt -0.103014 0.121039
vt -0.103014 0.373679
vt -0.230506 0.373679
vt 0.024478 0.121039
vt 0.024478 0.373679
vt -0.103014 0.373679
vt -0.103014 0.121039
vt 0.024478 0.121039
vt 0.277118 0.121039
vt 0.277118 0.373679
vt 0.024478 0.373679
vt -0.230506 -0.131601
vt -0.103014 -0.131601
vt 0.024478 1.131599
vt 0.024478 1.384239
vt -0.228162 1.384239
vt -0.228162 1.131599
vt 0.529758 -0.131601
vt 0.529758 0.121039
vt 0.402266 0.121039
vt 0.402266 -0.131601
s 0
usemtl Material
f 49/139/37 53/140/37 55/141/37 51/142/37
f 52/143/38 51/144/38 55/145/38 56/146/38
f 56/147/39 55/148/39 53/149/39 54/150/39
f 54/151/40 50/152/40 52/140/40 56/139/40
f 50/153/41 49/154/41 51/155/41 52/156/41
f 54/157/42 53/158/42 49/159/42 50/160/42
o Cube.010
v 0.403073 0.002396 0.281959
v 0.403072 0.002396 0.441959
v 0.373073 0.002396 0.281959
v 0.373072 0.002396 0.441959
v 0.403072 -0.502241 0.281959
v 0.403072 -0.502241 0.441959
v 0.373072 -0.502241 0.281959
v 0.373072 -0.502241 0.441959
vn -0.0000 -0.0000 -1.0000
vn -1.0000 -0.0000 -0.0000
vn -0.0000 -1.0000 -0.0000
vn -0.0000 -0.0000 1.0000
vn -0.0000 1.0000 -0.0000
vn 1.0000 -0.0000 -0.0000
vt 1.160169 -0.135146
vt 1.287661 -0.135146
vt 1.287661 0.117494
vt 1.160169 0.117494
vt 0.402266 -0.131601
vt 0.402266 0.121039
vt 0.274774 0.121039
vt 0.274774 -0.131601
vt 0.529758 0.119267
vt 0.782398 0.119267
vt 0.782398 0.371907
vt 0.529758 0.371907
vt 0.907529 -0.135146
vt 1.035021 -0.135146
vt 1.035021 0.117494
vt 0.907529 0.117494
vt 0.024478 0.878959
vt 0.024478 1.131599
vt -0.228162 1.131599
vt -0.228162 0.878959
vt 0.147283 0.121039
vt 0.147283 -0.131601
s 0
usemtl Material
f 57/161/43 61/162/43 63/163/43 59/164/43
f 60/165/44 59/166/44 63/167/44 64/168/44
f 64/169/45 63/170/45 61/171/45 62/172/45
f 62/173/46 58/174/46 60/175/46 64/176/46
f 58/177/47 57/178/47 59/179/47 60/180/47
f 62/168/48 61/167/48 57/181/48 58/182/48
