# Blender 4.3.2
# www.blender.org
mtllib myfences_privacy.mtl
o Cube
v 0.450000 0.399323 0.369153
v 0.450000 0.349323 0.369153
v 0.450000 0.399323 0.469153
v 0.450000 0.349323 0.469153
v -0.450000 0.399323 0.369153
v -0.450000 0.349323 0.369153
v -0.450000 0.399323 0.469153
v -0.450000 0.349323 0.469153
vn -0.0000 1.0000 -0.0000
vn -0.0000 -0.0000 1.0000
vn -1.0000 -0.0000 -0.0000
vn -0.0000 -1.0000 -0.0000
vn 1.0000 -0.0000 -0.0000
vn -0.0000 -0.0000 -1.0000
vt 0.747681 1.490722
vt 0.747681 1.243042
vt 0.995361 1.243042
vt 0.995361 1.490722
vt 0.747681 0.995361
vt 0.995361 0.995361
vt 0.747681 0.747681
vt 0.995361 0.747681
vt 0.747681 0.995361
vt 1.243042 0.747680
vt 1.243042 0.500000
vt 1.490722 0.500000
vt 1.490722 0.747680
vt 0.995361 0.500000
vt 0.995361 0.747680
vt 0.747681 0.500000
vt 0.995361 0.747680
vt 0.747681 0.747680
s 0
usemtl Material
f 1/1/1 5/2/1 7/3/1 3/4/1
f 4/5/2 3/6/2 7/3/2 8/2/2
f 8/7/3 7/8/3 5/6/3 6/9/3
f 6/10/4 2/11/4 4/12/4 8/13/4
f 2/14/5 1/11/5 3/10/5 4/15/5
f 6/16/6 5/14/6 1/17/6 2/18/6
o Cube.001
v 0.447948 0.497759 0.369153
v 0.497948 0.497759 0.369153
v 0.447948 0.497759 0.469153
v 0.497948 0.497759 0.469153
v 0.447947 -0.502241 0.369153
v 0.497947 -0.502241 0.369153
v 0.447947 -0.502241 0.469153
v 0.497947 -0.502241 0.469153
vn -1.0000 -0.0000 -0.0000
vn -0.0000 -0.0000 1.0000
vn -0.0000 -1.0000 -0.0000
vn 1.0000 -0.0000 -0.0000
vn -0.0000 1.0000 -0.0000
vn -0.0000 -0.0000 -1.0000
vt 0.500000 1.490722
vt 0.500000 1.243042
vt 0.747681 1.243042
vt 0.747681 1.490722
vt 0.500000 0.995361
vt 0.747681 0.995361
vt 0.747681 1.243042
vt 0.500000 0.747680
vt 0.747681 0.747681
vt 0.747681 0.995361
vt 0.500000 0.995361
vt 0.500000 0.747680
vt 0.500000 0.500000
vt 0.747681 0.500000
vt 0.747681 0.747680
vt 1.243042 0.252319
vt 1.490722 0.252319
vt 1.490722 0.500000
vt 1.243042 0.500000
vt 0.995361 0.252319
vt 0.995361 0.500000
s 0
usemtl Material
f 9/19/7 13/20/7 15/21/7 11/22/7
f 12/23/8 11/24/8 15/25/8 16/20/8
f 16/26/9 15/27/9 13/28/9 14/29/9
f 14/30/10 10/31/10 12/32/10 16/33/10
f 10/34/11 9/35/11 11/36/11 12/37/11
f 14/38/12 13/34/12 9/37/12 10/39/12
o Cube.002
v -0.497947 0.497759 0.369153
v -0.447947 0.497759 0.369153
v -0.497947 0.497759 0.469153
v -0.447947 0.497759 0.469153
v -0.497948 -0.502241 0.369153
v -0.447948 -0.502241 0.369153
v -0.497948 -0.502241 0.469153
v -0.447948 -0.502241 0.469153
vn -1.0000 -0.0000 -0.0000
vn -0.0000 -0.0000 1.0000
vn -0.0000 -1.0000 -0.0000
vn 1.0000 -0.0000 -0.0000
vn -0.0000 1.0000 -0.0000
vn -0.0000 -0.0000 -1.0000
vt 0.747681 0.500000
vt 0.747681 0.252319
vt 0.995361 0.252319
vt 0.995361 0.500000
vt 0.500000 0.252319
vt 0.747681 0.252319
vt 0.747681 0.500000
vt 0.500000 0.500000
vt 0.252319 1.243042
vt 0.500000 1.243042
vt 0.500000 1.490722
vt 0.252319 1.490722
vt 0.252320 0.995361
vt 0.500000 0.995361
vt 0.252320 0.747680
vt 0.500000 0.747680
vt 0.252320 0.995361
vt 0.252319 0.500000
vt 0.500000 0.500000
vt 0.500000 0.747680
vt 0.252319 0.747680
s 0
usemtl Material
f 17/40/13 21/41/13 23/42/13 19/43/13
f 20/44/14 19/45/14 23/46/14 24/47/14
f 24/48/15 23/49/15 21/50/15 22/51/15
f 22/48/16 18/52/16 20/53/16 24/49/16
f 18/54/17 17/55/17 19/53/17 20/56/17
f 22/57/18 21/58/18 17/59/18 18/60/18
o Cube.003
v 0.450000 -0.349323 0.369153
v 0.450000 -0.399323 0.369153
v 0.450000 -0.349323 0.469153
v 0.450000 -0.399323 0.469153
v -0.450000 -0.349323 0.369153
v -0.450000 -0.399323 0.369153
v -0.450000 -0.349323 0.469153
v -0.450000 -0.399323 0.469153
vn -0.0000 1.0000 -0.0000
vn -0.0000 -0.0000 1.0000
vn -1.0000 -0.0000 -0.0000
vn -0.0000 -1.0000 -0.0000
vn 1.0000 -0.0000 -0.0000
vn -0.0000 -0.0000 -1.0000
vt 0.252319 0.500000
vt 0.252319 0.252319
vt 0.500000 0.252319
vt 0.500000 0.500000
vt 1.243042 0.004639
vt 1.490722 0.004639
vt 1.490722 0.252319
vt 1.243042 0.252319
vt 0.995361 0.004639
vt 0.995361 0.252319
vt 0.747681 0.252319
vt 0.747681 0.004639
vt 0.500000 0.004639
vt 0.747681 0.004639
vt 0.747681 0.252319
vt 0.252319 0.004639
s 0
usemtl Material
f 25/61/19 29/62/19 31/63/19 27/64/19
f 28/65/20 27/66/20 31/67/20 32/68/20
f 32/69/21 31/65/21 29/68/21 30/70/21
f 30/71/22 26/72/22 28/69/22 32/70/22
f 26/73/23 25/74/23 27/75/23 28/63/23
f 30/76/24 29/73/24 25/63/24 26/62/24
o Cube.004
v -0.494152 0.497759 0.469155
v -0.344152 0.497759 0.469155
v -0.494152 0.497759 0.499155
v -0.344152 0.497759 0.499155
v -0.494153 -0.502241 0.469155
v -0.344153 -0.502241 0.469155
v -0.494153 -0.502241 0.499155
v -0.344153 -0.502241 0.499155
vn -1.0000 -0.0000 -0.0000
vn -0.0000 -0.0000 1.0000
vn -0.0000 -1.0000 -0.0000
vn 1.0000 -0.0000 -0.0000
vn -0.0000 1.0000 -0.0000
vn -0.0000 -0.0000 -1.0000
vt 1.243042 1.490722
vt 1.243042 1.243042
vt 1.490722 1.243042
vt 1.490722 1.490722
vt 1.243042 0.995361
vt 1.490722 0.995361
vt 1.490722 1.243042
vt 0.995361 1.243042
vt 1.243042 1.243042
vt 0.995361 1.490722
vt 0.995361 0.995361
vt 1.243042 0.747680
vt 1.490722 0.747681
vt 0.995361 0.747680
vt 0.995361 0.995361
s 0
usemtl Material
f 33/77/25 37/78/25 39/79/25 35/80/25
f 36/81/26 35/82/26 39/83/26 40/78/26
f 40/84/27 39/85/27 37/77/27 38/86/27
f 38/84/28 34/87/28 36/81/28 40/78/28
f 34/88/29 33/89/29 35/82/29 36/81/29
f 38/90/30 37/88/30 33/81/30 34/91/30
o Cube.005
v -0.337768 0.497759 0.469155
v -0.177768 0.497759 0.469155
v -0.337768 0.497759 0.499155
v -0.177768 0.497759 0.499155
v -0.337768 -0.502241 0.469155
v -0.177768 -0.502241 0.469155
v -0.337768 -0.502241 0.499155
v -0.177768 -0.502241 0.499155
vn -1.0000 -0.0000 -0.0000
vn -0.0000 -0.0000 1.0000
vn -0.0000 -1.0000 -0.0000
vn 1.0000 -0.0000 -0.0000
vn -0.0000 1.0000 -0.0000
vn -0.0000 -0.0000 -1.0000
vt 0.004639 1.490722
vt 0.004639 1.243042
vt 0.252319 1.243042
vt 0.252319 1.490722
vt 0.004639 0.995361
vt 0.252320 0.995361
vt 0.252319 1.243042
vt 0.004639 0.747681
vt 0.252320 0.747681
vt 0.004639 0.747680
vt 0.004639 0.500000
vt 0.252319 0.500000
vt 0.252319 0.747680
vt 0.004639 0.252319
vt 0.252319 0.252319
vt 0.004639 0.004639
vt 0.252319 0.004639
s 0
usemtl Material
f 41/92/31 45/93/31 47/94/31 43/95/31
f 44/96/32 43/97/32 47/98/32 48/93/32
f 48/99/33 47/100/33 45/97/33 46/96/33
f 46/101/34 42/102/34 44/103/34 48/104/34
f 42/105/35 41/106/35 43/103/35 44/102/35
f 46/107/36 45/108/36 41/106/36 42/105/36
o Cube.006
v -0.169658 0.497759 0.469155
v -0.009658 0.497759 0.469155
v -0.169658 0.497759 0.499155
v -0.009658 0.497759 0.499155
v -0.169658 -0.502241 0.469155
v -0.009658 -0.502241 0.469155
v -0.169658 -0.502241 0.499155
v -0.009658 -0.502241 0.499155
vn -1.0000 -0.0000 -0.0000
vn -0.0000 -0.0000 1.0000
vn -0.0000 -1.0000 -0.0000
vn 1.0000 -0.0000 -0.0000
vn -0.0000 1.0000 -0.0000
vn -0.0000 -0.0000 -1.0000
vt 1.243042 0.004639
vt 1.243042 -0.243042
vt 1.490722 -0.243042
vt 1.490722 0.004639
vt 0.995361 -0.243042
vt 0.995361 0.004639
vt 0.747681 -0.243042
vt 0.747681 0.004639
vt 0.500000 0.004639
vt 0.500000 -0.243042
vt 0.747681 -0.243042
vt 0.747681 0.004639
vt 0.252319 -0.243042
vt 0.252319 0.004639
vt 0.004639 -0.243042
vt 0.004639 0.004639
s 0
usemtl Material
f 49/109/37 53/110/37 55/111/37 51/112/37
f 52/113/38 51/110/38 55/109/38 56/114/38
f 56/115/39 55/113/39 53/114/39 54/116/39
f 54/117/40 50/118/40 52/119/40 56/120/40
f 50/121/41 49/118/41 51/117/41 52/122/41
f 54/123/42 53/121/42 49/122/42 50/124/42
o Cube.007
v -0.001549 0.497759 0.469155
v 0.158451 0.497759 0.469155
v -0.001549 0.497759 0.499155
v 0.158451 0.497759 0.499155
v -0.001549 -0.502241 0.469155
v 0.158451 -0.502241 0.469155
v -0.001549 -0.502241 0.499155
v 0.158451 -0.502241 0.499155
vn -1.0000 -0.0000 -0.0000
vn -0.0000 -0.0000 1.0000
vn -0.0000 -1.0000 -0.0000
vn 1.0000 -0.0000 -0.0000
vn -0.0000 1.0000 -0.0000
vn -0.0000 -0.0000 -1.0000
vt -0.243042 1.490722
vt -0.243042 1.243042
vt 0.004639 1.243042
vt 0.004639 1.490722
vt -0.243042 0.995361
vt 0.004639 0.995361
vt -0.243042 0.747680
vt 0.004639 0.747681
vt -0.243042 0.747680
vt -0.243042 0.500000
vt 0.004639 0.500000
vt 0.004639 0.747680
vt -0.243042 0.252319
vt 0.004639 0.252319
vt -0.243042 0.004639
vt 0.004639 0.004639
s 0
usemtl Material
f 57/125/43 61/126/43 63/127/43 59/128/43
f 60/129/44 59/130/44 63/127/44 64/126/44
f 64/131/45 63/132/45 61/130/45 62/129/45
f 62/133/46 58/134/46 60/135/46 64/136/46
f 58/137/47 57/138/47 59/135/47 60/134/47
f 62/139/48 61/140/48 57/138/48 58/137/48
o Cube.008
v 0.166561 0.497759 0.469155
v 0.326560 0.497759 0.469155
v 0.166561 0.497759 0.499155
v 0.326560 0.497759 0.499155
v 0.166560 -0.502241 0.469155
v 0.326560 -0.502241 0.469155
v 0.166560 -0.502241 0.499155
v 0.326560 -0.502241 0.499155
vn -1.0000 -0.0000 -0.0000
vn -0.0000 -0.0000 1.0000
vn -0.0000 -1.0000 -0.0000
vn 1.0000 -0.0000 -0.0000
vn -0.0000 1.0000 -0.0000
vn -0.0000 -0.0000 -1.0000
vt -0.243042 0.004639
vt -0.243042 -0.243042
vt 0.004639 -0.243042
vt 0.004639 0.004639
vt 1.243042 -0.490722
vt 1.490722 -0.490722
vt 1.490722 -0.243042
vt 1.243042 -0.243042
vt 0.995361 -0.490722
vt 0.995361 -0.243042
vt 0.747681 -0.243042
vt 0.747681 -0.490722
vt 0.500000 -0.490722
vt 0.747681 -0.490722
vt 0.747681 -0.243042
vt 0.500000 -0.243042
vt 0.252320 -0.490722
vt 0.252319 -0.243042
s 0
usemtl Material
f 65/141/49 69/142/49 71/143/49 67/144/49
f 68/145/50 67/146/50 71/147/50 72/148/50
f 72/149/51 71/145/51 69/148/51 70/150/51
f 70/151/52 66/152/52 68/149/52 72/150/52
f 66/153/53 65/154/53 67/155/53 68/156/53
f 70/157/54 69/153/54 65/156/54 66/158/54
o Cube.009
v 0.334670 0.497759 0.469155
v 0.494670 0.497759 0.469155
v 0.334670 0.497759 0.499155
v 0.494670 0.497759 0.499155
v 0.334670 -0.502241 0.469155
v 0.494670 -0.502241 0.469155
v 0.334670 -0.502241 0.499155
v 0.494670 -0.502241 0.499155
vn -1.0000 -0.0000 -0.0000
vn -0.0000 -0.0000 1.0000
vn -0.0000 -1.0000 -0.0000
vn 1.0000 -0.0000 -0.0000
vn -0.0000 1.0000 -0.0000
vn -0.0000 -0.0000 -1.0000
vt 0.004639 -0.243042
vt 0.004639 -0.490722
vt 0.252320 -0.490722
vt 0.252319 -0.243042
vt -0.243042 -0.490722
vt -0.243042 -0.243042
vt -0.490722 1.243042
vt -0.243042 1.243042
vt -0.243042 1.490722
vt -0.490722 1.490722
vt -0.490722 0.995361
vt -0.243042 0.995361
vt -0.243042 1.243042
vt -0.490722 0.747680
vt -0.243042 0.747680
vt -0.490722 0.995361
vt -0.490722 0.500000
vt -0.243042 0.500000
vt -0.243042 0.747680
vt -0.490722 0.747680
s 0
usemtl Material
f 73/159/55 77/160/55 79/161/55 75/162/55
f 76/163/56 75/160/56 79/159/56 80/164/56
f 80/165/57 79/166/57 77/167/57 78/168/57
f 78/165/58 74/169/58 76/170/58 80/171/58
f 74/172/59 73/173/59 75/170/59 76/174/59
f 78/175/60 77/176/60 73/177/60 74/178/60
