# Blender 4.3.2
# www.blender.org
mtllib myfences_neighbor_gate_open.mtl
o Cube
v 0.474811 0.399323 0.448623
v 0.474811 0.349323 0.448623
v 0.374811 0.399323 0.448623
v 0.374811 0.349323 0.448623
v 0.474811 0.399323 -0.451377
v 0.474811 0.349323 -0.451377
v 0.374811 0.399323 -0.451377
v 0.374811 0.349323 -0.451377
vn -0.0000 1.0000 -0.0000
vn -1.0000 -0.0000 -0.0000
vn -0.0000 -0.0000 -1.0000
vn -0.0000 -1.0000 -0.0000
vn -0.0000 -0.0000 1.0000
vn 1.0000 -0.0000 -0.0000
vt 0.696355 1.633600
vt 0.696355 1.381689
vt 0.948267 1.381689
vt 0.948266 1.633600
vt 0.696355 1.129778
vt 0.948267 1.129778
vt 0.696355 0.877867
vt 0.948266 0.877867
vt 0.948266 1.129778
vt 1.200178 0.877867
vt 1.200178 0.625956
vt 1.452089 0.625956
vt 1.452089 0.877867
vt 0.948267 0.625956
vt 1.200177 0.877867
vt 0.948266 0.877867
vt 0.696355 0.625956
vt 0.948267 0.625956
s 0
usemtl Material
f 1/1/1 5/2/1 7/3/1 3/4/1
f 4/5/2 3/6/2 7/3/2 8/2/2
f 8/7/3 7/8/3 5/9/3 6/5/3
f 6/10/4 2/11/4 4/12/4 8/13/4
f 2/14/5 1/11/5 3/15/5 4/16/5
f 6/17/6 5/18/6 1/8/6 2/7/6
o Cube.001
v 0.474811 0.497759 0.446570
v 0.474811 0.497759 0.496570
v 0.374811 0.497759 0.446570
v 0.374811 0.497759 0.496570
v 0.474811 -0.502241 0.446570
v 0.474811 -0.502241 0.496570
v 0.374811 -0.502241 0.446570
v 0.374811 -0.502241 0.496570
vn -0.0000 -0.0000 -1.0000
vn -1.0000 -0.0000 -0.0000
vn -0.0000 -1.0000 -0.0000
vn -0.0000 -0.0000 1.0000
vn -0.0000 1.0000 -0.0000
vn 1.0000 -0.0000 -0.0000
vt 0.444444 1.633600
vt 0.444444 1.381689
vt 0.696355 1.381689
vt 0.696355 1.633600
vt 0.444444 1.129778
vt 0.696355 1.129778
vt 0.444444 1.381689
vt 0.444444 0.877867
vt 0.696355 0.877867
vt 0.696355 1.129778
vt 0.444444 1.129778
vt 0.444444 0.625956
vt 0.696355 0.625956
vt 1.200178 0.374045
vt 1.452089 0.374045
vt 1.452089 0.625956
vt 1.200178 0.625956
vt 0.948266 0.374044
vt 1.200178 0.374045
vt 1.200177 0.625956
vt 0.948266 0.625956
s 0
usemtl Material
f 9/19/7 13/20/7 15/21/7 11/22/7
f 12/23/8 11/24/8 15/21/8 16/25/8
f 16/26/9 15/27/9 13/28/9 14/29/9
f 14/26/10 10/30/10 12/31/10 16/27/10
f 10/32/11 9/33/11 11/34/11 12/35/11
f 14/36/12 13/37/12 9/38/12 10/39/12
o Cube.002
v 0.474811 0.497759 -0.499325
v 0.474811 0.497759 -0.449325
v 0.374811 0.497759 -0.499325
v 0.374811 0.497759 -0.449325
v 0.474811 -0.502241 -0.499325
v 0.474811 -0.502241 -0.449325
v 0.374811 -0.502241 -0.499325
v 0.374811 -0.502241 -0.449325
vn -0.0000 -0.0000 -1.0000
vn -1.0000 -0.0000 -0.0000
vn -0.0000 -1.0000 -0.0000
vn -0.0000 -0.0000 1.0000
vn -0.0000 1.0000 -0.0000
vn 1.0000 -0.0000 -0.0000
vt 0.696355 0.625955
vt 0.696355 0.374044
vt 0.948267 0.374044
vt 0.948267 0.625956
vt 0.444444 0.374045
vt 0.696355 0.374045
vt 0.696355 0.625956
vt 0.444444 0.625956
vt 0.192533 1.381689
vt 0.444444 1.381689
vt 0.444444 1.633600
vt 0.192533 1.633600
vt 0.192533 1.381689
vt 0.192533 1.129778
vt 0.444444 1.129778
vt 0.444444 1.381689
vt 0.192533 0.877867
vt 0.444444 0.877867
vt 0.192533 0.625956
vt 0.444444 0.625956
vt 0.444444 0.877867
vt 0.192533 0.877867
s 0
usemtl Material
f 17/40/13 21/41/13 23/42/13 19/43/13
f 20/44/14 19/45/14 23/46/14 24/47/14
f 24/48/15 23/49/15 21/50/15 22/51/15
f 22/52/16 18/53/16 20/54/16 24/55/16
f 18/56/17 17/57/17 19/54/17 20/53/17
f 22/58/18 21/59/18 17/60/18 18/61/18
o Cube.003
v 0.474811 -0.349323 0.448623
v 0.474811 -0.399323 0.448623
v 0.374811 -0.349323 0.448623
v 0.374811 -0.399323 0.448623
v 0.474811 -0.349323 -0.451377
v 0.474811 -0.399323 -0.451377
v 0.374811 -0.349323 -0.451377
v 0.374811 -0.399323 -0.451377
vn -0.0000 1.0000 -0.0000
vn -1.0000 -0.0000 -0.0000
vn -0.0000 -0.0000 -1.0000
vn -0.0000 -1.0000 -0.0000
vn -0.0000 -0.0000 1.0000
vn 1.0000 -0.0000 -0.0000
vt 0.192533 0.625956
vt 0.192533 0.374045
vt 0.444444 0.374045
vt 0.444444 0.625956
vt 1.200178 0.122133
vt 1.452089 0.122133
vt 1.452089 0.374045
vt 1.200178 0.374045
vt 0.948267 0.122133
vt 1.200178 0.374045
vt 0.948266 0.374044
vt 0.696355 0.374044
vt 0.696355 0.122133
vt 0.948266 0.122133
vt 0.948266 0.374044
vt 0.444444 0.122133
vt 0.696355 0.122133
vt 0.696355 0.374045
vt 0.192533 0.122133
s 0
usemtl Material
f 25/62/19 29/63/19 31/64/19 27/65/19
f 28/66/20 27/67/20 31/68/20 32/69/20
f 32/70/21 31/66/21 29/71/21 30/72/21
f 30/73/22 26/74/22 28/75/22 32/76/22
f 26/77/23 25/78/23 27/79/23 28/64/23
f 30/80/24 29/77/24 25/64/24 26/63/24
o Cube.004
v 0.374809 0.497759 -0.495530
v 0.374809 0.497759 -0.345530
v 0.344809 0.497759 -0.495530
v 0.344809 0.497759 -0.345530
v 0.374808 -0.502241 -0.495530
v 0.374808 -0.502241 -0.345530
v 0.344808 -0.502241 -0.495530
v 0.344808 -0.502241 -0.345530
vn -0.0000 -0.0000 -1.0000
vn -1.0000 -0.0000 -0.0000
vn -0.0000 -1.0000 -0.0000
vn -0.0000 -0.0000 1.0000
vn -0.0000 1.0000 -0.0000
vn 1.0000 -0.0000 -0.0000
vt -0.059378 1.633600
vt -0.059378 1.381689
vt 0.192533 1.381689
vt 0.192533 1.633600
vt -0.059378 1.129778
vt 0.192533 1.129778
vt 0.192533 1.381689
vt -0.059378 1.381689
vt -0.059378 0.877867
vt 0.192533 0.877867
vt -0.059378 0.877867
vt -0.059378 0.625956
vt 0.192533 0.625956
vt 0.192533 0.877867
vt -0.059378 0.374045
vt 0.192533 0.374045
vt -0.059378 0.122133
vt 0.192533 0.122133
s 0
usemtl Material
f 33/81/25 37/82/25 39/83/25 35/84/25
f 36/85/26 35/86/26 39/87/26 40/88/26
f 40/89/27 39/90/27 37/86/27 38/85/27
f 38/91/28 34/92/28 36/93/28 40/94/28
f 34/95/29 33/96/29 35/93/29 36/92/29
f 38/97/30 37/98/30 33/96/30 34/95/30
o Cube.005
v 0.504813 0.497759 -0.375008
v 0.504813 0.497759 -0.215008
v 0.474813 0.497759 -0.375008
v 0.474813 0.497759 -0.215008
v 0.504813 -0.502241 -0.375008
v 0.504813 -0.502241 -0.215008
v 0.474813 -0.502241 -0.375008
v 0.474813 -0.502241 -0.215008
vn -0.0000 -0.0000 -1.0000
vn -1.0000 -0.0000 -0.0000
vn -0.0000 -1.0000 -0.0000
vn -0.0000 -0.0000 1.0000
vn -0.0000 1.0000 -0.0000
vn 1.0000 -0.0000 -0.0000
vt 1.200178 0.122133
vt 1.200178 -0.129778
vt 1.452089 -0.129778
vt 1.452089 0.122133
vt 0.948267 -0.129778
vt 1.200177 0.122133
vt 0.948266 0.122133
vt 0.696355 -0.129778
vt 0.696355 0.122133
vt 0.444444 0.122133
vt 0.444444 -0.129778
vt 0.696355 -0.129778
vt 0.696355 0.122133
vt 0.192533 -0.129778
vt 0.192533 0.122133
vt -0.059378 -0.129778
vt -0.059378 0.122133
s 0
usemtl Material
f 41/99/31 45/100/31 47/101/31 43/102/31
f 44/103/32 43/100/32 47/104/32 48/105/32
f 48/106/33 47/103/33 45/105/33 46/107/33
f 46/108/34 42/109/34 44/110/34 48/111/34
f 42/112/35 41/109/35 43/108/35 44/113/35
f 46/114/36 45/112/36 41/113/36 42/115/36
o Cube.006
v 0.372567 0.497759 -0.258453
v 0.372567 0.497759 -0.098453
v 0.342567 0.497759 -0.258453
v 0.342567 0.497759 -0.098453
v 0.372567 -0.502241 -0.258453
v 0.372567 -0.502241 -0.098453
v 0.342567 -0.502241 -0.258453
v 0.342567 -0.502241 -0.098453
vn -0.0000 -0.0000 -1.0000
vn -1.0000 -0.0000 -0.0000
vn -0.0000 -1.0000 -0.0000
vn -0.0000 -0.0000 1.0000
vn -0.0000 1.0000 -0.0000
vn 1.0000 -0.0000 -0.0000
vt -0.311289 1.633600
vt -0.311289 1.381689
vt -0.059378 1.381689
vt -0.059378 1.633600
vt -0.311289 1.129778
vt -0.059378 1.129778
vt -0.059378 1.381689
vt -0.311289 1.381689
vt -0.311289 0.877867
vt -0.059378 0.877867
vt -0.311289 0.625956
vt -0.059378 0.625956
vt -0.059378 0.877867
vt -0.311289 0.374045
vt -0.059378 0.374045
vt -0.311289 0.122133
vt -0.059378 0.122133
s 0
usemtl Material
f 49/116/37 53/117/37 55/118/37 51/119/37
f 52/120/38 51/121/38 55/122/38 56/123/38
f 56/124/39 55/125/39 53/121/39 54/120/39
f 54/124/40 50/126/40 52/127/40 56/128/40
f 50/129/41 49/130/41 51/127/41 52/126/41
f 54/131/42 53/132/42 49/130/42 50/129/42
o Cube.007
v 0.502572 0.497759 -0.137414
v 0.502572 0.497759 0.022586
v 0.472572 0.497759 -0.137414
v 0.472572 0.497759 0.022586
v 0.502571 -0.502241 -0.137414
v 0.502571 -0.502241 0.022586
v 0.472571 -0.502241 -0.137414
v 0.472571 -0.502241 0.022586
vn -0.0000 -0.0000 -1.0000
vn -1.0000 -0.0000 -0.0000
vn -0.0000 -1.0000 -0.0000
vn -0.0000 -0.0000 1.0000
vn -0.0000 1.0000 -0.0000
vn 1.0000 -0.0000 -0.0000
vt 1.200178 1.633600
vt 1.200178 1.381689
vt 1.452089 1.381689
vt 1.452089 1.633600
vt 1.200178 1.129778
vt 1.452089 1.129778
vt 1.452089 1.381689
vt 1.200178 1.381689
vt 0.948267 1.381689
vt 1.200178 1.381689
vt 1.200177 1.633600
vt 0.948266 1.633600
vt 0.948266 1.381689
vt 0.948266 1.129778
vt 1.200177 1.381689
vt 1.200178 0.877867
vt 1.452089 0.877867
vt 1.200178 1.129778
vt 0.948266 0.877867
vt 1.200177 0.877867
vt 1.200177 1.129778
s 0
usemtl Material
f 57/133/43 61/134/43 63/135/43 59/136/43
f 60/137/44 59/138/44 63/139/44 64/140/44
f 64/141/45 63/142/45 61/143/45 62/144/45
f 62/145/46 58/146/46 60/137/46 64/147/46
f 58/148/47 57/149/47 59/138/47 60/150/47
f 62/151/48 61/152/48 57/153/48 58/146/48
o Cube.008
v 0.374809 0.497759 -0.007409
v 0.374809 0.497759 0.152591
v 0.344809 0.497759 -0.007409
v 0.344809 0.497759 0.152591
v 0.374808 -0.502241 -0.007409
v 0.374808 -0.502241 0.152591
v 0.344808 -0.502241 -0.007409
v 0.344808 -0.502241 0.152591
vn -0.0000 -0.0000 -1.0000
vn -1.0000 -0.0000 -0.0000
vn -0.0000 -1.0000 -0.0000
vn -0.0000 -0.0000 1.0000
vn -0.0000 1.0000 -0.0000
vn 1.0000 -0.0000 -0.0000
vt -0.311289 0.122133
vt -0.311289 -0.129778
vt -0.059378 -0.129778
vt -0.059378 0.122133
vt 1.200178 -0.381689
vt 1.452089 -0.381689
vt 1.452089 -0.129778
vt 1.200178 -0.129778
vt 0.948266 -0.381689
vt 1.200177 -0.129778
vt 0.948266 -0.129778
vt 0.696355 -0.129778
vt 0.696355 -0.381689
vt 0.948267 -0.381689
vt 0.948267 -0.129778
vt 0.444444 -0.381689
vt 0.696355 -0.381688
vt 0.696355 -0.129778
vt 0.444444 -0.129778
vt 0.192533 -0.381689
vt 0.192533 -0.129778
s 0
usemtl Material
f 65/154/49 69/155/49 71/156/49 67/157/49
f 68/158/50 67/159/50 71/160/50 72/161/50
f 72/162/51 71/158/51 69/163/51 70/164/51
f 70/165/52 66/166/52 68/167/52 72/168/52
f 66/169/53 65/170/53 67/171/53 68/172/53
f 70/173/54 69/169/54 65/172/54 66/174/54
o Cube.009
v 0.502571 0.497759 0.095698
v 0.502571 0.497759 0.255698
v 0.472571 0.497759 0.095698
v 0.472571 0.497759 0.255698
v 0.502571 -0.502241 0.095698
v 0.502571 -0.502241 0.255698
v 0.472571 -0.502241 0.095698
v 0.472571 -0.502241 0.255698
vn -0.0000 -0.0000 -1.0000
vn -1.0000 -0.0000 -0.0000
vn -0.0000 -1.0000 -0.0000
vn -0.0000 -0.0000 1.0000
vn -0.0000 1.0000 -0.0000
vn 1.0000 -0.0000 -0.0000
vt -0.059378 -0.129778
vt -0.059378 -0.381689
vt 0.192533 -0.381689
vt 0.192533 -0.129778
vt -0.311289 -0.381689
vt -0.311289 -0.129778
vt -0.563200 1.381689
vt -0.311289 1.381689
vt -0.311289 1.633600
vt -0.563200 1.633600
vt -0.563200 1.381689
vt -0.563200 1.129778
vt -0.311289 1.129778
vt -0.563200 0.877867
vt -0.311289 0.877867
vt -0.563200 0.625956
vt -0.311289 0.625956
vt -0.563200 0.877867
s 0
usemtl Material
f 73/175/55 77/176/55 79/177/55 75/178/55
f 76/179/56 75/176/56 79/175/56 80/180/56
f 80/181/57 79/182/57 77/183/57 78/184/57
f 78/185/58 74/186/58 76/187/58 80/182/58
f 74/188/59 73/189/59 75/187/59 76/186/59
f 78/190/60 77/191/60 73/189/60 74/192/60
o Cube.010
v 0.374809 0.497759 0.236910
v 0.374809 0.497759 0.396910
v 0.344809 0.497759 0.236910
v 0.344809 0.497759 0.396910
v 0.374808 -0.502241 0.236910
v 0.374808 -0.502241 0.396910
v 0.344808 -0.502241 0.236910
v 0.344808 -0.502241 0.396910
vn -0.0000 -0.0000 -1.0000
vn -1.0000 -0.0000 -0.0000
vn -0.0000 -1.0000 -0.0000
vn -0.0000 -0.0000 1.0000
vn -0.0000 1.0000 -0.0000
vn 1.0000 -0.0000 -0.0000
vt -0.563200 0.625956
vt -0.563200 0.374044
vt -0.311289 0.374045
vt -0.311289 0.625956
vt -0.563200 0.122133
vt -0.311289 0.122133
vt -0.563200 -0.129778
vt -0.311289 -0.129778
vt -0.563200 -0.381689
vt -0.311289 -0.381689
vt 1.200178 -0.633600
vt 1.452089 -0.633600
vt 1.452089 -0.381689
vt 1.200178 -0.381689
vt 0.948267 -0.633600
vt 1.200178 -0.633600
vt 0.948266 -0.381689
s 0
usemtl Material
f 81/193/61 85/194/61 87/195/61 83/196/61
f 84/197/62 83/198/62 87/195/62 88/194/62
f 88/199/63 87/200/63 85/198/63 86/197/63
f 86/199/64 82/201/64 84/202/64 88/200/64
f 82/203/65 81/204/65 83/205/65 84/206/65
f 86/207/66 85/208/66 81/206/66 82/209/66
o Cube.011
v 0.502572 0.497759 0.335534
v 0.502572 0.497759 0.495534
v 0.472572 0.497759 0.335534
v 0.472572 0.497759 0.495534
v 0.502571 -0.502241 0.335534
v 0.502571 -0.502241 0.495534
v 0.472571 -0.502241 0.335534
v 0.472571 -0.502241 0.495534
vn -0.0000 -0.0000 -1.0000
vn -1.0000 -0.0000 -0.0000
vn -0.0000 -1.0000 -0.0000
vn -0.0000 -0.0000 1.0000
vn -0.0000 1.0000 -0.0000
vn 1.0000 -0.0000 -0.0000
vt 0.696355 -0.381689
vt 0.696355 -0.633600
vt 0.948266 -0.633600
vt 0.948266 -0.381689
vt 0.444444 -0.633600
vt 0.696355 -0.633600
vt 0.444444 -0.381689
vt 0.192533 -0.633600
vt 0.444444 -0.633600
vt 0.444444 -0.381689
vt 0.192533 -0.381689
vt -0.059378 -0.381689
vt -0.059378 -0.633600
vt -0.311289 -0.633600
vt -0.059378 -0.633600
vt -0.059378 -0.381689
vt -0.311289 -0.381689
vt -0.563200 -0.633600
vt -0.563200 -0.381689
s 0
usemtl Material
f 89/210/67 93/211/67 95/212/67 91/213/67
f 92/214/68 91/215/68 95/210/68 96/216/68
f 96/217/69 95/218/69 93/219/69 94/220/69
f 94/221/70 90/222/70 92/217/70 96/220/70
f 90/223/71 89/224/71 91/225/71 92/226/71
f 94/227/72 93/223/72 89/226/72 90/228/72
