# Blender 4.3.2
# www.blender.org
mtllib myfences_privacy_gate_open.mtl
o Cube
v 0.501291 0.399324 0.451935
v 0.501291 0.349324 0.451935
v 0.401291 0.399324 0.451935
v 0.401291 0.349324 0.451935
v 0.501291 0.399324 -0.448065
v 0.501291 0.349324 -0.448065
v 0.401291 0.399324 -0.448065
v 0.401291 0.349324 -0.448065
vn -0.0000 1.0000 -0.0000
vn -1.0000 -0.0000 -0.0000
vn -0.0000 -0.0000 -1.0000
vn -0.0000 -1.0000 -0.0000
vn -0.0000 -0.0000 1.0000
vn 1.0000 -0.0000 -0.0000
vt 0.249782 -0.500871
vt 0.249782 -0.250653
vt -0.000436 -0.250653
vt -0.000436 -0.500871
vt 0.249782 -0.000436
vt -0.000436 -0.000436
vt 0.249782 -0.250653
vt 0.249782 0.249782
vt -0.000436 0.249782
vt -0.000436 -0.000436
vt 0.249782 -0.000436
vt -0.250654 0.249782
vt -0.250654 0.500000
vt -0.500871 0.500000
vt -0.500871 0.249782
vt -0.000436 0.500000
vt -0.000436 0.249782
vt 0.249782 0.500000
vt -0.000436 0.249782
vt 0.249782 0.249782
s 0
usemtl Material
f 1/1/1 5/2/1 7/3/1 3/4/1
f 4/5/2 3/6/2 7/3/2 8/7/2
f 8/8/3 7/9/3 5/10/3 6/11/3
f 6/12/4 2/13/4 4/14/4 8/15/4
f 2/16/5 1/13/5 3/12/5 4/17/5
f 6/18/6 5/16/6 1/19/6 2/20/6
o Cube.001
v 0.501291 0.497759 0.449882
v 0.501291 0.497759 0.499882
v 0.401291 0.497759 0.449882
v 0.401291 0.497759 0.499882
v 0.501291 -0.502241 0.449882
v 0.501291 -0.502241 0.499882
v 0.401291 -0.502241 0.449882
v 0.401291 -0.502241 0.499882
vn -0.0000 -0.0000 -1.0000
vn -1.0000 -0.0000 -0.0000
vn -0.0000 -1.0000 -0.0000
vn -0.0000 -0.0000 1.0000
vn -0.0000 1.0000 -0.0000
vn 1.0000 -0.0000 -0.0000
vt 0.500000 -0.500871
vt 0.500000 -0.250653
vt 0.249782 -0.250654
vt 0.249782 -0.500871
vt 0.500000 -0.000436
vt 0.249782 -0.000436
vt 0.249782 -0.250653
vt 0.500000 -0.250653
vt 0.500000 0.249782
vt 0.249782 0.249782
vt 0.249782 -0.000436
vt 0.500000 -0.000436
vt 0.500000 0.249782
vt 0.500000 0.500000
vt 0.249782 0.500000
vt 0.249782 0.249782
vt -0.250654 0.750218
vt -0.500871 0.750218
vt -0.500871 0.500000
vt -0.250654 0.500000
vt -0.000436 0.750218
vt -0.000436 0.500000
s 0
usemtl Material
f 9/21/7 13/22/7 15/23/7 11/24/7
f 12/25/8 11/26/8 15/27/8 16/28/8
f 16/29/9 15/30/9 13/31/9 14/32/9
f 14/33/10 10/34/10 12/35/10 16/36/10
f 10/37/11 9/38/11 11/39/11 12/40/11
f 14/41/12 13/37/12 9/40/12 10/42/12
o Cube.002
v 0.501291 0.497759 -0.496013
v 0.501291 0.497759 -0.446013
v 0.401291 0.497759 -0.496013
v 0.401291 0.497759 -0.446013
v 0.501291 -0.502241 -0.496013
v 0.501291 -0.502241 -0.446013
v 0.401291 -0.502241 -0.496013
v 0.401291 -0.502241 -0.446013
vn -0.0000 -0.0000 -1.0000
vn -1.0000 -0.0000 -0.0000
vn -0.0000 -1.0000 -0.0000
vn -0.0000 -0.0000 1.0000
vn -0.0000 1.0000 -0.0000
vn 1.0000 -0.0000 -0.0000
vt 0.249782 0.500000
vt 0.249782 0.750218
vt -0.000436 0.750218
vt -0.000436 0.500000
vt 0.500000 0.750218
vt 0.249782 0.750218
vt 0.249782 0.500000
vt 0.500000 0.500000
vt 0.750218 -0.250653
vt 0.500000 -0.250653
vt 0.500000 -0.500871
vt 0.750218 -0.500871
vt 0.750218 -0.250653
vt 0.750218 -0.000436
vt 0.500000 -0.000436
vt 0.500000 -0.250653
vt 0.750218 0.249782
vt 0.500000 0.249782
vt 0.750218 -0.000436
vt 0.750218 0.500000
vt 0.500000 0.500000
vt 0.500000 0.249782
vt 0.750218 0.249782
s 0
usemtl Material
f 17/43/13 21/44/13 23/45/13 19/46/13
f 20/47/14 19/48/14 23/49/14 24/50/14
f 24/51/15 23/52/15 21/53/15 22/54/15
f 22/55/16 18/56/16 20/57/16 24/58/16
f 18/59/17 17/60/17 19/57/17 20/61/17
f 22/62/18 21/63/18 17/64/18 18/65/18
o Cube.003
v 0.501291 -0.349323 0.451935
v 0.501291 -0.399323 0.451935
v 0.401291 -0.349323 0.451935
v 0.401291 -0.399323 0.451935
v 0.501291 -0.349323 -0.448065
v 0.501291 -0.399323 -0.448065
v 0.401291 -0.349323 -0.448065
v 0.401291 -0.399323 -0.448065
vn -0.0000 1.0000 -0.0000
vn -1.0000 -0.0000 -0.0000
vn -0.0000 -0.0000 -1.0000
vn -0.0000 -1.0000 -0.0000
vn -0.0000 -0.0000 1.0000
vn 1.0000 -0.0000 -0.0000
vt 0.750218 0.500000
vt 0.750218 0.750218
vt 0.500000 0.750218
vt 0.500000 0.500000
vt -0.250654 1.000436
vt -0.500871 1.000436
vt -0.500871 0.750218
vt -0.250654 0.750218
vt -0.000436 1.000436
vt -0.000436 0.750218
vt 0.249782 0.750218
vt 0.249782 1.000436
vt -0.000436 1.000436
vt 0.500000 1.000436
vt 0.249782 1.000436
vt 0.249782 0.750218
vt 0.750218 1.000436
s 0
usemtl Material
f 25/66/19 29/67/19 31/68/19 27/69/19
f 28/70/20 27/71/20 31/72/20 32/73/20
f 32/74/21 31/70/21 29/73/21 30/75/21
f 30/76/22 26/77/22 28/78/22 32/75/22
f 26/79/23 25/80/23 27/81/23 28/68/23
f 30/82/24 29/79/24 25/68/24 26/67/24
o Cube.004
v 0.401289 0.497759 -0.492218
v 0.401289 0.497759 -0.342218
v 0.371289 0.497759 -0.492218
v 0.371289 0.497759 -0.342218
v 0.401289 -0.502241 -0.492218
v 0.401289 -0.502241 -0.342218
v 0.371289 -0.502241 -0.492218
v 0.371289 -0.502241 -0.342218
vn -0.0000 -0.0000 -1.0000
vn -1.0000 -0.0000 -0.0000
vn -0.0000 -1.0000 -0.0000
vn -0.0000 -0.0000 1.0000
vn -0.0000 1.0000 -0.0000
vn 1.0000 -0.0000 -0.0000
vt -0.250654 -0.500871
vt -0.250654 -0.250653
vt -0.500871 -0.250654
vt -0.500871 -0.500871
vt -0.250654 -0.000436
vt -0.500871 -0.000436
vt -0.500871 -0.250653
vt -0.250654 -0.250653
vt -0.000436 -0.250653
vt -0.250654 -0.250654
vt -0.000436 -0.500871
vt -0.000436 -0.250653
vt -0.000436 -0.000436
vt -0.250654 -0.250653
vt -0.250654 0.249782
vt -0.500871 0.249782
vt -0.000436 0.249782
vt -0.250653 -0.000436
vt -0.000436 -0.000436
s 0
usemtl Material
f 33/83/25 37/84/25 39/85/25 35/86/25
f 36/87/26 35/88/26 39/89/26 40/90/26
f 40/91/27 39/92/27 37/83/27 38/93/27
f 38/94/28 34/95/28 36/87/28 40/96/28
f 34/97/29 33/98/29 35/88/29 36/87/29
f 38/99/30 37/97/30 33/100/30 34/101/30
o Cube.005
v 0.401289 0.497759 -0.335833
v 0.401289 0.497759 -0.175833
v 0.371289 0.497759 -0.335833
v 0.371289 0.497759 -0.175833
v 0.401289 -0.502241 -0.335833
v 0.401289 -0.502241 -0.175833
v 0.371289 -0.502241 -0.335833
v 0.371289 -0.502241 -0.175833
vn -0.0000 -0.0000 -1.0000
vn -1.0000 -0.0000 -0.0000
vn -0.0000 -1.0000 -0.0000
vn -0.0000 -0.0000 1.0000
vn -0.0000 1.0000 -0.0000
vn 1.0000 -0.0000 -0.0000
vt 1.000436 -0.500871
vt 1.000436 -0.250653
vt 0.750218 -0.250654
vt 0.750218 -0.500871
vt 1.000436 -0.000436
vt 0.750218 -0.000436
vt 0.750218 -0.250653
vt 1.000436 -0.250653
vt 1.000436 0.249782
vt 0.750218 0.249782
vt 0.750218 -0.000436
vt 1.000436 0.249782
vt 1.000436 0.500000
vt 0.750218 0.500000
vt 0.750218 0.249782
vt 1.000436 0.750218
vt 0.750218 0.750218
vt 1.000436 1.000436
vt 0.750218 1.000436
s 0
usemtl Material
f 41/102/31 45/103/31 47/104/31 43/105/31
f 44/106/32 43/107/32 47/108/32 48/109/32
f 48/110/33 47/111/33 45/112/33 46/106/33
f 46/113/34 42/114/34 44/115/34 48/116/34
f 42/117/35 41/118/35 43/115/35 44/114/35
f 46/119/36 45/120/36 41/118/36 42/117/36
o Cube.006
v 0.401289 0.497759 -0.167724
v 0.401289 0.497759 -0.007724
v 0.371289 0.497759 -0.167724
v 0.371289 0.497759 -0.007724
v 0.401289 -0.502241 -0.167724
v 0.401289 -0.502241 -0.007724
v 0.371289 -0.502241 -0.167724
v 0.371289 -0.502241 -0.007724
vn -0.0000 -0.0000 -1.0000
vn -1.0000 -0.0000 -0.0000
vn -0.0000 -1.0000 -0.0000
vn -0.0000 -0.0000 1.0000
vn -0.0000 1.0000 -0.0000
vn 1.0000 -0.0000 -0.0000
vt -0.250654 1.000436
vt -0.250654 1.250653
vt -0.500871 1.250653
vt -0.500871 1.000436
vt -0.000436 1.250654
vt -0.000436 1.000436
vt 0.249782 1.250654
vt 0.249782 1.000436
vt 0.500000 1.000436
vt 0.500000 1.250653
vt 0.249782 1.250653
vt 0.249782 1.000436
vt 0.750218 1.250653
vt 0.750218 1.000436
vt 1.000436 1.250653
vt 1.000436 1.000436
s 0
usemtl Material
f 49/121/37 53/122/37 55/123/37 51/124/37
f 52/125/38 51/122/38 55/121/38 56/126/38
f 56/127/39 55/125/39 53/126/39 54/128/39
f 54/129/40 50/130/40 52/131/40 56/132/40
f 50/133/41 49/130/41 51/129/41 52/134/41
f 54/135/42 53/133/42 49/134/42 50/136/42
o Cube.007
v 0.401289 0.497759 0.000386
v 0.401289 0.497759 0.160386
v 0.371289 0.497759 0.000386
v 0.371289 0.497759 0.160386
v 0.401289 -0.502241 0.000386
v 0.401289 -0.502241 0.160386
v 0.371289 -0.502241 0.000386
v 0.371289 -0.502241 0.160386
vn -0.0000 -0.0000 -1.0000
vn -1.0000 -0.0000 -0.0000
vn -0.0000 -1.0000 -0.0000
vn -0.0000 -0.0000 1.0000
vn -0.0000 1.0000 -0.0000
vn 1.0000 -0.0000 -0.0000
vt 1.250653 -0.500871
vt 1.250653 -0.250653
vt 1.000436 -0.250653
vt 1.000436 -0.500871
vt 1.250653 -0.000436
vt 1.000436 -0.000436
vt 1.000436 -0.250653
vt 1.250653 -0.250653
vt 1.250653 0.249782
vt 1.000436 0.249782
vt 1.250654 0.249782
vt 1.250654 0.500000
vt 1.000436 0.500000
vt 1.000436 0.249782
vt 1.250653 0.750218
vt 1.000436 0.750218
vt 1.250653 1.000436
vt 1.000436 1.000436
s 0
usemtl Material
f 57/137/43 61/138/43 63/139/43 59/140/43
f 60/141/44 59/142/44 63/143/44 64/144/44
f 64/145/45 63/146/45 61/142/45 62/141/45
f 62/147/46 58/148/46 60/149/46 64/150/46
f 58/151/47 57/152/47 59/149/47 60/148/47
f 62/153/48 61/154/48 57/152/48 58/151/48
o Cube.008
v 0.401289 0.497759 0.168495
v 0.401289 0.497759 0.328495
v 0.371289 0.497759 0.168495
v 0.371289 0.497759 0.328495
v 0.401289 -0.502241 0.168495
v 0.401289 -0.502241 0.328495
v 0.371289 -0.502241 0.168495
v 0.371289 -0.502241 0.328495
vn -0.0000 -0.0000 -1.0000
vn -1.0000 -0.0000 -0.0000
vn -0.0000 -1.0000 -0.0000
vn -0.0000 -0.0000 1.0000
vn -0.0000 1.0000 -0.0000
vn 1.0000 -0.0000 -0.0000
vt 1.250653 1.000436
vt 1.250653 1.250653
vt 1.000436 1.250653
vt 1.000436 1.000436
vt -0.250654 1.500871
vt -0.500871 1.500871
vt -0.500871 1.250653
vt -0.250654 1.250653
vt -0.000436 1.500871
vt -0.250653 1.250653
vt -0.000436 1.250654
vt 0.249782 1.250654
vt 0.249782 1.500871
vt -0.000436 1.500871
vt 0.500000 1.500871
vt 0.249782 1.500871
vt 0.249782 1.250653
vt 0.500000 1.250653
vt 0.750218 1.500871
vt 0.750218 1.250653
s 0
usemtl Material
f 65/155/49 69/156/49 71/157/49 67/158/49
f 68/159/50 67/160/50 71/161/50 72/162/50
f 72/163/51 71/159/51 69/164/51 70/165/51
f 70/166/52 66/167/52 68/168/52 72/165/52
f 66/169/53 65/170/53 67/171/53 68/172/53
f 70/173/54 69/169/54 65/172/54 66/174/54
o Cube.009
v 0.401289 0.497759 0.336604
v 0.401289 0.497759 0.496604
v 0.371289 0.497759 0.336604
v 0.371289 0.497759 0.496604
v 0.401289 -0.502241 0.336604
v 0.401289 -0.502241 0.496604
v 0.371289 -0.502241 0.336604
v 0.371289 -0.502241 0.496604
vn -0.0000 -0.0000 -1.0000
vn -1.0000 -0.0000 -0.0000
vn -0.0000 -1.0000 -0.0000
vn -0.0000 -0.0000 1.0000
vn -0.0000 1.0000 -0.0000
vn 1.0000 -0.0000 -0.0000
vt 1.000436 1.250653
vt 1.000436 1.500871
vt 0.750218 1.500871
vt 0.750218 1.250653
vt 1.250653 1.500871
vt 1.250653 1.250653
vt 1.500871 -0.250653
vt 1.250653 -0.250654
vt 1.250653 -0.500871
vt 1.500871 -0.500871
vt 1.500871 -0.250653
vt 1.500871 -0.000436
vt 1.250653 -0.000436
vt 1.250653 -0.250653
vt 1.500871 0.249782
vt 1.250653 0.249782
vt 1.250653 -0.000436
vt 1.500871 -0.000436
vt 1.500871 0.500000
vt 1.250654 0.500000
vt 1.250654 0.249782
vt 1.500871 0.249782
s 0
usemtl Material
f 73/175/55 77/176/55 79/177/55 75/178/55
f 76/179/56 75/176/56 79/175/56 80/180/56
f 80/181/57 79/182/57 77/183/57 78/184/57
f 78/185/58 74/186/58 76/187/58 80/188/58
f 74/189/59 73/190/59 75/191/59 76/192/59
f 78/193/60 77/194/60 73/195/60 74/196/60
