# Blender 4.3.2
# www.blender.org
mtllib myfences_garden_corner.mtl
o Cube
v 0.450000 0.399323 0.369153
v 0.450000 0.349323 0.369153
v 0.450000 0.399323 0.469153
v 0.450000 0.349323 0.469153
v -0.450000 0.399323 0.369153
v -0.450000 0.349323 0.369153
v -0.450000 0.399323 0.469153
v -0.450000 0.349323 0.469153
vn -0.0000 1.0000 -0.0000
vn -0.0000 -0.0000 1.0000
vn -1.0000 -0.0000 -0.0000
vn -0.0000 -1.0000 -0.0000
vn 1.0000 -0.0000 -0.0000
vn -0.0000 -0.0000 -1.0000
vt -0.342511 -0.830553
vt -0.342511 -0.588634
vt -0.584430 -0.588634
vt -0.584430 -0.830553
vt -0.342511 -0.346716
vt -0.584430 -0.346716
vt -0.342511 -0.588634
vt -0.584430 -0.104797
vt -0.826348 -0.104797
vt -0.826348 -0.346716
vt -0.342511 -0.346716
vt -0.342511 -0.104797
vt -0.584430 -0.346716
vt -0.100592 -0.588634
vt -0.100592 -0.830553
vt -0.100592 -0.346716
vt -0.100592 -0.588634
s 0
usemtl Material
f 1/1/1 5/2/1 7/3/1 3/4/1
f 4/5/2 3/6/2 7/3/2 8/7/2
f 8/8/3 7/9/3 5/10/3 6/6/3
f 6/11/4 2/12/4 4/8/4 8/13/4
f 2/14/5 1/2/5 3/1/5 4/15/5
f 6/16/6 5/5/6 1/2/6 2/17/6
o Cube.001
v 0.447948 0.497759 0.369153
v 0.497948 0.497759 0.369153
v 0.447948 0.497759 0.469153
v 0.497948 0.497759 0.469153
v 0.447947 -0.502241 0.369153
v 0.497947 -0.502241 0.369153
v 0.447947 -0.502241 0.469153
v 0.497947 -0.502241 0.469153
vn -1.0000 -0.0000 -0.0000
vn -0.0000 -0.0000 1.0000
vn -0.0000 -1.0000 -0.0000
vn 1.0000 -0.0000 -0.0000
vn -0.0000 1.0000 -0.0000
vn -0.0000 -0.0000 -1.0000
vt -0.100592 -0.346716
vt -0.100592 -0.104797
vt -0.342511 -0.104797
vt -0.342511 -0.346716
vt -0.584430 0.137122
vt -0.826348 0.137122
vt -0.826348 -0.104797
vt -0.584430 -0.104797
vt -0.342511 0.137122
vt -0.342511 -0.104797
vt -0.100592 -0.104797
vt -0.100592 0.137122
vt -0.342511 0.137122
vt 0.141326 -0.588634
vt -0.100592 -0.588634
vt -0.100592 -0.830553
vt 0.141326 -0.830553
vt 0.141326 -0.346716
vt -0.100592 -0.588634
vt 0.141326 -0.588634
s 0
usemtl Material
f 9/18/7 13/19/7 15/20/7 11/21/7
f 12/22/8 11/23/8 15/24/8 16/25/8
f 16/26/9 15/22/9 13/25/9 14/27/9
f 14/28/10 10/29/10 12/30/10 16/20/10
f 10/31/11 9/32/11 11/33/11 12/34/11
f 14/35/12 13/18/12 9/36/12 10/37/12
o Cube.002
v -0.497947 0.497759 0.369153
v -0.447947 0.497759 0.369153
v -0.497947 0.497759 0.469153
v -0.447947 0.497759 0.469153
v -0.497948 -0.502241 0.369153
v -0.447948 -0.502241 0.369153
v -0.497948 -0.502241 0.469153
v -0.447948 -0.502241 0.469153
vn -1.0000 -0.0000 -0.0000
vn -0.0000 -0.0000 1.0000
vn -0.0000 -1.0000 -0.0000
vn 1.0000 -0.0000 -0.0000
vn -0.0000 1.0000 -0.0000
vn -0.0000 -0.0000 -1.0000
vt 0.141327 -0.346716
vt 0.141326 -0.104797
vt -0.100592 -0.104797
vt -0.100592 -0.346716
vt 0.141326 0.137122
vt -0.100592 0.137122
vt -0.100592 -0.104797
vt 0.141326 -0.104797
vt -0.584430 0.379041
vt -0.826348 0.379041
vt -0.826348 0.137122
vt -0.584430 0.137122
vt -0.342511 0.137122
vt -0.342511 0.379041
vt -0.584430 0.137122
vt -0.100592 0.379041
vt -0.342511 0.137122
vt -0.100592 0.137122
vt 0.141326 0.379041
vt -0.100592 0.379041
vt 0.141326 0.137122
s 0
usemtl Material
f 17/38/13 21/39/13 23/40/13 19/41/13
f 20/42/14 19/43/14 23/44/14 24/45/14
f 24/46/15 23/47/15 21/48/15 22/49/15
f 22/50/16 18/51/16 20/46/16 24/52/16
f 18/53/17 17/51/17 19/54/17 20/55/17
f 22/56/18 21/57/18 17/43/18 18/58/18
o Cube.003
v 0.450000 -0.349323 0.369153
v 0.450000 -0.399323 0.369153
v 0.450000 -0.349323 0.469153
v 0.450000 -0.399323 0.469153
v -0.450000 -0.349323 0.369153
v -0.450000 -0.399323 0.369153
v -0.450000 -0.349323 0.469153
v -0.450000 -0.399323 0.469153
vn -0.0000 1.0000 -0.0000
vn -0.0000 -0.0000 1.0000
vn -1.0000 -0.0000 -0.0000
vn -0.0000 -1.0000 -0.0000
vn 1.0000 -0.0000 -0.0000
vn -0.0000 -0.0000 -1.0000
vt 0.383245 -0.830553
vt 0.383245 -0.588634
vt 0.141326 -0.588634
vt 0.141326 -0.830553
vt 0.383245 -0.346716
vt 0.141326 -0.346716
vt 0.383245 -0.588634
vt 0.383245 -0.104797
vt 0.141326 -0.104797
vt 0.383245 -0.104797
vt 0.383245 0.137122
vt 0.141327 0.137122
vt 0.141327 -0.104797
vt 0.383245 0.379041
vt 0.141327 0.379041
vt 0.141327 0.137122
vt 0.383245 0.137122
vt -0.584430 0.620959
vt -0.826348 0.620959
vt -0.826348 0.379041
vt -0.584430 0.379041
s 0
usemtl Material
f 25/59/19 29/60/19 31/61/19 27/62/19
f 28/63/20 27/64/20 31/61/20 32/65/20
f 32/66/21 31/67/21 29/64/21 30/63/21
f 30/68/22 26/69/22 28/70/22 32/71/22
f 26/72/23 25/73/23 27/74/23 28/75/23
f 30/76/24 29/77/24 25/78/24 26/79/24
o Cube.004
v 0.495517 0.498635 0.469155
v 0.495517 0.348635 0.469155
v 0.495517 0.498635 0.499155
v 0.495517 0.348635 0.499155
v -0.504483 0.498636 0.469155
v -0.504483 0.348636 0.469155
v -0.504483 0.498636 0.499155
v -0.504483 0.348636 0.499155
vn -0.0000 1.0000 -0.0000
vn -0.0000 -0.0000 1.0000
vn -1.0000 -0.0000 -0.0000
vn -0.0000 -1.0000 -0.0000
vn 1.0000 -0.0000 -0.0000
vn -0.0000 -0.0000 -1.0000
vt -0.342511 0.379041
vt -0.342511 0.620959
vt -0.584430 0.620959
vt -0.584430 0.379041
vt -0.100592 0.620959
vt -0.342511 0.620959
vt -0.342511 0.379041
vt -0.100592 0.379041
vt 0.141327 0.620959
vt -0.100592 0.620959
vt -0.100592 0.379041
vt 0.141327 0.379041
vt 0.383245 0.379041
vt 0.383245 0.620959
vt 0.625164 -0.588634
vt 0.383245 -0.588634
vt 0.383245 -0.830553
vt 0.625164 -0.830553
vt 0.625164 -0.346716
vt 0.383245 -0.346716
vt 0.383245 -0.588634
vt 0.625164 -0.588634
s 0
usemtl Material
f 33/80/25 37/81/25 39/82/25 35/83/25
f 36/84/26 35/85/26 39/86/26 40/87/26
f 40/88/27 39/89/27 37/90/27 38/91/27
f 38/92/28 34/93/28 36/88/28 40/91/28
f 34/94/29 33/95/29 35/96/29 36/97/29
f 38/98/30 37/99/30 33/100/30 34/101/30
o Cube.005
v 0.495517 0.342250 0.469155
v 0.495517 0.182250 0.469155
v 0.495517 0.342250 0.499155
v 0.495517 0.182250 0.499155
v -0.504483 0.342251 0.469155
v -0.504483 0.182251 0.469155
v -0.504483 0.342251 0.499155
v -0.504483 0.182251 0.499155
vn -0.0000 1.0000 -0.0000
vn -0.0000 -0.0000 1.0000
vn -1.0000 -0.0000 -0.0000
vn -0.0000 -1.0000 -0.0000
vn 1.0000 -0.0000 -0.0000
vn -0.0000 -0.0000 -1.0000
vt 0.625164 -0.346716
vt 0.625164 -0.104797
vt 0.383245 -0.104797
vt 0.383245 -0.346716
vt 0.625164 0.137122
vt 0.383245 0.137122
vt 0.383245 -0.104797
vt 0.625164 -0.104797
vt 0.625164 0.379041
vt 0.383245 0.379041
vt 0.625164 0.620959
vt 0.383245 0.620959
vt -0.584430 0.862878
vt -0.826348 0.862878
vt -0.826348 0.620959
vt -0.584430 0.620959
vt -0.342511 0.862878
vt -0.342511 0.620959
s 0
usemtl Material
f 41/102/31 45/103/31 47/104/31 43/105/31
f 44/106/32 43/107/32 47/108/32 48/109/32
f 48/110/33 47/111/33 45/107/33 46/106/33
f 46/110/34 42/112/34 44/113/34 48/111/34
f 42/114/35 41/115/35 43/116/35 44/117/35
f 46/118/36 45/114/36 41/117/36 42/119/36
o Cube.006
v 0.495517 0.174141 0.469155
v 0.495517 0.014141 0.469155
v 0.495517 0.174141 0.499155
v 0.495517 0.014141 0.499155
v -0.504483 0.174141 0.469155
v -0.504483 0.014141 0.469155
v -0.504483 0.174141 0.499155
v -0.504483 0.014141 0.499155
vn -0.0000 1.0000 -0.0000
vn -0.0000 -0.0000 1.0000
vn -1.0000 -0.0000 -0.0000
vn -0.0000 -1.0000 -0.0000
vn 1.0000 -0.0000 -0.0000
vn -0.0000 -0.0000 -1.0000
vt -0.100592 0.620959
vt -0.100592 0.862878
vt -0.342511 0.862878
vt -0.342511 0.620959
vt 0.141326 0.862878
vt -0.100592 0.862878
vt -0.100592 0.620959
vt 0.141327 0.620959
vt 0.383245 0.862878
vt 0.383245 0.620959
vt 0.625164 0.620959
vt 0.625164 0.862878
vt 0.867083 -0.588634
vt 0.625164 -0.588634
vt 0.625164 -0.830553
vt 0.867083 -0.830553
vt 0.867083 -0.346716
vt 0.625164 -0.346716
vt 0.625164 -0.588634
vt 0.867083 -0.588634
s 0
usemtl Material
f 49/120/37 53/121/37 55/122/37 51/123/37
f 52/124/38 51/125/38 55/126/38 56/127/38
f 56/128/39 55/124/39 53/127/39 54/129/39
f 54/130/40 50/131/40 52/128/40 56/129/40
f 50/132/41 49/133/41 51/134/41 52/135/41
f 54/136/42 53/137/42 49/138/42 50/139/42
o Cube.007
v 0.495517 0.006032 0.469155
v 0.495517 -0.153968 0.469155
v 0.495517 0.006032 0.499155
v 0.495517 -0.153968 0.499155
v -0.504483 0.006032 0.469155
v -0.504483 -0.153968 0.469155
v -0.504483 0.006032 0.499155
v -0.504483 -0.153968 0.499155
vn -0.0000 1.0000 -0.0000
vn -0.0000 -0.0000 1.0000
vn -1.0000 -0.0000 -0.0000
vn -0.0000 -1.0000 -0.0000
vn 1.0000 -0.0000 -0.0000
vn -0.0000 -0.0000 -1.0000
vt 0.867083 -0.346716
vt 0.867083 -0.104797
vt 0.625164 -0.104797
vt 0.625164 -0.346716
vt 0.867083 0.137122
vt 0.625164 0.137122
vt 0.625164 -0.104797
vt 0.867083 -0.104797
vt 0.867083 0.379041
vt 0.625164 0.379041
vt 0.867083 0.620959
vt 0.625164 0.620959
vt 0.867083 0.862878
vt 0.625164 0.862878
vt -0.584430 1.104797
vt -0.826348 1.104797
vt -0.826348 0.862878
vt -0.584430 0.862878
s 0
usemtl Material
f 57/140/43 61/141/43 63/142/43 59/143/43
f 60/144/44 59/145/44 63/146/44 64/147/44
f 64/148/45 63/149/45 61/145/45 62/144/45
f 62/148/46 58/150/46 60/151/46 64/149/46
f 58/152/47 57/153/47 59/151/47 60/150/47
f 62/154/48 61/155/48 57/156/48 58/157/48
o Cube.008
v 0.495517 -0.162078 0.469155
v 0.495517 -0.322078 0.469155
v 0.495517 -0.162078 0.499155
v 0.495517 -0.322078 0.499155
v -0.504483 -0.162077 0.469155
v -0.504483 -0.322077 0.469155
v -0.504483 -0.162077 0.499155
v -0.504483 -0.322077 0.499155
vn -0.0000 1.0000 -0.0000
vn -0.0000 -0.0000 1.0000
vn -1.0000 -0.0000 -0.0000
vn -0.0000 -1.0000 -0.0000
vn 1.0000 -0.0000 -0.0000
vn -0.0000 -0.0000 -1.0000
vt -0.342511 0.862878
vt -0.342511 1.104797
vt -0.584430 1.104797
vt -0.584430 0.862878
vt -0.100592 1.104797
vt -0.342511 0.862878
vt -0.100592 0.862878
vt 0.141326 1.104797
vt -0.100592 1.104797
vt -0.100592 0.862878
vt 0.141326 0.862878
vt 0.383245 0.862878
vt 0.383245 1.104797
vt 0.625164 1.104797
vt 0.625164 0.862878
vt 0.867083 1.104797
vt 0.867083 0.862878
s 0
usemtl Material
f 65/158/49 69/159/49 71/160/49 67/161/49
f 68/162/50 67/159/50 71/163/50 72/164/50
f 72/165/51 71/166/51 69/167/51 70/168/51
f 70/169/52 66/170/52 68/165/52 72/168/52
f 66/171/53 65/170/53 67/169/53 68/172/53
f 70/173/54 69/171/54 65/172/54 66/174/54
o Cube.009
v 0.495517 -0.330187 0.469155
v 0.495517 -0.490187 0.469155
v 0.495517 -0.330187 0.499155
v 0.495517 -0.490187 0.499155
v -0.504483 -0.330187 0.469155
v -0.504483 -0.490187 0.469155
v -0.504483 -0.330187 0.499155
v -0.504483 -0.490187 0.499155
vn -0.0000 1.0000 -0.0000
vn -0.0000 -0.0000 1.0000
vn -1.0000 -0.0000 -0.0000
vn -0.0000 -1.0000 -0.0000
vn 1.0000 -0.0000 -0.0000
vn -0.0000 -0.0000 -1.0000
vt 1.109001 -0.830553
vt 1.109001 -0.588634
vt 0.867083 -0.588634
vt 0.867083 -0.830553
vt 1.109001 -0.346716
vt 0.867083 -0.346716
vt 1.109001 -0.588634
vt 1.109001 -0.104797
vt 0.867083 -0.104797
vt 1.109001 -0.104797
vt 1.109001 0.137122
vt 0.867083 0.137122
vt 0.867083 -0.104797
vt 1.109001 0.379041
vt 0.867083 0.379041
vt 1.109001 0.620959
vt 0.867083 0.620959
s 0
usemtl Material
f 73/175/55 77/176/55 79/177/55 75/178/55
f 76/179/56 75/180/56 79/177/56 80/181/56
f 80/182/57 79/183/57 77/180/57 78/179/57
f 78/184/58 74/185/58 76/186/58 80/187/58
f 74/188/59 73/189/59 75/186/59 76/185/59
f 78/190/60 77/191/60 73/189/60 74/188/60
o Cube.010
v -0.372334 0.399323 0.323100
v -0.372334 0.349323 0.323100
v -0.472334 0.399323 0.323100
v -0.472334 0.349323 0.323100
v -0.372334 0.399323 -0.450061
v -0.372334 0.349323 -0.450061
v -0.472334 0.399323 -0.450061
v -0.472334 0.349323 -0.450061
vn -0.0000 1.0000 -0.0000
vn -1.0000 -0.0000 -0.0000
vn -0.0000 -0.0000 -1.0000
vn -0.0000 -1.0000 -0.0000
vn -0.0000 -0.0000 1.0000
vn 1.0000 -0.0000 -0.0000
vt 0.267491 1.830553
vt 0.059667 1.830553
vt 0.059667 1.588634
vt 0.267491 1.588634
vt 0.267491 1.830553
vt 0.267491 1.588634
vt 0.475315 1.588634
vt 0.475315 1.830553
vt 1.109001 0.862878
vt 0.867083 0.862878
vt 0.867083 0.620959
vt 1.109001 0.620959
vt 0.683140 1.830553
vt 0.475315 1.830553
vt 0.475315 1.588634
vt 0.683140 1.588634
vt 1.109001 1.104797
vt 0.867083 1.104797
vt 1.109001 0.862878
vt -0.355982 1.830553
vt -0.355982 1.588634
vt -0.148158 1.588634
vt -0.148158 1.830553
s 0
usemtl Material
f 81/192/61 85/193/61 87/194/61 83/195/61
f 84/196/62 83/197/62 87/198/62 88/199/62
f 88/200/63 87/201/63 85/202/63 86/203/63
f 86/204/64 82/205/64 84/206/64 88/207/64
f 82/208/65 81/209/65 83/201/65 84/210/65
f 86/211/66 85/212/66 81/213/66 82/214/66
o Cube.011
v -0.372334 0.497759 0.321047
v -0.372334 0.497759 0.371047
v -0.472334 0.497759 0.321047
v -0.472334 0.497759 0.371047
v -0.372334 -0.502241 0.321047
v -0.372334 -0.502241 0.371047
v -0.472334 -0.502241 0.321047
v -0.472334 -0.502241 0.371047
vn -0.0000 -0.0000 -1.0000
vn -1.0000 -0.0000 -0.0000
vn -0.0000 -1.0000 -0.0000
vn -0.0000 -0.0000 1.0000
vn -0.0000 1.0000 -0.0000
vn 1.0000 -0.0000 -0.0000
vt -0.584430 1.104797
vt -0.584430 1.346716
vt -0.826348 1.346716
vt -0.826348 1.104797
vt -0.342511 1.346716
vt -0.342511 1.104797
vt -0.100592 1.346716
vt -0.342511 1.346716
vt -0.342511 1.104797
vt -0.100592 1.104797
vt 0.141327 1.104797
vt 0.141327 1.346716
vt -0.100592 1.346716
vt -0.100592 1.104797
vt 0.383245 1.346716
vt 0.141326 1.346716
vt 0.141326 1.104797
vt 0.383245 1.104797
vt 0.625164 1.346716
vt 0.625164 1.104797
s 0
usemtl Material
f 89/215/67 93/216/67 95/217/67 91/218/67
f 92/219/68 91/216/68 95/215/68 96/220/68
f 96/221/69 95/222/69 93/223/69 94/224/69
f 94/225/70 90/226/70 92/227/70 96/228/70
f 90/229/71 89/230/71 91/231/71 92/232/71
f 94/233/72 93/229/72 89/232/72 90/234/72
o Cube.012
v -0.372334 0.497759 -0.498009
v -0.372334 0.497759 -0.448009
v -0.472334 0.497759 -0.498009
v -0.472334 0.497759 -0.448009
v -0.372334 -0.502241 -0.498009
v -0.372334 -0.502241 -0.448009
v -0.472334 -0.502241 -0.498009
v -0.472334 -0.502241 -0.448009
vn -0.0000 -0.0000 -1.0000
vn -1.0000 -0.0000 -0.0000
vn -0.0000 -1.0000 -0.0000
vn -0.0000 -0.0000 1.0000
vn -0.0000 1.0000 -0.0000
vn 1.0000 -0.0000 -0.0000
vt 0.867083 1.104797
vt 0.867083 1.346715
vt 0.625164 1.346715
vt 0.625164 1.104797
vt 1.109001 1.346715
vt 1.109001 1.104797
vt 1.350920 -0.588634
vt 1.109001 -0.588634
vt 1.109001 -0.830553
vt 1.350920 -0.830553
vt 1.350920 -0.588634
vt 1.350920 -0.346716
vt 1.109001 -0.346716
vt 1.109001 -0.588634
vt 1.350920 -0.104797
vt 1.109001 -0.104797
vt 1.350920 0.137122
vt 1.109001 0.137122
vt 1.350920 -0.104797
s 0
usemtl Material
f 97/235/73 101/236/73 103/237/73 99/238/73
f 100/239/74 99/236/74 103/235/74 104/240/74
f 104/241/75 103/242/75 101/243/75 102/244/75
f 102/245/76 98/246/76 100/247/76 104/248/76
f 98/249/77 97/250/77 99/247/77 100/246/77
f 102/251/78 101/252/78 97/250/78 98/253/78
o Cube.013
v -0.372334 -0.349323 0.323100
v -0.372334 -0.399323 0.323100
v -0.472334 -0.349323 0.323100
v -0.472334 -0.399323 0.323100
v -0.372334 -0.349323 -0.450061
v -0.372334 -0.399323 -0.450061
v -0.472334 -0.349323 -0.450061
v -0.472334 -0.399323 -0.450061
vn -0.0000 1.0000 -0.0000
vn -1.0000 -0.0000 -0.0000
vn -0.0000 -0.0000 -1.0000
vn -0.0000 -1.0000 -0.0000
vn -0.0000 -0.0000 1.0000
vn 1.0000 -0.0000 -0.0000
vt 0.890964 1.830553
vt 0.683140 1.830553
vt 0.683140 1.588634
vt 0.890964 1.588634
vt 1.098789 1.588634
vt 1.098789 1.830553
vt 1.350920 0.379041
vt 1.109001 0.379041
vt 1.109001 0.137122
vt 1.350920 0.137122
vt 1.306614 1.830553
vt 1.098789 1.830553
vt 1.098789 1.588634
vt 1.306614 1.588634
vt 1.350920 0.620959
vt 1.109001 0.620959
vt 1.109001 0.379041
vt -0.148158 1.830553
vt -0.148158 1.588634
vt 0.059667 1.588634
vt 0.059667 1.830553
s 0
usemtl Material
f 105/254/79 109/255/79 111/256/79 107/257/79
f 108/254/80 107/257/80 111/258/80 112/259/80
f 112/260/81 111/261/81 109/262/81 110/263/81
f 110/264/82 106/265/82 108/266/82 112/267/82
f 106/268/83 105/269/83 107/270/83 108/260/83
f 110/271/84 109/272/84 105/273/84 106/274/84
o Cube.014
v -0.472336 0.498635 0.467613
v -0.472336 0.348635 0.467613
v -0.502336 0.498635 0.467613
v -0.502336 0.348635 0.467613
v -0.472336 0.498636 -0.504544
v -0.472336 0.348636 -0.504544
v -0.502336 0.498636 -0.504544
v -0.502336 0.348636 -0.504544
vn -0.0000 1.0000 -0.0000
vn -1.0000 -0.0000 -0.0000
vn -0.0000 -0.0000 -1.0000
vn -0.0000 -1.0000 -0.0000
vn -0.0000 -0.0000 1.0000
vn 1.0000 -0.0000 -0.0000
vt 1.586103 -0.346716
vt 1.350920 -0.346716
vt 1.350920 -0.588634
vt 1.586103 -0.588634
vt 1.350920 -0.104797
vt 1.350920 -0.346716
vt 1.586103 -0.346716
vt 1.586103 -0.104797
vt 1.350920 0.862878
vt 1.109002 0.862878
vt 1.109002 0.620959
vt 1.350920 0.620959
vt 1.586103 0.137122
vt 1.350920 0.137122
vt 1.350920 1.104797
vt 1.109002 1.104797
vt 1.109002 0.862878
vt 1.350920 0.862878
vt 1.586103 1.104797
vt 1.586103 0.862878
vt 1.821286 0.862878
vt 1.821286 1.104797
s 0
usemtl Material
f 113/275/85 117/276/85 119/277/85 115/278/85
f 116/279/86 115/280/86 119/281/86 120/282/86
f 120/283/87 119/284/87 117/285/87 118/286/87
f 118/287/88 114/288/88 116/279/88 120/282/88
f 114/289/89 113/290/89 115/291/89 116/292/89
f 118/293/90 117/294/90 113/295/90 114/296/90
o Cube.015
v -0.472336 0.342251 0.467613
v -0.472336 0.182251 0.467613
v -0.502336 0.342251 0.467613
v -0.502336 0.182251 0.467613
v -0.472336 0.342251 -0.504544
v -0.472336 0.182251 -0.504544
v -0.502336 0.342251 -0.504544
v -0.502336 0.182251 -0.504544
vn -0.0000 1.0000 -0.0000
vn -1.0000 -0.0000 -0.0000
vn -0.0000 -0.0000 -1.0000
vn -0.0000 -1.0000 -0.0000
vn -0.0000 -0.0000 1.0000
vn 1.0000 -0.0000 -0.0000
vt 1.586103 0.379041
vt 1.350920 0.379041
vt 1.350920 0.137122
vt 1.586103 0.137122
vt 1.350920 0.620959
vt 1.350920 0.379041
vt 1.586103 0.379041
vt 1.586103 0.620959
vt 1.350920 1.346715
vt 1.109002 1.346715
vt 1.109002 1.104797
vt 1.350920 1.104797
vt 1.586103 0.862878
vt 1.350920 0.862878
vt -0.584430 1.588634
vt -0.826348 1.588634
vt -0.826348 1.346716
vt -0.584430 1.346716
vt 1.586103 1.346715
vt 1.586103 1.104797
vt 1.821286 1.104797
vt 1.821286 1.346715
s 0
usemtl Material
f 121/297/91 125/298/91 127/299/91 123/300/91
f 124/301/92 123/302/92 127/303/92 128/304/92
f 128/305/93 127/306/93 125/307/93 126/308/93
f 126/309/94 122/310/94 124/301/94 128/304/94
f 122/311/95 121/312/95 123/313/95 124/314/95
f 126/315/96 125/316/96 121/317/96 122/318/96
o Cube.016
v -0.472336 0.174141 0.467613
v -0.472336 0.014141 0.467613
v -0.502336 0.174141 0.467613
v -0.502336 0.014141 0.467613
v -0.472336 0.174141 -0.504544
v -0.472336 0.014141 -0.504544
v -0.502336 0.174141 -0.504544
v -0.502336 0.014141 -0.504544
vn -0.0000 1.0000 -0.0000
vn -1.0000 -0.0000 -0.0000
vn -0.0000 -0.0000 -1.0000
vn -0.0000 -1.0000 -0.0000
vn -0.0000 -0.0000 1.0000
vn 1.0000 -0.0000 -0.0000
vt 1.586103 1.104797
vt 1.350920 1.104797
vt 1.350920 0.862878
vt 1.586103 0.862878
vt 1.350920 1.346715
vt 1.350920 1.104797
vt 1.586103 1.104797
vt 1.586103 1.346715
vt -0.342511 1.588634
vt -0.584430 1.588634
vt -0.584430 1.346716
vt -0.342511 1.346716
vt 1.586103 1.588634
vt 1.350920 1.588634
vt -0.100592 1.588634
vt -0.100592 1.346716
vt 1.586103 1.588634
vt 1.586103 1.346715
vt 1.821286 1.346715
vt 1.821286 1.588634
s 0
usemtl Material
f 129/319/97 133/320/97 135/321/97 131/322/97
f 132/323/98 131/324/98 135/325/98 136/326/98
f 136/327/99 135/328/99 133/329/99 134/330/99
f 134/331/100 130/332/100 132/323/100 136/326/100
f 130/333/101 129/327/101 131/330/101 132/334/101
f 134/335/102 133/336/102 129/337/102 130/338/102
o Cube.017
v -0.472336 0.006032 0.467613
v -0.472336 -0.153968 0.467613
v -0.502336 0.006032 0.467613
v -0.502336 -0.153968 0.467613
v -0.472336 0.006032 -0.504544
v -0.472336 -0.153968 -0.504544
v -0.502336 0.006032 -0.504544
v -0.502336 -0.153968 -0.504544
vn -0.0000 1.0000 -0.0000
vn -1.0000 -0.0000 -0.0000
vn -0.0000 -0.0000 -1.0000
vn -0.0000 -1.0000 -0.0000
vn -0.0000 -0.0000 1.0000
vn 1.0000 -0.0000 -0.0000
vt 1.821286 -0.588634
vt 1.586103 -0.588634
vt 1.586103 -0.830553
vt 1.821286 -0.830553
vt 1.586103 -0.346716
vt 1.586103 -0.588634
vt 1.821286 -0.588634
vt 1.821286 -0.346716
vt 0.141326 1.588634
vt -0.100592 1.588634
vt -0.100592 1.346716
vt 0.141327 1.346716
vt 1.821286 -0.104797
vt 1.586103 -0.104797
vt 0.383245 1.588634
vt 0.141327 1.588634
vt 0.383245 1.346716
vt -0.826348 1.830553
vt -0.826348 1.588634
vt -0.591165 1.588634
vt -0.591165 1.830553
s 0
usemtl Material
f 137/339/103 141/340/103 143/341/103 139/342/103
f 140/343/104 139/344/104 143/345/104 144/346/104
f 144/347/105 143/348/105 141/349/105 142/350/105
f 142/351/106 138/352/106 140/343/106 144/346/106
f 138/353/107 137/354/107 139/350/107 140/355/107
f 142/356/108 141/357/108 137/358/108 138/359/108
o Cube.018
v -0.472336 -0.162077 0.467613
v -0.472336 -0.322077 0.467613
v -0.502336 -0.162077 0.467613
v -0.502336 -0.322077 0.467613
v -0.472336 -0.162077 -0.504544
v -0.472336 -0.322077 -0.504544
v -0.502336 -0.162077 -0.504544
v -0.502336 -0.322077 -0.504544
vn -0.0000 1.0000 -0.0000
vn -1.0000 -0.0000 -0.0000
vn -0.0000 -0.0000 -1.0000
vn -0.0000 -1.0000 -0.0000
vn -0.0000 -0.0000 1.0000
vn 1.0000 -0.0000 -0.0000
vt 1.821286 0.137122
vt 1.586103 0.137122
vt 1.586103 -0.104797
vt 1.821286 -0.104797
vt 1.586103 0.379041
vt 1.586103 0.137122
vt 1.821286 0.137122
vt 1.821286 0.379041
vt 0.625164 1.588634
vt 0.383245 1.588634
vt 0.383245 1.346716
vt 0.625164 1.346716
vt 1.821286 0.620959
vt 1.586103 0.620959
vt 0.867083 1.588634
vt 0.625164 1.588634
vt 0.625164 1.346715
vt 0.867083 1.346715
vt -0.591165 1.830553
vt -0.591165 1.588634
vt -0.355982 1.588634
vt -0.355982 1.830553
s 0
usemtl Material
f 145/360/109 149/361/109 151/362/109 147/363/109
f 148/364/110 147/365/110 151/366/110 152/367/110
f 152/368/111 151/369/111 149/370/111 150/371/111
f 150/372/112 146/373/112 148/364/112 152/367/112
f 146/374/113 145/375/113 147/376/113 148/377/113
f 150/378/114 149/379/114 145/380/114 146/381/114
o Cube.019
v -0.472336 -0.330187 0.467613
v -0.472336 -0.490187 0.467613
v -0.502336 -0.330187 0.467613
v -0.502336 -0.490187 0.467613
v -0.472336 -0.330187 -0.504544
v -0.472336 -0.490187 -0.504544
v -0.502336 -0.330187 -0.504544
v -0.502336 -0.490187 -0.504544
vn -0.0000 1.0000 -0.0000
vn -1.0000 -0.0000 -0.0000
vn -0.0000 -0.0000 -1.0000
vn -0.0000 -1.0000 -0.0000
vn -0.0000 -0.0000 1.0000
vn 1.0000 -0.0000 -0.0000
vt 1.102266 1.588634
vt 0.867083 1.588634
vt 0.867083 1.346716
vt 1.102266 1.346716
vt 1.102265 1.588634
vt 1.102265 1.346716
vt 1.337448 1.346716
vt 1.337448 1.588634
vt -0.584430 -0.588634
vt -0.826348 -0.588634
vt -0.826348 -0.830553
vt -0.584430 -0.830553
vt 1.586103 -0.588634
vt 1.350920 -0.588634
vt 1.350920 -0.830553
vt 1.586103 -0.830553
vt -0.584430 -0.346716
vt -0.826348 -0.346716
vt -0.584430 -0.588634
vt 1.586103 0.862878
vt 1.586103 0.620959
vt 1.821286 0.620959
vt 1.821286 0.862878
s 0
usemtl Material
f 153/382/115 157/383/115 159/384/115 155/385/115
f 156/386/116 155/387/116 159/388/116 160/389/116
f 160/390/117 159/391/117 157/392/117 158/393/117
f 158/394/118 154/395/118 156/396/118 160/397/118
f 154/398/119 153/399/119 155/391/119 156/400/119
f 158/401/120 157/402/120 153/403/120 154/404/120
