# Blender 4.3.2
# www.blender.org
mtllib myfences_neighbor.mtl
o Cube
v 0.450000 0.399323 0.369153
v 0.450000 0.349323 0.369153
v 0.450000 0.399323 0.469153
v 0.450000 0.349323 0.469153
v -0.450000 0.399323 0.369153
v -0.450000 0.349323 0.369153
v -0.450000 0.399323 0.469153
v -0.450000 0.349323 0.469153
vn -0.0000 1.0000 -0.0000
vn -0.0000 -0.0000 1.0000
vn -1.0000 -0.0000 -0.0000
vn -0.0000 -1.0000 -0.0000
vn 1.0000 -0.0000 -0.0000
vn -0.0000 -0.0000 -1.0000
vt 0.239652 -0.630550
vt 0.239652 -0.382789
vt -0.008109 -0.382789
vt -0.008109 -0.630550
vt 0.239652 -0.135028
vt -0.008109 -0.135028
vt 0.239652 0.112733
vt -0.008109 0.112733
vt -0.008109 -0.135028
vt -0.255870 0.112733
vt -0.255870 0.360494
vt -0.503632 0.360494
vt -0.503632 0.112733
vt -0.008109 0.360494
vt -0.255870 0.112733
vt -0.008109 0.112733
vt 0.239652 0.360494
vt -0.008109 0.360494
vt -0.008109 0.112733
vt 0.239652 0.112733
s 0
usemtl Material
f 1/1/1 5/2/1 7/3/1 3/4/1
f 4/5/2 3/6/2 7/3/2 8/2/2
f 8/7/3 7/8/3 5/9/3 6/5/3
f 6/10/4 2/11/4 4/12/4 8/13/4
f 2/14/5 1/11/5 3/15/5 4/16/5
f 6/17/6 5/18/6 1/19/6 2/20/6
o Cube.001
v 0.447948 0.497759 0.369153
v 0.497948 0.497759 0.369153
v 0.447948 0.497759 0.469153
v 0.497948 0.497759 0.469153
v 0.447947 -0.502241 0.369153
v 0.497947 -0.502241 0.369153
v 0.447947 -0.502241 0.469153
v 0.497947 -0.502241 0.469153
vn -1.0000 -0.0000 -0.0000
vn -0.0000 -0.0000 1.0000
vn -0.0000 -1.0000 -0.0000
vn 1.0000 -0.0000 -0.0000
vn -0.0000 1.0000 -0.0000
vn -0.0000 -0.0000 -1.0000
vt 0.487413 -0.630550
vt 0.487413 -0.382789
vt 0.239652 -0.382789
vt 0.239652 -0.630550
vt 0.487413 -0.135028
vt 0.239652 -0.135028
vt 0.487413 -0.382789
vt 0.487413 0.112733
vt 0.239652 0.112733
vt 0.239652 -0.135028
vt 0.487413 -0.135028
vt 0.487413 0.112733
vt 0.487413 0.360494
vt 0.239652 0.360494
vt 0.239652 0.112733
vt -0.255870 0.608256
vt -0.503632 0.608256
vt -0.503632 0.360494
vt -0.255870 0.360494
vt -0.008109 0.608256
vt -0.255870 0.360494
vt -0.008109 0.360494
s 0
usemtl Material
f 9/21/7 13/22/7 15/23/7 11/24/7
f 12/25/8 11/26/8 15/23/8 16/27/8
f 16/28/9 15/29/9 13/30/9 14/31/9
f 14/32/10 10/33/10 12/34/10 16/35/10
f 10/36/11 9/37/11 11/38/11 12/39/11
f 14/40/12 13/36/12 9/41/12 10/42/12
o Cube.002
v -0.497947 0.497759 0.369153
v -0.447947 0.497759 0.369153
v -0.497947 0.497759 0.469153
v -0.447947 0.497759 0.469153
v -0.497948 -0.502241 0.369153
v -0.447948 -0.502241 0.369153
v -0.497948 -0.502241 0.469153
v -0.447948 -0.502241 0.469153
vn -1.0000 -0.0000 -0.0000
vn -0.0000 -0.0000 1.0000
vn -0.0000 -1.0000 -0.0000
vn 1.0000 -0.0000 -0.0000
vn -0.0000 1.0000 -0.0000
vn -0.0000 -0.0000 -1.0000
vt 0.239652 0.360494
vt 0.239652 0.608256
vt -0.008109 0.608256
vt -0.008109 0.360494
vt 0.487413 0.608256
vt 0.239652 0.608256
vt 0.239652 0.360494
vt 0.487413 0.360494
vt 0.735174 -0.382789
vt 0.487413 -0.382789
vt 0.487413 -0.630550
vt 0.735174 -0.630550
vt 0.735174 -0.382789
vt 0.735174 -0.135028
vt 0.487413 -0.135028
vt 0.735174 0.112733
vt 0.487413 0.112733
vt 0.487413 -0.135028
vt 0.735174 -0.135028
vt 0.735174 0.360494
vt 0.487413 0.360494
vt 0.487413 0.112733
vt 0.735174 0.112733
s 0
usemtl Material
f 17/43/13 21/44/13 23/45/13 19/46/13
f 20/47/14 19/48/14 23/49/14 24/50/14
f 24/51/15 23/52/15 21/53/15 22/54/15
f 22/55/16 18/56/16 20/57/16 24/52/16
f 18/58/17 17/59/17 19/60/17 20/61/17
f 22/62/18 21/63/18 17/64/18 18/65/18
o Cube.003
v 0.450000 -0.349323 0.369153
v 0.450000 -0.399323 0.369153
v 0.450000 -0.349323 0.469153
v 0.450000 -0.399323 0.469153
v -0.450000 -0.349323 0.369153
v -0.450000 -0.399323 0.369153
v -0.450000 -0.349323 0.469153
v -0.450000 -0.399323 0.469153
vn -0.0000 1.0000 -0.0000
vn -0.0000 -0.0000 1.0000
vn -1.0000 -0.0000 -0.0000
vn -0.0000 -1.0000 -0.0000
vn 1.0000 -0.0000 -0.0000
vn -0.0000 -0.0000 -1.0000
vt 0.735174 0.360494
vt 0.735174 0.608256
vt 0.487413 0.608256
vt 0.487413 0.360494
vt -0.255870 0.856017
vt -0.503632 0.856017
vt -0.503632 0.608256
vt -0.255870 0.608256
vt -0.008109 0.856017
vt -0.008109 0.608256
vt 0.239652 0.608256
vt 0.239652 0.856017
vt -0.008109 0.856017
vt -0.008109 0.608256
vt 0.487413 0.856017
vt 0.239652 0.856017
vt 0.239652 0.608256
vt 0.735174 0.856017
s 0
usemtl Material
f 25/66/19 29/67/19 31/68/19 27/69/19
f 28/70/20 27/71/20 31/72/20 32/73/20
f 32/74/21 31/70/21 29/73/21 30/75/21
f 30/76/22 26/77/22 28/78/22 32/79/22
f 26/80/23 25/81/23 27/82/23 28/68/23
f 30/83/24 29/80/24 25/68/24 26/67/24
o Cube.004
v -0.494152 0.497759 0.469155
v -0.344152 0.497759 0.469155
v -0.494152 0.497759 0.499155
v -0.344152 0.497759 0.499155
v -0.494153 -0.502241 0.469155
v -0.344153 -0.502241 0.469155
v -0.494153 -0.502241 0.499155
v -0.344153 -0.502241 0.499155
vn -1.0000 -0.0000 -0.0000
vn -0.0000 -0.0000 1.0000
vn -0.0000 -1.0000 -0.0000
vn 1.0000 -0.0000 -0.0000
vn -0.0000 1.0000 -0.0000
vn -0.0000 -0.0000 -1.0000
vt 0.982936 -0.630550
vt 0.982936 -0.382789
vt 0.735174 -0.382789
vt 0.735174 -0.630550
vt 0.982936 -0.135028
vt 0.735174 -0.135028
vt 0.735174 -0.382789
vt 0.982936 -0.382789
vt 0.982936 0.112733
vt 0.735174 0.112733
vt 0.735174 -0.135028
vt 0.982936 0.112733
vt 0.982936 0.360494
vt 0.735174 0.360494
vt 0.735174 0.112733
vt 0.982936 0.608256
vt 0.735174 0.608256
vt 0.982936 0.856017
vt 0.735174 0.856017
s 0
usemtl Material
f 33/84/25 37/85/25 39/86/25 35/87/25
f 36/88/26 35/89/26 39/90/26 40/91/26
f 40/92/27 39/93/27 37/94/27 38/88/27
f 38/95/28 34/96/28 36/97/28 40/98/28
f 34/99/29 33/100/29 35/97/29 36/96/29
f 38/101/30 37/102/30 33/100/30 34/99/30
o Cube.005
v -0.373631 0.497759 0.339150
v -0.213631 0.497759 0.339150
v -0.373631 0.497759 0.369150
v -0.213631 0.497759 0.369150
v -0.373631 -0.502241 0.339150
v -0.213631 -0.502241 0.339150
v -0.373631 -0.502241 0.369150
v -0.213631 -0.502241 0.369150
vn -1.0000 -0.0000 -0.0000
vn -0.0000 -0.0000 1.0000
vn -0.0000 -1.0000 -0.0000
vn 1.0000 -0.0000 -0.0000
vn -0.0000 1.0000 -0.0000
vn -0.0000 -0.0000 -1.0000
vt -0.255870 0.856017
vt -0.255870 1.103778
vt -0.503632 1.103778
vt -0.503632 0.856017
vt -0.008109 1.103778
vt -0.255870 0.856017
vt -0.008109 0.856017
vt 0.239652 1.103778
vt 0.239652 0.856017
vt 0.487413 0.856017
vt 0.487413 1.103778
vt 0.239652 1.103778
vt 0.239652 0.856017
vt 0.735174 1.103778
vt 0.735174 0.856017
vt 0.982936 1.103778
vt 0.982936 0.856017
s 0
usemtl Material
f 41/103/31 45/104/31 47/105/31 43/106/31
f 44/107/32 43/104/32 47/108/32 48/109/32
f 48/110/33 47/107/33 45/109/33 46/111/33
f 46/112/34 42/113/34 44/114/34 48/115/34
f 42/116/35 41/113/35 43/112/35 44/117/35
f 46/118/36 45/116/36 41/117/36 42/119/36
o Cube.006
v -0.257075 0.497759 0.471396
v -0.097075 0.497759 0.471396
v -0.257075 0.497759 0.501396
v -0.097075 0.497759 0.501396
v -0.257075 -0.502241 0.471396
v -0.097075 -0.502241 0.471396
v -0.257075 -0.502241 0.501396
v -0.097075 -0.502241 0.501396
vn -1.0000 -0.0000 -0.0000
vn -0.0000 -0.0000 1.0000
vn -0.0000 -1.0000 -0.0000
vn 1.0000 -0.0000 -0.0000
vn -0.0000 1.0000 -0.0000
vn -0.0000 -0.0000 -1.0000
vt 1.230697 -0.630550
vt 1.230697 -0.382789
vt 0.982936 -0.382789
vt 0.982936 -0.630550
vt 1.230697 -0.135028
vt 0.982936 -0.135028
vt 1.230697 -0.382789
vt 1.230697 0.112733
vt 0.982936 0.112733
vt 1.230697 0.112733
vt 1.230697 0.360494
vt 0.982936 0.360494
vt 0.982936 0.112733
vt 1.230697 0.608256
vt 0.982936 0.608256
vt 1.230697 0.856017
vt 0.982936 0.856017
s 0
usemtl Material
f 49/120/37 53/121/37 55/122/37 51/123/37
f 52/124/38 51/125/38 55/122/38 56/126/38
f 56/127/39 55/128/39 53/125/39 54/124/39
f 54/129/40 50/130/40 52/131/40 56/132/40
f 50/133/41 49/134/41 51/131/41 52/130/41
f 54/135/42 53/136/42 49/134/42 50/133/42
o Cube.007
v -0.136036 0.497759 0.341392
v 0.023964 0.497759 0.341392
v -0.136036 0.497759 0.371392
v 0.023964 0.497759 0.371392
v -0.136037 -0.502241 0.341392
v 0.023963 -0.502241 0.341392
v -0.136037 -0.502241 0.371392
v 0.023963 -0.502241 0.371392
vn -1.0000 -0.0000 -0.0000
vn -0.0000 -0.0000 1.0000
vn -0.0000 -1.0000 -0.0000
vn 1.0000 -0.0000 -0.0000
vn -0.0000 1.0000 -0.0000
vn -0.0000 -0.0000 -1.0000
vt -0.255870 -0.630550
vt -0.255870 -0.382789
vt -0.503632 -0.382789
vt -0.503632 -0.630550
vt -0.255870 -0.135028
vt -0.503632 -0.135028
vt -0.503632 -0.382789
vt -0.255870 -0.382789
vt -0.008109 -0.382789
vt -0.255870 -0.630550
vt -0.008109 -0.630550
vt -0.008109 -0.382789
vt -0.008109 -0.135028
vt -0.255870 -0.135028
vt -0.255870 -0.382789
vt -0.255870 0.112733
vt -0.503632 0.112733
vt -0.008109 0.112733
vt -0.255870 0.112733
vt -0.255870 -0.135028
vt -0.008109 -0.135028
s 0
usemtl Material
f 57/137/43 61/138/43 63/139/43 59/140/43
f 60/141/44 59/142/44 63/143/44 64/144/44
f 64/145/45 63/138/45 61/146/45 62/147/45
f 62/148/46 58/149/46 60/150/46 64/151/46
f 58/152/47 57/153/47 59/142/47 60/141/47
f 62/154/48 61/155/48 57/156/48 58/157/48
o Cube.008
v -0.006032 0.497759 0.469155
v 0.153968 0.497759 0.469155
v -0.006032 0.497759 0.499155
v 0.153968 0.497759 0.499155
v -0.006032 -0.502241 0.469155
v 0.153968 -0.502241 0.469155
v -0.006032 -0.502241 0.499155
v 0.153968 -0.502241 0.499155
vn -1.0000 -0.0000 -0.0000
vn -0.0000 -0.0000 1.0000
vn -0.0000 -1.0000 -0.0000
vn 1.0000 -0.0000 -0.0000
vn -0.0000 1.0000 -0.0000
vn -0.0000 -0.0000 -1.0000
vt 1.230697 0.856017
vt 1.230697 1.103778
vt 0.982936 1.103778
vt 0.982936 0.856017
vt -0.255870 1.351539
vt -0.503632 1.351539
vt -0.503632 1.103778
vt -0.255870 1.103778
vt -0.008109 1.351539
vt -0.255870 1.103778
vt -0.008109 1.103778
vt 0.239652 1.103778
vt 0.239652 1.351539
vt -0.008109 1.351539
vt -0.008109 1.103778
vt 0.487413 1.351539
vt 0.239652 1.351539
vt 0.239652 1.103778
vt 0.487413 1.103778
vt 0.735174 1.351539
vt 0.735174 1.103778
s 0
usemtl Material
f 65/158/49 69/159/49 71/160/49 67/161/49
f 68/162/50 67/163/50 71/164/50 72/165/50
f 72/166/51 71/162/51 69/167/51 70/168/51
f 70/169/52 66/170/52 68/171/52 72/172/52
f 66/173/53 65/174/53 67/175/53 68/176/53
f 70/177/54 69/173/54 65/176/54 66/178/54
o Cube.009
v 0.097075 0.497759 0.341392
v 0.257075 0.497759 0.341392
v 0.097075 0.497759 0.371392
v 0.257075 0.497759 0.371392
v 0.097075 -0.502241 0.341392
v 0.257075 -0.502241 0.341392
v 0.097075 -0.502241 0.371392
v 0.257075 -0.502241 0.371392
vn -1.0000 -0.0000 -0.0000
vn -0.0000 -0.0000 1.0000
vn -0.0000 -1.0000 -0.0000
vn 1.0000 -0.0000 -0.0000
vn -0.0000 1.0000 -0.0000
vn -0.0000 -0.0000 -1.0000
vt 0.982936 1.103778
vt 0.982936 1.351539
vt 0.735174 1.351539
vt 0.735174 1.103778
vt 1.230697 1.351539
vt 1.230697 1.103778
vt 1.478458 -0.382789
vt 1.230697 -0.382789
vt 1.230697 -0.630550
vt 1.478458 -0.630550
vt 1.478458 -0.382789
vt 1.478458 -0.135028
vt 1.230697 -0.135028
vt 1.478458 0.112733
vt 1.230697 0.112733
vt 1.230697 -0.135028
vt 1.478458 -0.135028
vt 1.478458 0.360494
vt 1.230697 0.360494
vt 1.230697 0.112733
vt 1.478458 0.112733
s 0
usemtl Material
f 73/179/55 77/180/55 79/181/55 75/182/55
f 76/183/56 75/180/56 79/179/56 80/184/56
f 80/185/57 79/186/57 77/187/57 78/188/57
f 78/189/58 74/190/58 76/191/58 80/186/58
f 74/192/59 73/193/59 75/194/59 76/195/59
f 78/196/60 77/197/60 73/198/60 74/199/60
o Cube.010
v 0.238287 0.497759 0.469155
v 0.398287 0.497759 0.469155
v 0.238287 0.497759 0.499155
v 0.398287 0.497759 0.499155
v 0.238287 -0.502241 0.469155
v 0.398287 -0.502241 0.469155
v 0.238287 -0.502241 0.499155
v 0.398287 -0.502241 0.499155
vn -1.0000 -0.0000 -0.0000
vn -0.0000 -0.0000 1.0000
vn -0.0000 -1.0000 -0.0000
vn 1.0000 -0.0000 -0.0000
vn -0.0000 1.0000 -0.0000
vn -0.0000 -0.0000 -1.0000
vt 1.478458 0.360494
vt 1.478458 0.608256
vt 1.230697 0.608256
vt 1.230697 0.360494
vt 1.478458 0.856017
vt 1.230697 0.856017
vt 1.478458 1.103778
vt 1.230697 1.103778
vt 1.478458 1.351539
vt 1.230697 1.351539
vt -0.255870 1.599300
vt -0.503632 1.599300
vt -0.503632 1.351539
vt -0.255870 1.351539
vt -0.008109 1.599300
vt -0.008109 1.351539
s 0
usemtl Material
f 81/200/61 85/201/61 87/202/61 83/203/61
f 84/204/62 83/205/62 87/202/62 88/201/62
f 88/206/63 87/207/63 85/205/63 86/204/63
f 86/206/64 82/208/64 84/209/64 88/207/64
f 82/210/65 81/211/65 83/212/65 84/213/65
f 86/214/66 85/210/66 81/213/66 82/215/66
o Cube.011
v 0.336911 0.497759 0.341392
v 0.496911 0.497759 0.341392
v 0.336911 0.497759 0.371392
v 0.496911 0.497759 0.371392
v 0.336911 -0.502241 0.341392
v 0.496911 -0.502241 0.341392
v 0.336911 -0.502241 0.371392
v 0.496911 -0.502241 0.371392
vn -1.0000 -0.0000 -0.0000
vn -0.0000 -0.0000 1.0000
vn -0.0000 -1.0000 -0.0000
vn 1.0000 -0.0000 -0.0000
vn -0.0000 1.0000 -0.0000
vn -0.0000 -0.0000 -1.0000
vt 0.239652 1.351539
vt 0.239652 1.599300
vt -0.008109 1.599300
vt -0.008109 1.351539
vt 0.487413 1.599300
vt 0.239652 1.599300
vt 0.487413 1.351539
vt 0.735174 1.599300
vt 0.487413 1.599300
vt 0.487413 1.351539
vt 0.735174 1.351539
vt 0.982936 1.351539
vt 0.982936 1.599300
vt 1.230697 1.599300
vt 0.982936 1.599300
vt 0.982936 1.351539
vt 1.230697 1.351539
vt 1.478458 1.599300
vt 1.478458 1.351539
s 0
usemtl Material
f 89/216/67 93/217/67 95/218/67 91/219/67
f 92/220/68 91/221/68 95/216/68 96/222/68
f 96/223/69 95/224/69 93/225/69 94/226/69
f 94/227/70 90/228/70 92/223/70 96/226/70
f 90/229/71 89/230/71 91/231/71 92/232/71
f 94/233/72 93/229/72 89/232/72 90/234/72
