# Blender 4.3.2
# www.blender.org
mtllib myfences_v_fence_gate_open.mtl
o Cube
v 0.362562 0.322535 -0.048464
v 0.362562 -0.496831 -0.048464
v 0.402562 0.322535 -0.048464
v 0.402562 -0.496831 -0.048464
v 0.362562 0.322535 0.051536
v 0.362562 -0.496831 0.051536
v 0.402562 0.322535 0.051536
v 0.402562 -0.496831 0.051536
vn -0.0000 1.0000 -0.0000
vn 1.0000 -0.0000 -0.0000
vn -0.0000 -0.0000 1.0000
vn -0.0000 -1.0000 -0.0000
vn -0.0000 -0.0000 -1.0000
vn -1.0000 -0.0000 -0.0000
vt 0.625000 0.500000
vt 0.875000 0.500000
vt 0.875000 0.750000
vt 0.625000 0.750000
vt 0.375000 0.750000
vt 0.625000 1.000000
vt 0.375000 1.000000
vt 0.375000 0.000000
vt 0.625000 0.000000
vt 0.625000 0.250000
vt 0.375000 0.250000
vt 0.125000 0.500000
vt 0.375000 0.500000
vt 0.125000 0.750000
s 0
usemtl Material
f 1/1/1 5/2/1 7/3/1 3/4/1
f 4/5/2 3/4/2 7/6/2 8/7/2
f 8/8/3 7/9/3 5/10/3 6/11/3
f 6/12/4 2/13/4 4/5/4 8/14/4
f 2/13/5 1/1/5 3/4/5 4/5/5
f 6/11/6 5/10/6 1/1/6 2/13/6
o Cube.001
v 0.362562 0.327967 0.066029
v 0.362562 -0.497465 0.063860
v 0.402562 0.327967 0.066029
v 0.402562 -0.497465 0.063860
v 0.362562 0.357104 0.161690
v 0.362562 -0.497465 0.163860
v 0.402562 0.357104 0.161691
v 0.402562 -0.497465 0.163860
vn -0.0000 0.9566 -0.2914
vn 1.0000 -0.0000 -0.0000
vn -0.0000 0.0025 1.0000
vn -0.0000 -1.0000 -0.0000
vn -0.0000 0.0026 -1.0000
vn -1.0000 -0.0000 -0.0000
vt 0.625000 0.500000
vt 0.875000 0.500000
vt 0.875000 0.750000
vt 0.625000 0.750000
vt 0.375000 0.750000
vt 0.625000 1.000000
vt 0.375000 1.000000
vt 0.375000 0.000000
vt 0.625000 0.000000
vt 0.625000 0.250000
vt 0.375000 0.250000
vt 0.125000 0.500000
vt 0.375000 0.500000
vt 0.125000 0.750000
s 0
usemtl Material
f 9/15/7 13/16/7 15/17/7 11/18/7
f 12/19/8 11/18/8 15/20/8 16/21/8
f 16/22/9 15/23/9 13/24/9 14/25/9
f 14/26/10 10/27/10 12/19/10 16/28/10
f 10/27/11 9/15/11 11/18/11 12/19/11
f 14/25/12 13/24/12 9/15/12 10/27/12
o Cube.002
v 0.362562 0.366464 0.182500
v 0.362562 -0.498099 0.180057
v 0.402562 0.366464 0.182500
v 0.402562 -0.498099 0.180057
v 0.362562 0.397339 0.277614
v 0.362562 -0.498099 0.280057
v 0.402562 0.397339 0.277614
v 0.402562 -0.498099 0.280057
vn -0.0000 0.9511 -0.3087
vn 1.0000 -0.0000 -0.0000
vn -0.0000 0.0027 1.0000
vn -0.0000 -1.0000 -0.0000
vn -0.0000 0.0028 -1.0000
vn -1.0000 -0.0000 -0.0000
vt 0.625000 0.500000
vt 0.875000 0.500000
vt 0.875000 0.750000
vt 0.625000 0.750000
vt 0.375000 0.750000
vt 0.625000 1.000000
vt 0.375000 1.000000
vt 0.375000 0.000000
vt 0.625000 0.000000
vt 0.625000 0.250000
vt 0.375000 0.250000
vt 0.125000 0.500000
vt 0.375000 0.500000
vt 0.125000 0.750000
s 0
usemtl Material
f 17/29/13 21/30/13 23/31/13 19/32/13
f 20/33/14 19/32/14 23/34/14 24/35/14
f 24/36/15 23/37/15 21/38/15 22/39/15
f 22/40/16 18/41/16 20/33/16 24/42/16
f 18/41/17 17/29/17 19/32/17 20/33/17
f 22/39/18 21/38/18 17/29/18 18/41/18
o Cube.003
v 0.362562 0.402078 0.294785
v 0.362562 -0.502606 0.292381
v 0.402562 0.402078 0.294785
v 0.402562 -0.502606 0.292381
v 0.362562 0.432711 0.389977
v 0.362562 -0.502606 0.392381
v 0.402562 0.432711 0.389977
v 0.402562 -0.502606 0.392381
vn -0.0000 0.9519 -0.3063
vn 1.0000 -0.0000 -0.0000
vn -0.0000 0.0026 1.0000
vn -0.0000 -1.0000 -0.0000
vn -0.0000 0.0027 -1.0000
vn -1.0000 -0.0000 -0.0000
vt 0.625000 0.500000
vt 0.875000 0.500000
vt 0.875000 0.750000
vt 0.625000 0.750000
vt 0.375000 0.750000
vt 0.625000 1.000000
vt 0.375000 1.000000
vt 0.375000 0.000000
vt 0.625000 0.000000
vt 0.625000 0.250000
vt 0.375000 0.250000
vt 0.125000 0.500000
vt 0.375000 0.500000
vt 0.125000 0.750000
s 0
usemtl Material
f 25/43/19 29/44/19 31/45/19 27/46/19
f 28/47/20 27/46/20 31/48/20 32/49/20
f 32/50/21 31/51/21 29/52/21 30/53/21
f 30/54/22 26/55/22 28/47/22 32/56/22
f 26/55/23 25/43/23 27/46/23 28/47/23
f 30/53/24 29/52/24 25/43/24 26/55/24
o Cube.004
v 0.362562 0.435423 0.403981
v 0.362562 -0.507113 0.400832
v 0.402562 0.435423 0.403981
v 0.402562 -0.507113 0.400832
v 0.362562 0.470352 0.497682
v 0.362562 -0.507113 0.500832
v 0.402562 0.470352 0.497682
v 0.402562 -0.507113 0.500832
vn -0.0000 0.9370 -0.3493
vn 1.0000 -0.0000 -0.0000
vn -0.0000 0.0032 1.0000
vn -0.0000 -1.0000 -0.0000
vn -0.0000 0.0033 -1.0000
vn -1.0000 -0.0000 -0.0000
vt 0.625000 0.500000
vt 0.875000 0.500000
vt 0.875000 0.750000
vt 0.625000 0.750000
vt 0.375000 0.750000
vt 0.625000 1.000000
vt 0.375000 1.000000
vt 0.375000 0.000000
vt 0.625000 0.000000
vt 0.625000 0.250000
vt 0.375000 0.250000
vt 0.125000 0.500000
vt 0.375000 0.500000
vt 0.125000 0.750000
s 0
usemtl Material
f 33/57/25 37/58/25 39/59/25 35/60/25
f 36/61/26 35/60/26 39/62/26 40/63/26
f 40/64/27 39/65/27 37/66/27 38/67/27
f 38/68/28 34/69/28 36/61/28 40/70/28
f 34/69/29 33/57/29 35/60/29 36/61/29
f 38/67/30 37/66/30 33/57/30 34/69/30
o Cube.005
v 0.402562 0.327967 -0.066831
v 0.402562 -0.497465 -0.064661
v 0.362562 0.327967 -0.066831
v 0.362562 -0.497465 -0.064661
v 0.402562 0.357104 -0.162492
v 0.402562 -0.497465 -0.164661
v 0.362562 0.357104 -0.162492
v 0.362562 -0.497465 -0.164661
vn -0.0000 0.9566 0.2914
vn -1.0000 -0.0000 -0.0000
vn -0.0000 0.0025 -1.0000
vn -0.0000 -1.0000 -0.0000
vn -0.0000 0.0026 1.0000
vn 1.0000 -0.0000 -0.0000
vt 0.625000 0.500000
vt 0.875000 0.500000
vt 0.875000 0.750000
vt 0.625000 0.750000
vt 0.375000 0.750000
vt 0.625000 1.000000
vt 0.375000 1.000000
vt 0.375000 0.000000
vt 0.625000 0.000000
vt 0.625000 0.250000
vt 0.375000 0.250000
vt 0.125000 0.500000
vt 0.375000 0.500000
vt 0.125000 0.750000
s 0
usemtl Material
f 41/71/31 45/72/31 47/73/31 43/74/31
f 44/75/32 43/74/32 47/76/32 48/77/32
f 48/78/33 47/79/33 45/80/33 46/81/33
f 46/82/34 42/83/34 44/75/34 48/84/34
f 42/83/35 41/71/35 43/74/35 44/75/35
f 46/81/36 45/80/36 41/71/36 42/83/36
o Cube.006
v 0.402562 0.366464 -0.183301
v 0.402562 -0.498099 -0.180858
v 0.362562 0.366464 -0.183301
v 0.362562 -0.498099 -0.180858
v 0.402562 0.397339 -0.278416
v 0.402562 -0.498099 -0.280858
v 0.362562 0.397339 -0.278416
v 0.362562 -0.498099 -0.280858
vn -0.0000 0.9511 0.3087
vn -1.0000 -0.0000 -0.0000
vn -0.0000 0.0027 -1.0000
vn -0.0000 -1.0000 -0.0000
vn -0.0000 0.0028 1.0000
vn 1.0000 -0.0000 -0.0000
vt 0.625000 0.500000
vt 0.875000 0.500000
vt 0.875000 0.750000
vt 0.625000 0.750000
vt 0.375000 0.750000
vt 0.625000 1.000000
vt 0.375000 1.000000
vt 0.375000 0.000000
vt 0.625000 0.000000
vt 0.625000 0.250000
vt 0.375000 0.250000
vt 0.125000 0.500000
vt 0.375000 0.500000
vt 0.125000 0.750000
s 0
usemtl Material
f 49/85/37 53/86/37 55/87/37 51/88/37
f 52/89/38 51/88/38 55/90/38 56/91/38
f 56/92/39 55/93/39 53/94/39 54/95/39
f 54/96/40 50/97/40 52/89/40 56/98/40
f 50/97/41 49/85/41 51/88/41 52/89/41
f 54/95/42 53/94/42 49/85/42 50/97/42
o Cube.007
v 0.402562 0.402078 -0.295586
v 0.402562 -0.502606 -0.293182
v 0.362562 0.402078 -0.295586
v 0.362562 -0.502606 -0.293182
v 0.402562 0.432711 -0.390778
v 0.402562 -0.502606 -0.393182
v 0.362562 0.432711 -0.390778
v 0.362562 -0.502606 -0.393182
vn -0.0000 0.9519 0.3063
vn -1.0000 -0.0000 -0.0000
vn -0.0000 0.0026 -1.0000
vn -0.0000 -1.0000 -0.0000
vn -0.0000 0.0027 1.0000
vn 1.0000 -0.0000 -0.0000
vt 0.625000 0.500000
vt 0.875000 0.500000
vt 0.875000 0.750000
vt 0.625000 0.750000
vt 0.375000 0.750000
vt 0.625000 1.000000
vt 0.375000 1.000000
vt 0.375000 0.000000
vt 0.625000 0.000000
vt 0.625000 0.250000
vt 0.375000 0.250000
vt 0.125000 0.500000
vt 0.375000 0.500000
vt 0.125000 0.750000
s 0
usemtl Material
f 57/99/43 61/100/43 63/101/43 59/102/43
f 60/103/44 59/102/44 63/104/44 64/105/44
f 64/106/45 63/107/45 61/108/45 62/109/45
f 62/110/46 58/111/46 60/103/46 64/112/46
f 58/111/47 57/99/47 59/102/47 60/103/47
f 62/109/48 61/108/48 57/99/48 58/111/48
o Cube.008
v 0.402562 0.435423 -0.404782
v 0.402562 -0.507113 -0.401633
v 0.362562 0.435423 -0.404782
v 0.362562 -0.507113 -0.401633
v 0.402562 0.470352 -0.498483
v 0.402562 -0.507113 -0.501633
v 0.362562 0.470352 -0.498483
v 0.362562 -0.507113 -0.501633
vn -0.0000 0.9370 0.3493
vn -1.0000 -0.0000 -0.0000
vn -0.0000 0.0032 -1.0000
vn -0.0000 -1.0000 -0.0000
vn -0.0000 0.0033 1.0000
vn 1.0000 -0.0000 -0.0000
vt 0.625000 0.500000
vt 0.875000 0.500000
vt 0.875000 0.750000
vt 0.625000 0.750000
vt 0.375000 0.750000
vt 0.625000 1.000000
vt 0.375000 1.000000
vt 0.375000 0.000000
vt 0.625000 0.000000
vt 0.625000 0.250000
vt 0.375000 0.250000
vt 0.125000 0.500000
vt 0.375000 0.500000
vt 0.125000 0.750000
s 0
usemtl Material
f 65/113/49 69/114/49 71/115/49 67/116/49
f 68/117/50 67/116/50 71/118/50 72/119/50
f 72/120/51 71/121/51 69/122/51 70/123/51
f 70/124/52 66/125/52 68/117/52 72/126/52
f 66/125/53 65/113/53 67/116/53 68/117/53
f 70/123/54 69/122/54 65/113/54 66/125/54
o Cube.009
v 0.498407 0.255000 0.461536
v 0.498407 0.295000 0.461536
v 0.398407 0.255000 0.461536
v 0.398407 0.295000 0.461536
v 0.498408 0.255000 -0.458464
v 0.498408 0.295000 -0.458464
v 0.398408 0.255000 -0.458464
v 0.398408 0.295000 -0.458464
vn -0.0000 -0.0000 1.0000
vn -1.0000 -0.0000 -0.0000
vn -0.0000 -0.0000 -1.0000
vn 1.0000 -0.0000 -0.0000
vn -0.0000 -1.0000 -0.0000
vn -0.0000 1.0000 -0.0000
vt 0.375000 0.000000
vt 0.625000 0.000000
vt 0.625000 0.250000
vt 0.375000 0.250000
vt 0.625000 0.500000
vt 0.375000 0.500000
vt 0.625000 0.750000
vt 0.375000 0.750000
vt 0.625000 1.000000
vt 0.375000 1.000000
vt 0.125000 0.500000
vt 0.125000 0.750000
vt 0.875000 0.500000
vt 0.875000 0.750000
s 0
f 73/127/55 74/128/55 76/129/55 75/130/55
f 75/130/56 76/129/56 80/131/56 79/132/56
f 79/132/57 80/131/57 78/133/57 77/134/57
f 77/134/58 78/133/58 74/135/58 73/136/58
f 75/137/59 79/132/59 77/134/59 73/138/59
f 80/131/60 76/139/60 74/140/60 78/133/60
o Cube.010
v 0.498407 -0.399577 0.461536
v 0.498407 -0.359577 0.461536
v 0.398407 -0.399577 0.461536
v 0.398407 -0.359577 0.461536
v 0.498408 -0.399577 -0.458464
v 0.498408 -0.359577 -0.458464
v 0.398408 -0.399577 -0.458464
v 0.398408 -0.359577 -0.458464
vn -0.0000 -0.0000 1.0000
vn -1.0000 -0.0000 -0.0000
vn -0.0000 -0.0000 -1.0000
vn 1.0000 -0.0000 -0.0000
vn -0.0000 -1.0000 -0.0000
vn -0.0000 1.0000 -0.0000
vt 0.375000 0.000000
vt 0.625000 0.000000
vt 0.625000 0.250000
vt 0.375000 0.250000
vt 0.625000 0.500000
vt 0.375000 0.500000
vt 0.625000 0.750000
vt 0.375000 0.750000
vt 0.625000 1.000000
vt 0.375000 1.000000
vt 0.125000 0.500000
vt 0.125000 0.750000
vt 0.875000 0.500000
vt 0.875000 0.750000
s 0
f 81/141/61 82/142/61 84/143/61 83/144/61
f 83/144/62 84/143/62 88/145/62 87/146/62
f 87/146/63 88/145/63 86/147/63 85/148/63
f 85/148/64 86/147/64 82/149/64 81/150/64
f 83/151/65 87/146/65 85/148/65 81/152/65
f 88/145/66 84/153/66 82/154/66 86/147/66
o Cube.011
v 0.498407 0.295423 0.497945
v 0.498407 0.295423 0.457945
v 0.398407 0.295423 0.497945
v 0.398407 0.295423 0.457945
v 0.498407 -0.504577 0.497945
v 0.498407 -0.504577 0.457945
v 0.398407 -0.504577 0.497945
v 0.398407 -0.504577 0.457945
vn -0.0000 1.0000 -0.0000
vn -1.0000 -0.0000 -0.0000
vn -0.0000 -1.0000 -0.0000
vn 1.0000 -0.0000 -0.0000
vn -0.0000 -0.0000 1.0000
vn -0.0000 -0.0000 -1.0000
vt 0.375000 0.000000
vt 0.625000 0.000000
vt 0.625000 0.250000
vt 0.375000 0.250000
vt 0.625000 0.500000
vt 0.375000 0.500000
vt 0.625000 0.750000
vt 0.375000 0.750000
vt 0.625000 1.000000
vt 0.375000 1.000000
vt 0.125000 0.500000
vt 0.125000 0.750000
vt 0.875000 0.500000
vt 0.875000 0.750000
s 0
f 89/155/67 90/156/67 92/157/67 91/158/67
f 91/158/68 92/157/68 96/159/68 95/160/68
f 95/160/69 96/159/69 94/161/69 93/162/69
f 93/162/70 94/161/70 90/163/70 89/164/70
f 91/165/71 95/160/71 93/162/71 89/166/71
f 96/159/72 92/167/72 90/168/72 94/161/72
o Cube.012
v 0.498407 0.295423 -0.458746
v 0.498407 0.295423 -0.498746
v 0.398407 0.295423 -0.458746
v 0.398407 0.295423 -0.498746
v 0.498408 -0.504577 -0.458746
v 0.498408 -0.504577 -0.498746
v 0.398408 -0.504577 -0.458746
v 0.398408 -0.504577 -0.498746
vn -0.0000 1.0000 -0.0000
vn -1.0000 -0.0000 -0.0000
vn -0.0000 -1.0000 -0.0000
vn 1.0000 -0.0000 -0.0000
vn -0.0000 -0.0000 1.0000
vn -0.0000 -0.0000 -1.0000
vt 0.375000 0.000000
vt 0.625000 0.000000
vt 0.625000 0.250000
vt 0.375000 0.250000
vt 0.625000 0.500000
vt 0.375000 0.500000
vt 0.625000 0.750000
vt 0.375000 0.750000
vt 0.625000 1.000000
vt 0.375000 1.000000
vt 0.125000 0.500000
vt 0.125000 0.750000
vt 0.875000 0.500000
vt 0.875000 0.750000
s 0
f 97/169/73 98/170/73 100/171/73 99/172/73
f 99/172/74 100/171/74 104/173/74 103/174/74
f 103/174/75 104/173/75 102/175/75 101/176/75
f 101/176/76 102/175/76 98/177/76 97/178/76
f 99/179/77 103/174/77 101/176/77 97/180/77
f 104/173/78 100/181/78 98/182/78 102/175/78
