# Blender 4.3.2
# www.blender.org
mtllib myfences_picket_gate_open.mtl
o Cube
v 0.500519 0.206558 0.450950
v 0.500519 0.156558 0.450950
v 0.400519 0.206558 0.450950
v 0.400519 0.156558 0.450950
v 0.500519 0.206558 -0.449050
v 0.500519 0.156558 -0.449050
v 0.400519 0.206558 -0.449050
v 0.400519 0.156558 -0.449050
vn -0.0000 1.0000 -0.0000
vn -1.0000 -0.0000 -0.0000
vn -0.0000 -0.0000 -1.0000
vn -0.0000 -1.0000 -0.0000
vn -0.0000 -0.0000 1.0000
vn 1.0000 -0.0000 -0.0000
vt 1.096289 1.141656
vt 1.096289 0.884994
vt 1.352951 0.884994
vt 1.352951 1.141656
vt 0.839626 1.141656
vt 1.096289 1.141656
vt 1.096289 1.398318
vt 0.839626 1.398318
vt 0.839626 0.884994
vt 1.096289 0.884994
vt 1.096289 0.884994
vt 1.096289 0.628331
vt 1.352951 0.628331
vt 0.582964 1.141656
vt 0.839626 1.141656
vt 0.582964 1.398318
vt 0.582964 0.884994
s 0
usemtl Material
f 1/1/1 5/2/1 7/3/1 3/4/1
f 4/5/2 3/6/2 7/7/2 8/8/2
f 8/9/3 7/10/3 5/1/3 6/5/3
f 6/11/4 2/12/4 4/13/4 8/3/4
f 2/14/5 1/15/5 3/8/5 4/16/5
f 6/17/6 5/9/6 1/5/6 2/14/6
o Cube.001
v 0.500519 0.255681 0.448897
v 0.500519 0.255681 0.498897
v 0.400519 0.255681 0.448897
v 0.400519 0.255681 0.498897
v 0.500519 -0.502241 0.448897
v 0.500519 -0.502241 0.498897
v 0.400519 -0.502241 0.448897
v 0.400519 -0.502241 0.498897
vn -0.0000 -0.0000 -1.0000
vn -1.0000 -0.0000 -0.0000
vn -0.0000 -1.0000 -0.0000
vn -0.0000 -0.0000 1.0000
vn -0.0000 1.0000 -0.0000
vn 1.0000 -0.0000 -0.0000
vt 0.512698 -0.398318
vt 0.707228 -0.398318
vt 0.707228 -0.141656
vt 0.512698 -0.141656
vt -0.187023 1.141656
vt -0.187023 1.398318
vt -0.381553 1.398318
vt -0.381553 1.141656
vt 0.839626 0.628331
vt 1.096289 0.628331
vt 1.096289 0.884994
vt 0.839626 0.884994
vt 0.318168 -0.398318
vt 0.512698 -0.398318
vt 0.512698 -0.141656
vt 0.318168 -0.141656
vt 0.582964 0.628331
vt 0.839626 0.628332
vt 0.839626 0.884994
vt 0.582964 0.884994
vt 1.352951 -0.398318
vt 1.352951 -0.141655
vt 1.158421 -0.141656
vt 1.158421 -0.398318
s 0
usemtl Material
f 9/18/7 13/19/7 15/20/7 11/21/7
f 12/22/8 11/23/8 15/24/8 16/25/8
f 16/26/9 15/27/9 13/28/9 14/29/9
f 14/30/10 10/31/10 12/32/10 16/33/10
f 10/34/11 9/35/11 11/36/11 12/37/11
f 14/38/12 13/39/12 9/40/12 10/41/12
o Cube.002
v 0.500520 0.255681 -0.496998
v 0.500520 0.255681 -0.446998
v 0.400519 0.255681 -0.496998
v 0.400519 0.255681 -0.446998
v 0.500519 -0.502241 -0.496998
v 0.500519 -0.502241 -0.446998
v 0.400519 -0.502241 -0.496998
v 0.400519 -0.502241 -0.446998
vn -0.0000 -0.0000 -1.0000
vn -1.0000 -0.0000 -0.0000
vn -0.0000 -1.0000 -0.0000
vn -0.0000 -0.0000 1.0000
vn -0.0000 1.0000 -0.0000
vn 1.0000 -0.0000 -0.0000
vt 0.123638 -0.398318
vt 0.318168 -0.398318
vt 0.318168 -0.141656
vt 0.123638 -0.141656
vt 1.096289 -0.398318
vt 1.096289 -0.141656
vt 0.901759 -0.141656
vt 0.901759 -0.398318
vt 1.096289 0.371669
vt 1.352951 0.371669
vt 1.352951 0.628331
vt 1.096289 0.628331
vt -0.124891 -0.398318
vt 0.069640 -0.398318
vt 0.069640 -0.141656
vt -0.124891 -0.141656
vt 0.326302 1.141656
vt 0.582964 1.141656
vt 0.582964 1.398318
vt 0.326302 1.398318
vt 0.707228 -0.141656
vt 0.707228 -0.398318
s 0
usemtl Material
f 17/42/13 21/43/13 23/44/13 19/45/13
f 20/46/14 19/47/14 23/48/14 24/49/14
f 24/50/15 23/51/15 21/52/15 22/53/15
f 22/54/16 18/55/16 20/56/16 24/57/16
f 18/58/17 17/59/17 19/60/17 20/61/17
f 22/49/18 21/48/18 17/62/18 18/63/18
o Cube.003
v 0.500519 -0.349323 0.450950
v 0.500519 -0.399323 0.450950
v 0.400519 -0.349323 0.450950
v 0.400519 -0.399323 0.450950
v 0.500519 -0.349323 -0.449050
v 0.500519 -0.399323 -0.449050
v 0.400519 -0.349323 -0.449050
v 0.400519 -0.399323 -0.449050
vn -0.0000 1.0000 -0.0000
vn -1.0000 -0.0000 -0.0000
vn -0.0000 -0.0000 -1.0000
vn -0.0000 -1.0000 -0.0000
vn -0.0000 -0.0000 1.0000
vn 1.0000 -0.0000 -0.0000
vt 0.839626 0.628331
vt 0.839626 0.371669
vt 1.096289 0.371669
vt 1.096289 0.628331
vt 0.326302 0.884994
vt 0.582964 0.884994
vt 0.582964 1.141656
vt 0.326302 1.141656
vt 0.582964 0.371669
vt 0.839626 0.371669
vt 0.839626 0.628331
vt 0.582964 0.628331
vt 0.326302 0.628331
vt 0.582964 0.628331
vt 0.582964 0.884994
vt 0.326302 0.371669
vt 0.582964 0.371669
vt 0.582964 0.628331
vt 0.326302 0.628331
vt 1.096289 0.115007
vt 1.352951 0.115007
vt 1.352951 0.371669
s 0
usemtl Material
f 25/64/19 29/65/19 31/66/19 27/67/19
f 28/68/20 27/69/20 31/70/20 32/71/20
f 32/72/21 31/73/21 29/74/21 30/75/21
f 30/68/22 26/76/22 28/77/22 32/78/22
f 26/79/23 25/80/23 27/81/23 28/82/23
f 30/83/24 29/84/24 25/85/24 26/66/24
o Cube.010
v 0.400517 0.352064 0.288549
v 0.400517 0.354305 0.441825
v 0.370517 0.352064 0.288549
v 0.370517 0.354305 0.441825
v 0.400517 -0.502241 0.284066
v 0.400517 -0.502241 0.444066
v 0.370517 -0.502241 0.284066
v 0.370517 -0.502241 0.444066
v 0.400517 -0.002241 0.444066
v 0.400517 0.497759 0.364066
v 0.370517 -0.502241 0.364066
v 0.370517 0.497759 0.364066
v 0.400517 -0.502241 0.364066
v 0.370517 -0.002241 0.284066
v 0.370517 -0.002241 0.444066
v 0.400517 -0.002241 0.284066
v 0.400517 -0.002241 0.364066
v 0.370517 -0.002241 0.364066
vn -0.0000 -0.0000 -1.0000
vn -1.0000 -0.0000 -0.0000
vn -0.0000 -1.0000 -0.0000
vn -0.0000 0.0063 1.0000
vn -0.0000 0.4602 -0.8878
vn 1.0000 -0.0000 -0.0000
vn -0.0000 0.4765 0.8792
vn -0.0000 -0.0000 1.0000
vn -0.0000 0.0127 -0.9999
vt -0.294246 0.628331
vt -0.166014 0.628331
vt -0.166014 0.884994
vt -0.294246 0.884994
vt 0.197971 0.500000
vt 0.326302 0.500000
vt 0.326302 0.628331
vt 0.197971 0.628331
vt 0.197971 1.141656
vt 0.326302 1.141656
vt 0.326302 1.398318
vt 0.197971 1.398318
vt 0.549198 -0.141656
vt 0.640763 -0.141656
vt 0.640763 0.115007
vt 0.549198 0.115007
vt -0.035958 0.371669
vt 0.069639 0.371669
vt 0.069639 0.628331
vt -0.035958 0.628331
vt 0.454633 0.243338
vt 0.582964 0.243338
vt 0.575773 0.334275
vt 0.454633 0.371669
vt 0.326302 0.243338
vt 0.329897 0.334850
vt 0.326302 0.115007
vt 0.454633 0.115007
vt 0.582964 0.115007
vt -0.166014 0.371669
vt -0.166014 0.628331
vt 0.420892 -0.141656
vt 0.420892 0.115007
vt 0.069640 1.141656
vt 0.069640 1.398318
vt 0.069640 0.500000
vt 0.069640 0.628331
vt 0.073235 0.408488
vt 0.197971 0.371669
vt 0.319111 0.409064
vt -0.385395 0.628332
vt -0.385395 0.884994
s 0
usemtl Material
f 48/86/25 37/87/25 39/88/25 46/89/25
f 50/90/26 46/91/26 39/92/26 43/93/26
f 43/94/27 39/95/27 37/96/27 45/97/27
f 41/98/28 34/99/28 36/100/28 47/101/28
f 42/102/29 33/103/29 35/104/29 44/105/29
f 49/106/30 48/107/30 33/108/30 42/109/30
f 41/110/30 49/106/30 42/109/30 34/111/30
f 38/112/30 45/113/30 49/106/30 41/110/30
f 45/113/30 37/114/30 48/107/30 49/106/30
f 34/115/31 42/102/31 44/105/31 36/116/31
f 38/117/32 41/98/32 47/101/32 40/118/32
f 40/119/27 43/94/27 45/97/27 38/120/27
f 47/121/26 50/90/26 43/93/26 40/122/26
f 36/123/26 44/124/26 50/90/26 47/121/26
f 44/124/26 35/125/26 46/91/26 50/90/26
f 33/126/33 48/86/33 46/89/33 35/127/33
o Cube.004
v 0.400517 0.352064 0.046472
v 0.400517 0.354305 0.199747
v 0.370517 0.352064 0.046472
v 0.370517 0.354305 0.199747
v 0.400517 -0.502241 0.041989
v 0.400517 -0.502241 0.201989
v 0.370517 -0.502241 0.041989
v 0.370517 -0.502241 0.201989
v 0.400517 -0.002241 0.201989
v 0.400517 0.497759 0.121989
v 0.370517 -0.502241 0.121989
v 0.370517 0.497759 0.121989
v 0.400517 -0.502241 0.121989
v 0.370517 -0.002241 0.041989
v 0.370517 -0.002241 0.201989
v 0.400517 -0.002241 0.041989
v 0.400517 -0.002241 0.121989
v 0.370517 -0.002241 0.121989
vn -0.0000 -0.0000 -1.0000
vn -1.0000 -0.0000 -0.0000
vn -0.0000 -1.0000 -0.0000
vn -0.0000 0.0063 1.0000
vn -0.0000 0.4602 -0.8878
vn 1.0000 -0.0000 -0.0000
vn -0.0000 0.4765 0.8792
vn -0.0000 -0.0000 1.0000
vn -0.0000 0.0127 -0.9999
vt -0.278463 -0.141656
vt -0.150232 -0.141656
vt -0.150232 0.115006
vt -0.278463 0.115006
vt 0.711295 0.243338
vt 0.839626 0.243338
vt 0.839626 0.371669
vt 0.711295 0.371669
vt 1.224620 1.141656
vt 1.352951 1.141656
vt 1.352951 1.398318
vt 1.224620 1.398318
vt 0.769070 -0.141656
vt 0.860635 -0.141656
vt 0.860635 0.115007
vt 0.769070 0.115007
vt -0.035958 0.628331
vt 0.069640 0.628331
vt 0.069639 0.884994
vt -0.035958 0.884994
vt 0.197971 0.756663
vt 0.326302 0.756663
vt 0.319111 0.847599
vt 0.197971 0.884994
vt 0.069640 0.756663
vt 0.073235 0.848175
vt 0.069640 0.628331
vt 0.197971 0.628331
vt 0.326302 0.628331
vt -0.166014 0.628331
vt -0.166014 0.884994
vt 0.640763 -0.141656
vt 0.640763 0.115007
vt 1.096289 1.141656
vt 1.096289 1.398318
vt 0.582964 0.243338
vt 0.582964 0.371669
vt 0.586560 0.151826
vt 0.711295 0.115007
vt 0.832435 0.152401
vt -0.369613 -0.141656
vt -0.369613 0.115006
s 0
usemtl Material
f 66/128/34 55/129/34 57/130/34 64/131/34
f 68/132/35 64/133/35 57/134/35 61/135/35
f 61/136/36 57/137/36 55/138/36 63/139/36
f 59/140/37 52/141/37 54/142/37 65/143/37
f 60/144/38 51/145/38 53/146/38 62/147/38
f 67/148/39 66/149/39 51/150/39 60/151/39
f 59/152/39 67/148/39 60/151/39 52/153/39
f 56/154/39 63/155/39 67/148/39 59/152/39
f 63/155/39 55/156/39 66/149/39 67/148/39
f 52/157/40 60/144/40 62/147/40 54/158/40
f 56/159/41 59/140/41 65/143/41 58/160/41
f 58/161/36 61/136/36 63/139/36 56/162/36
f 65/163/35 68/132/35 61/135/35 58/164/35
f 54/165/35 62/166/35 68/132/35 65/163/35
f 62/166/35 53/167/35 64/133/35 68/132/35
f 51/168/42 66/128/42 64/131/42 53/169/42
o Cube.005
v 0.400517 0.352064 -0.197847
v 0.400517 0.354305 -0.044572
v 0.370517 0.352064 -0.197847
v 0.370517 0.354305 -0.044572
v 0.400517 -0.502241 -0.202330
v 0.400517 -0.502241 -0.042330
v 0.370517 -0.502241 -0.202330
v 0.370517 -0.502241 -0.042330
v 0.400517 -0.002241 -0.042330
v 0.400517 0.497759 -0.122330
v 0.370517 -0.502241 -0.122330
v 0.370517 0.497759 -0.122330
v 0.400517 -0.502241 -0.122330
v 0.370517 -0.002241 -0.202330
v 0.370517 -0.002241 -0.042330
v 0.400517 -0.002241 -0.202330
v 0.400517 -0.002241 -0.122330
v 0.370517 -0.002241 -0.122330
vn -0.0000 -0.0000 -1.0000
vn -1.0000 -0.0000 -0.0000
vn -0.0000 -1.0000 -0.0000
vn -0.0000 0.0063 1.0000
vn -0.0000 0.4602 -0.8878
vn 1.0000 -0.0000 -0.0000
vn -0.0000 0.4765 0.8792
vn -0.0000 -0.0000 1.0000
vn -0.0000 0.0127 -0.9999
vt -0.294246 0.371669
vt -0.166014 0.371669
vt -0.166014 0.628331
vt -0.294246 0.628331
vt 0.197971 0.243338
vt 0.326302 0.243338
vt 0.326302 0.371669
vt 0.197971 0.371669
vt 0.197971 0.884994
vt 0.326302 0.884994
vt 0.326302 1.141656
vt 0.197971 1.141656
vt 0.329327 -0.141656
vt 0.420892 -0.141655
vt 0.420892 0.115007
vt 0.329327 0.115007
vt -0.035958 0.115006
vt 0.069639 0.115006
vt 0.069639 0.371669
vt -0.035958 0.371669
vt -0.058692 1.269987
vt 0.069640 1.269987
vt 0.062448 1.360924
vt -0.058692 1.398318
vt -0.187023 1.269987
vt -0.183427 1.361499
vt -0.187023 1.141656
vt -0.058692 1.141656
vt 0.069640 1.141656
vt -0.166014 0.115006
vt -0.166014 0.371669
vt 0.201020 -0.141656
vt 0.201020 0.115007
vt 0.069640 0.884994
vt 0.069640 1.141656
vt 0.069640 0.243338
vt 0.069640 0.371669
vt 0.073235 0.151826
vt 0.197971 0.115007
vt 0.319111 0.152401
vt -0.385395 0.371669
vt -0.385395 0.628331
s 0
usemtl Material
f 84/170/43 73/171/43 75/172/43 82/173/43
f 86/174/44 82/175/44 75/176/44 79/177/44
f 79/178/45 75/179/45 73/180/45 81/181/45
f 77/182/46 70/183/46 72/184/46 83/185/46
f 78/186/47 69/187/47 71/188/47 80/189/47
f 85/190/48 84/191/48 69/192/48 78/193/48
f 77/194/48 85/190/48 78/193/48 70/195/48
f 74/196/48 81/197/48 85/190/48 77/194/48
f 81/197/48 73/198/48 84/191/48 85/190/48
f 70/199/49 78/186/49 80/189/49 72/200/49
f 74/201/50 77/182/50 83/185/50 76/202/50
f 76/203/45 79/178/45 81/181/45 74/204/45
f 83/205/44 86/174/44 79/177/44 76/206/44
f 72/207/44 80/208/44 86/174/44 83/205/44
f 80/208/44 71/209/44 82/175/44 86/174/44
f 69/210/51 84/170/51 82/173/51 71/211/51
o Cube.006
v 0.400517 0.352064 -0.442166
v 0.400517 0.354305 -0.288891
v 0.370517 0.352064 -0.442166
v 0.370517 0.354305 -0.288891
v 0.400517 -0.502241 -0.446649
v 0.400517 -0.502241 -0.286649
v 0.370517 -0.502241 -0.446649
v 0.370517 -0.502241 -0.286649
v 0.400517 -0.002241 -0.286649
v 0.400517 0.497759 -0.366649
v 0.370517 -0.502241 -0.366649
v 0.370517 0.497759 -0.366649
v 0.400517 -0.502241 -0.366649
v 0.370517 -0.002241 -0.446649
v 0.370517 -0.002241 -0.286649
v 0.400517 -0.002241 -0.446649
v 0.400517 -0.002241 -0.366649
v 0.370517 -0.002241 -0.366649
vn -0.0000 -0.0000 -1.0000
vn -1.0000 -0.0000 -0.0000
vn -0.0000 -1.0000 -0.0000
vn -0.0000 0.0063 1.0000
vn -0.0000 0.4602 -0.8878
vn 1.0000 -0.0000 -0.0000
vn -0.0000 0.4765 0.8792
vn -0.0000 -0.0000 1.0000
vn -0.0000 0.0127 -0.9999
vt -0.294246 0.115006
vt -0.166014 0.115006
vt -0.166014 0.371669
vt -0.294246 0.371669
vt 1.224620 -0.013324
vt 1.352951 -0.013324
vt 1.352951 0.115007
vt 1.224620 0.115007
vt 0.967957 0.115007
vt 1.096289 0.115007
vt 1.096289 0.371669
vt 0.967957 0.371669
vt -0.021926 -0.141656
vt 0.069640 -0.141656
vt 0.069640 0.115006
vt -0.021926 0.115006
vt 0.990691 -0.141656
vt 1.096289 -0.141656
vt 1.096289 0.115007
vt 0.990691 0.115007
vt -0.058692 1.013325
vt 0.069640 1.013325
vt 0.062448 1.104262
vt -0.058692 1.141656
vt -0.187023 1.013325
vt -0.183427 1.104837
vt -0.187023 0.884994
vt -0.058692 0.884994
vt 0.069640 0.884994
vt 0.860635 -0.141656
vt 0.860635 0.115007
vt -0.150232 -0.141656
vt -0.150232 0.115006
vt 0.839626 0.115007
vt 0.839626 0.371669
vt 1.096289 -0.013324
vt 1.096289 0.115007
vt 1.099884 -0.104836
vt 1.224620 -0.141655
vt 1.345760 -0.104261
vt -0.385395 0.115006
vt -0.385395 0.371669
s 0
usemtl Material
f 102/212/52 91/213/52 93/214/52 100/215/52
f 104/216/53 100/217/53 93/218/53 97/219/53
f 97/220/54 93/221/54 91/222/54 99/223/54
f 95/224/55 88/225/55 90/226/55 101/227/55
f 96/228/56 87/229/56 89/230/56 98/231/56
f 103/232/57 102/233/57 87/234/57 96/235/57
f 95/236/57 103/232/57 96/235/57 88/237/57
f 92/238/57 99/239/57 103/232/57 95/236/57
f 99/239/57 91/240/57 102/233/57 103/232/57
f 88/241/58 96/228/58 98/231/58 90/242/58
f 92/243/59 95/224/59 101/227/59 94/244/59
f 94/245/54 97/220/54 99/223/54 92/246/54
f 101/247/53 104/216/53 97/219/53 94/248/53
f 90/249/53 98/250/53 104/216/53 101/247/53
f 98/250/53 89/251/53 100/217/53 104/216/53
f 87/252/60 102/212/60 100/215/60 89/253/60
