# Blender 4.3.2
# www.blender.org
mtllib myfences_garden.mtl
o Cube
v 0.450000 0.399323 0.369153
v 0.450000 0.349323 0.369153
v 0.450000 0.399323 0.469153
v 0.450000 0.349323 0.469153
v -0.450000 0.399323 0.369153
v -0.450000 0.349323 0.369153
v -0.450000 0.399323 0.469153
v -0.450000 0.349323 0.469153
vn -0.0000 1.0000 -0.0000
vn -0.0000 -0.0000 1.0000
vn -1.0000 -0.0000 -0.0000
vn -0.0000 -1.0000 -0.0000
vn 1.0000 -0.0000 -0.0000
vn -0.0000 -0.0000 -1.0000
vt 0.251780 -0.492878
vt 0.251780 -0.244659
vt 0.003561 -0.244659
vt 0.003561 -0.492878
vt 0.251780 0.003561
vt 0.003561 0.003561
vt 0.251780 -0.244659
vt 0.251780 0.251780
vt 0.003561 0.251780
vt 0.251780 0.003561
vt -0.244659 0.251780
vt -0.244659 0.500000
vt -0.492878 0.500000
vt -0.492878 0.251780
vt 0.003561 0.500000
vt -0.244659 0.500000
vt -0.244659 0.251780
vt 0.003561 0.251780
vt 0.251780 0.500000
vt 0.003561 0.251780
vt 0.251780 0.251780
s 0
usemtl Material
f 1/1/1 5/2/1 7/3/1 3/4/1
f 4/5/2 3/6/2 7/3/2 8/7/2
f 8/8/3 7/9/3 5/6/3 6/10/3
f 6/11/4 2/12/4 4/13/4 8/14/4
f 2/15/5 1/16/5 3/17/5 4/18/5
f 6/19/6 5/15/6 1/20/6 2/21/6
o Cube.001
v 0.447948 0.497759 0.369153
v 0.497948 0.497759 0.369153
v 0.447948 0.497759 0.469153
v 0.497948 0.497759 0.469153
v 0.447947 -0.502241 0.369153
v 0.497947 -0.502241 0.369153
v 0.447947 -0.502241 0.469153
v 0.497947 -0.502241 0.469153
vn -1.0000 -0.0000 -0.0000
vn -0.0000 -0.0000 1.0000
vn -0.0000 -1.0000 -0.0000
vn 1.0000 -0.0000 -0.0000
vn -0.0000 1.0000 -0.0000
vn -0.0000 -0.0000 -1.0000
vt 0.500000 -0.492878
vt 0.500000 -0.244659
vt 0.251780 -0.244659
vt 0.251780 -0.492878
vt 0.500000 0.003561
vt 0.251780 0.003561
vt 0.251780 -0.244659
vt 0.500000 -0.244659
vt 0.500000 0.251780
vt 0.251780 0.251780
vt 0.251780 0.003561
vt 0.500000 0.003561
vt 0.500000 0.251780
vt 0.500000 0.500000
vt 0.251780 0.500000
vt 0.251780 0.251780
vt -0.244659 0.748220
vt -0.492878 0.748220
vt -0.492878 0.500000
vt -0.244659 0.500000
vt 0.003561 0.748220
vt -0.244659 0.748220
vt -0.244659 0.500000
vt 0.003561 0.500000
s 0
usemtl Material
f 9/22/7 13/23/7 15/24/7 11/25/7
f 12/26/8 11/27/8 15/28/8 16/29/8
f 16/30/9 15/31/9 13/32/9 14/33/9
f 14/34/10 10/35/10 12/36/10 16/37/10
f 10/38/11 9/39/11 11/40/11 12/41/11
f 14/42/12 13/43/12 9/44/12 10/45/12
o Cube.002
v -0.497947 0.497759 0.369153
v -0.447947 0.497759 0.369153
v -0.497947 0.497759 0.469153
v -0.447947 0.497759 0.469153
v -0.497948 -0.502241 0.369153
v -0.447948 -0.502241 0.369153
v -0.497948 -0.502241 0.469153
v -0.447948 -0.502241 0.469153
vn -1.0000 -0.0000 -0.0000
vn -0.0000 -0.0000 1.0000
vn -0.0000 -1.0000 -0.0000
vn 1.0000 -0.0000 -0.0000
vn -0.0000 1.0000 -0.0000
vn -0.0000 -0.0000 -1.0000
vt 0.251780 0.500000
vt 0.251780 0.748220
vt 0.003561 0.748220
vt 0.003561 0.500000
vt 0.500000 0.748219
vt 0.251780 0.748219
vt 0.251780 0.500000
vt 0.500000 0.500000
vt 0.748220 -0.244659
vt 0.500000 -0.244659
vt 0.500000 -0.492878
vt 0.748220 -0.492878
vt 0.748220 -0.244659
vt 0.748219 0.003561
vt 0.500000 0.003561
vt 0.500000 -0.244659
vt 0.748219 0.251780
vt 0.500000 0.251780
vt 0.748219 0.003561
vt 0.748220 0.500000
vt 0.500000 0.500000
vt 0.500000 0.251780
vt 0.748220 0.251780
s 0
usemtl Material
f 17/46/13 21/47/13 23/48/13 19/49/13
f 20/50/14 19/51/14 23/52/14 24/53/14
f 24/54/15 23/55/15 21/56/15 22/57/15
f 22/58/16 18/59/16 20/60/16 24/61/16
f 18/62/17 17/63/17 19/60/17 20/64/17
f 22/65/18 21/66/18 17/67/18 18/68/18
o Cube.003
v 0.450000 -0.349323 0.369153
v 0.450000 -0.399323 0.369153
v 0.450000 -0.349323 0.469153
v 0.450000 -0.399323 0.469153
v -0.450000 -0.349323 0.369153
v -0.450000 -0.399323 0.369153
v -0.450000 -0.349323 0.469153
v -0.450000 -0.399323 0.469153
vn -0.0000 1.0000 -0.0000
vn -0.0000 -0.0000 1.0000
vn -1.0000 -0.0000 -0.0000
vn -0.0000 -1.0000 -0.0000
vn 1.0000 -0.0000 -0.0000
vn -0.0000 -0.0000 -1.0000
vt 0.748220 0.500000
vt 0.748220 0.748220
vt 0.500000 0.748219
vt 0.500000 0.500000
vt -0.244659 0.996439
vt -0.492878 0.996439
vt -0.492878 0.748220
vt -0.244659 0.748220
vt 0.003561 0.996439
vt -0.244659 0.996439
vt -0.244659 0.748220
vt 0.003561 0.748220
vt 0.251780 0.748220
vt 0.251780 0.996439
vt 0.500000 0.996439
vt 0.251780 0.996439
vt 0.251780 0.748219
vt 0.748220 0.996439
s 0
usemtl Material
f 25/69/19 29/70/19 31/71/19 27/72/19
f 28/73/20 27/74/20 31/75/20 32/76/20
f 32/77/21 31/78/21 29/79/21 30/80/21
f 30/81/22 26/82/22 28/77/22 32/80/22
f 26/83/23 25/84/23 27/85/23 28/71/23
f 30/86/24 29/83/24 25/71/24 26/70/24
o Cube.004
v 0.495517 0.498635 0.469155
v 0.495517 0.348635 0.469155
v 0.495517 0.498635 0.499155
v 0.495517 0.348635 0.499155
v -0.504483 0.498636 0.469155
v -0.504483 0.348636 0.469155
v -0.504483 0.498636 0.499155
v -0.504483 0.348636 0.499155
vn -0.0000 1.0000 -0.0000
vn -0.0000 -0.0000 1.0000
vn -1.0000 -0.0000 -0.0000
vn -0.0000 -1.0000 -0.0000
vn 1.0000 -0.0000 -0.0000
vn -0.0000 -0.0000 -1.0000
vt 0.996439 -0.492878
vt 0.996439 -0.244659
vt 0.748220 -0.244659
vt 0.748220 -0.492878
vt 0.996439 0.003561
vt 0.748219 0.003561
vt 0.748220 -0.244659
vt 0.996439 -0.244659
vt 0.996439 0.251780
vt 0.748219 0.251780
vt 0.748219 0.003561
vt 0.996439 0.251780
vt 0.996439 0.500000
vt 0.748220 0.500000
vt 0.748220 0.251780
vt 0.996439 0.748220
vt 0.748220 0.748220
vt 0.996439 0.996439
vt 0.748220 0.996439
s 0
usemtl Material
f 33/87/25 37/88/25 39/89/25 35/90/25
f 36/91/26 35/92/26 39/93/26 40/94/26
f 40/95/27 39/96/27 37/97/27 38/91/27
f 38/98/28 34/99/28 36/100/28 40/101/28
f 34/102/29 33/103/29 35/100/29 36/99/29
f 38/104/30 37/105/30 33/103/30 34/102/30
o Cube.005
v 0.495517 0.342250 0.469155
v 0.495517 0.182250 0.469155
v 0.495517 0.342250 0.499155
v 0.495517 0.182250 0.499155
v -0.504483 0.342251 0.469155
v -0.504483 0.182251 0.469155
v -0.504483 0.342251 0.499155
v -0.504483 0.182251 0.499155
vn -0.0000 1.0000 -0.0000
vn -0.0000 -0.0000 1.0000
vn -1.0000 -0.0000 -0.0000
vn -0.0000 -1.0000 -0.0000
vn 1.0000 -0.0000 -0.0000
vn -0.0000 -0.0000 -1.0000
vt -0.244659 0.996439
vt -0.244659 1.244659
vt -0.492878 1.244659
vt -0.492878 0.996439
vt 0.003561 1.244659
vt -0.244659 1.244659
vt -0.244659 0.996439
vt 0.003561 0.996439
vt 0.251780 1.244659
vt 0.251780 0.996439
vt 0.500000 0.996439
vt 0.500000 1.244659
vt 0.251780 1.244659
vt 0.251780 0.996439
vt 0.748220 1.244659
vt 0.748220 0.996439
vt 0.996439 1.244659
vt 0.996439 0.996439
s 0
usemtl Material
f 41/106/31 45/107/31 47/108/31 43/109/31
f 44/110/32 43/111/32 47/112/32 48/113/32
f 48/114/33 47/110/33 45/113/33 46/115/33
f 46/116/34 42/117/34 44/118/34 48/119/34
f 42/120/35 41/117/35 43/116/35 44/121/35
f 46/122/36 45/120/36 41/121/36 42/123/36
o Cube.006
v 0.495517 0.174141 0.469155
v 0.495517 0.014141 0.469155
v 0.495517 0.174141 0.499155
v 0.495517 0.014141 0.499155
v -0.504483 0.174141 0.469155
v -0.504483 0.014141 0.469155
v -0.504483 0.174141 0.499155
v -0.504483 0.014141 0.499155
vn -0.0000 1.0000 -0.0000
vn -0.0000 -0.0000 1.0000
vn -1.0000 -0.0000 -0.0000
vn -0.0000 -1.0000 -0.0000
vn 1.0000 -0.0000 -0.0000
vn -0.0000 -0.0000 -1.0000
vt 1.244659 -0.492878
vt 1.244659 -0.244659
vt 0.996439 -0.244659
vt 0.996439 -0.492878
vt 1.244659 0.003561
vt 0.996439 0.003561
vt 0.996439 -0.244659
vt 1.244659 -0.244659
vt 1.244659 0.251780
vt 0.996439 0.251780
vt 1.244659 0.251780
vt 1.244659 0.500000
vt 0.996439 0.500000
vt 0.996439 0.251780
vt 1.244659 0.748220
vt 0.996439 0.748220
vt 1.244659 0.996439
vt 0.996439 0.996439
s 0
usemtl Material
f 49/124/37 53/125/37 55/126/37 51/127/37
f 52/128/38 51/129/38 55/130/38 56/131/38
f 56/132/39 55/133/39 53/129/39 54/128/39
f 54/134/40 50/135/40 52/136/40 56/137/40
f 50/138/41 49/139/41 51/136/41 52/135/41
f 54/140/42 53/141/42 49/139/42 50/138/42
o Cube.007
v 0.495517 0.006032 0.469155
v 0.495517 -0.153968 0.469155
v 0.495517 0.006032 0.499155
v 0.495517 -0.153968 0.499155
v -0.504483 0.006032 0.469155
v -0.504483 -0.153968 0.469155
v -0.504483 0.006032 0.499155
v -0.504483 -0.153968 0.499155
vn -0.0000 1.0000 -0.0000
vn -0.0000 -0.0000 1.0000
vn -1.0000 -0.0000 -0.0000
vn -0.0000 -1.0000 -0.0000
vn 1.0000 -0.0000 -0.0000
vn -0.0000 -0.0000 -1.0000
vt 1.244659 0.996439
vt 1.244659 1.244659
vt 0.996439 1.244659
vt 0.996439 0.996439
vt -0.244659 1.492878
vt -0.492878 1.492878
vt -0.492878 1.244659
vt -0.244659 1.244659
vt 0.003561 1.492878
vt -0.244659 1.492878
vt -0.244659 1.244659
vt 0.003561 1.244659
vt 0.251780 1.244659
vt 0.251780 1.492878
vt 0.500000 1.492878
vt 0.251780 1.492878
vt 0.251780 1.244659
vt 0.500000 1.244659
vt 0.748219 1.492878
vt 0.748220 1.244659
s 0
usemtl Material
f 57/142/43 61/143/43 63/144/43 59/145/43
f 60/146/44 59/147/44 63/148/44 64/149/44
f 64/150/45 63/151/45 61/152/45 62/153/45
f 62/154/46 58/155/46 60/150/46 64/153/46
f 58/156/47 57/157/47 59/158/47 60/159/47
f 62/160/48 61/156/48 57/159/48 58/161/48
o Cube.008
v 0.495517 -0.162078 0.469155
v 0.495517 -0.322078 0.469155
v 0.495517 -0.162078 0.499155
v 0.495517 -0.322078 0.499155
v -0.504483 -0.162077 0.469155
v -0.504483 -0.322077 0.469155
v -0.504483 -0.162077 0.499155
v -0.504483 -0.322077 0.499155
vn -0.0000 1.0000 -0.0000
vn -0.0000 -0.0000 1.0000
vn -1.0000 -0.0000 -0.0000
vn -0.0000 -1.0000 -0.0000
vn 1.0000 -0.0000 -0.0000
vn -0.0000 -0.0000 -1.0000
vt 0.996439 1.244659
vt 0.996439 1.492878
vt 0.748219 1.492878
vt 0.748220 1.244659
vt 1.244659 1.492878
vt 1.244659 1.244659
vt 1.492878 -0.244659
vt 1.244659 -0.244659
vt 1.244659 -0.492878
vt 1.492878 -0.492878
vt 1.492878 -0.244659
vt 1.492878 0.003561
vt 1.244659 0.003561
vt 1.244659 -0.244659
vt 1.492878 0.251780
vt 1.244659 0.251780
vt 1.244659 0.003561
vt 1.492878 0.003561
vt 1.492878 0.500000
vt 1.244659 0.500000
vt 1.244659 0.251780
vt 1.492878 0.251780
s 0
usemtl Material
f 65/162/49 69/163/49 71/164/49 67/165/49
f 68/166/50 67/163/50 71/162/50 72/167/50
f 72/168/51 71/169/51 69/170/51 70/171/51
f 70/172/52 66/173/52 68/174/52 72/175/52
f 66/176/53 65/177/53 67/178/53 68/179/53
f 70/180/54 69/181/54 65/182/54 66/183/54
o Cube.009
v 0.495517 -0.330187 0.469155
v 0.495517 -0.490187 0.469155
v 0.495517 -0.330187 0.499155
v 0.495517 -0.490187 0.499155
v -0.504483 -0.330187 0.469155
v -0.504483 -0.490187 0.469155
v -0.504483 -0.330187 0.499155
v -0.504483 -0.490187 0.499155
vn -0.0000 1.0000 -0.0000
vn -0.0000 -0.0000 1.0000
vn -1.0000 -0.0000 -0.0000
vn -0.0000 -1.0000 -0.0000
vn 1.0000 -0.0000 -0.0000
vn -0.0000 -0.0000 -1.0000
vt -0.244659 -0.492878
vt -0.244659 -0.244659
vt -0.492878 -0.244659
vt -0.492878 -0.492878
vt -0.244659 0.003561
vt -0.492878 0.003561
vt -0.492878 -0.244659
vt -0.244659 -0.244659
vt 0.003561 -0.244659
vt -0.244659 -0.244659
vt -0.244659 -0.492878
vt 0.003561 -0.492878
vt 0.003561 -0.244659
vt 0.003561 0.003561
vt -0.244659 0.003561
vt -0.244659 -0.244659
vt -0.244659 0.251780
vt -0.492878 0.251780
vt -0.244659 0.003561
vt 0.003561 0.251780
vt -0.244659 0.251780
vt -0.244659 0.003561
vt 0.003561 0.003561
s 0
usemtl Material
f 73/184/55 77/185/55 79/186/55 75/187/55
f 76/188/56 75/189/56 79/190/56 80/191/56
f 80/192/57 79/193/57 77/194/57 78/195/57
f 78/196/58 74/197/58 76/198/58 80/199/58
f 74/200/59 73/201/59 75/189/59 76/202/59
f 78/203/60 77/204/60 73/205/60 74/206/60
