# Blender 4.3.2
# www.blender.org
mtllib myfences_picketb_gate_open.mtl
o Cube
v 0.496619 0.206558 0.448843
v 0.496619 0.156558 0.448843
v 0.396619 0.206558 0.448843
v 0.396619 0.156558 0.448843
v 0.496619 0.206558 -0.451157
v 0.496619 0.156558 -0.451157
v 0.396619 0.206558 -0.451157
v 0.396619 0.156558 -0.451157
vn -0.0000 1.0000 -0.0000
vn -1.0000 -0.0000 -0.0000
vn -0.0000 -0.0000 -1.0000
vn -0.0000 -1.0000 -0.0000
vn -0.0000 -0.0000 1.0000
vn 1.0000 -0.0000 -0.0000
vt 0.142394 -0.377895
vt 0.142394 -0.127068
vt -0.108433 -0.127068
vt -0.108433 -0.377895
vt 0.142394 0.123759
vt -0.108433 0.123759
vt -0.108433 -0.127068
vt 0.142394 -0.127068
vt -0.108433 0.374586
vt -0.359260 0.374586
vt -0.359260 0.123759
vt -0.108433 0.123759
vt 0.142394 0.123759
vt 0.142394 0.374586
vt -0.108433 0.374586
vt -0.108433 0.123759
vt 0.393221 -0.127068
vt 0.142394 -0.127068
vt 0.393221 -0.377895
vt 0.393221 0.123759
vt 0.142394 0.123759
vt 0.393221 -0.127068
s 0
usemtl Material
f 1/1/1 5/2/1 7/3/1 3/4/1
f 4/5/2 3/6/2 7/7/2 8/8/2
f 8/9/3 7/10/3 5/11/3 6/12/3
f 6/13/4 2/14/4 4/15/4 8/16/4
f 2/17/5 1/18/5 3/1/5 4/19/5
f 6/20/6 5/21/6 1/2/6 2/22/6
o Cube.001
v 0.496619 0.255681 0.446790
v 0.496619 0.255681 0.496790
v 0.396619 0.255681 0.446790
v 0.396619 0.255681 0.496790
v 0.496619 -0.502241 0.446790
v 0.496619 -0.502241 0.496790
v 0.396619 -0.502241 0.446790
v 0.396619 -0.502241 0.496790
vn -0.0000 -0.0000 -1.0000
vn -1.0000 -0.0000 -0.0000
vn -0.0000 -1.0000 -0.0000
vn -0.0000 -0.0000 1.0000
vn -0.0000 1.0000 -0.0000
vn 1.0000 -0.0000 -0.0000
vt 0.401170 1.377894
vt 0.211062 1.377894
vt 0.211062 1.127067
vt 0.401170 1.127067
vt 1.102411 0.876240
vt 1.102411 0.625413
vt 1.292519 0.625413
vt 1.292519 0.876240
vt 0.393221 0.374586
vt 0.142394 0.374586
vt 0.142394 0.123759
vt 0.393221 0.123759
vt 0.591277 1.377894
vt 0.401170 1.377894
vt 0.401170 1.127067
vt 0.591277 1.127067
vt -0.108433 0.625413
vt -0.359260 0.625413
vt -0.359260 0.374586
vt -0.108433 0.374586
vt -0.359260 1.377894
vt -0.359260 1.127067
vt -0.169152 1.127068
vt -0.169152 1.377895
s 0
usemtl Material
f 9/23/7 13/24/7 15/25/7 11/26/7
f 12/27/8 11/28/8 15/29/8 16/30/8
f 16/31/9 15/32/9 13/33/9 14/34/9
f 14/35/10 10/36/10 12/37/10 16/38/10
f 10/39/11 9/40/11 11/41/11 12/42/11
f 14/43/12 13/44/12 9/45/12 10/46/12
o Cube.002
v 0.496619 0.255681 -0.499105
v 0.496619 0.255681 -0.449105
v 0.396619 0.255681 -0.499105
v 0.396619 0.255681 -0.449105
v 0.496619 -0.502241 -0.499105
v 0.496619 -0.502241 -0.449105
v 0.396619 -0.502241 -0.499105
v 0.396619 -0.502241 -0.449105
vn -0.0000 -0.0000 -1.0000
vn -1.0000 -0.0000 -0.0000
vn -0.0000 -1.0000 -0.0000
vn -0.0000 -0.0000 1.0000
vn -0.0000 1.0000 -0.0000
vn 1.0000 -0.0000 -0.0000
vt 0.781385 1.377894
vt 0.591277 1.377894
vt 0.591277 1.127067
vt 0.781385 1.127067
vt -0.169152 1.377895
vt -0.169152 1.127068
vt 0.020955 1.127067
vt 0.020955 1.377894
vt 0.142394 0.625413
vt -0.108433 0.625413
vt -0.108433 0.374586
vt 0.142394 0.374586
vt 0.971492 1.377894
vt 0.971492 1.127067
vt 0.393221 0.625413
vt 0.142394 0.625413
vt 0.142394 0.374586
vt 0.393221 0.374586
vt 0.211062 1.127068
vt 0.211062 1.377895
s 0
usemtl Material
f 17/47/13 21/48/13 23/49/13 19/50/13
f 20/51/14 19/52/14 23/53/14 24/54/14
f 24/55/15 23/56/15 21/57/15 22/58/15
f 22/59/16 18/47/16 20/50/16 24/60/16
f 18/61/17 17/62/17 19/63/17 20/64/17
f 22/54/18 21/53/18 17/65/18 18/66/18
o Cube.003
v 0.496619 -0.349323 0.448843
v 0.496619 -0.399323 0.448843
v 0.396619 -0.349323 0.448843
v 0.396619 -0.399323 0.448843
v 0.496619 -0.349323 -0.451157
v 0.496619 -0.399323 -0.451157
v 0.396619 -0.349323 -0.451157
v 0.396619 -0.399323 -0.451157
vn -0.0000 1.0000 -0.0000
vn -1.0000 -0.0000 -0.0000
vn -0.0000 -0.0000 -1.0000
vn -0.0000 -1.0000 -0.0000
vn -0.0000 -0.0000 1.0000
vn 1.0000 -0.0000 -0.0000
vt 0.644048 -0.377895
vt 0.644048 -0.127068
vt 0.393221 -0.127068
vt 0.393221 -0.377895
vt 0.644048 0.123759
vt 0.393221 0.123759
vt 0.644048 -0.127068
vt 0.644048 0.374586
vt 0.393221 0.374586
vt 0.393221 0.123759
vt 0.644048 0.374586
vt 0.644048 0.625413
vt 0.393221 0.625413
vt 0.393221 0.374586
vt -0.108433 0.876240
vt -0.359260 0.876240
vt -0.359260 0.625413
vt -0.108433 0.625413
vt 0.142394 0.876240
vt -0.108433 0.876240
vt -0.108433 0.625413
vt 0.142394 0.625413
s 0
usemtl Material
f 25/67/19 29/68/19 31/69/19 27/70/19
f 28/71/20 27/72/20 31/69/20 32/73/20
f 32/74/21 31/75/21 29/76/21 30/71/21
f 30/77/22 26/78/22 28/79/22 32/80/22
f 26/81/23 25/82/23 27/83/23 28/84/23
f 30/85/24 29/86/24 25/87/24 26/88/24
o Cube.004
v 0.396617 0.325166 -0.448239
v 0.396617 0.325166 -0.298239
v 0.366617 0.325166 -0.448239
v 0.366617 0.325166 -0.298239
v 0.396617 -0.502241 -0.448239
v 0.396617 -0.502241 -0.298239
v 0.366617 -0.502241 -0.448239
v 0.366617 -0.502241 -0.298239
vn -0.0000 -0.0000 -1.0000
vn -1.0000 -0.0000 -0.0000
vn -0.0000 -1.0000 -0.0000
vn -0.0000 -0.0000 1.0000
vn -0.0000 1.0000 -0.0000
vn 1.0000 -0.0000 -0.0000
vt 1.102412 0.374586
vt 0.894875 0.374586
vt 0.894875 0.123759
vt 1.102412 0.123759
vt -0.359260 1.127067
vt -0.359260 0.876240
vt -0.151724 0.876240
vt -0.151724 1.127067
vt -0.108433 -0.127068
vt -0.359260 -0.127068
vt -0.359260 -0.377895
vt -0.108433 -0.377895
vt 1.102412 0.625413
vt 0.894875 0.625413
vt -0.108433 0.123759
vt -0.359260 0.123759
vt -0.108433 -0.127068
vt -0.151724 1.127067
vt -0.151724 0.876240
vt 0.055812 0.876240
vt 0.055812 1.127067
s 0
usemtl Material
f 33/89/25 37/90/25 39/91/25 35/92/25
f 36/93/26 35/94/26 39/95/26 40/96/26
f 40/97/27 39/98/27 37/99/27 38/100/27
f 38/101/28 34/102/28 36/90/28 40/89/28
f 34/103/29 33/104/29 35/98/29 36/105/29
f 38/106/30 37/107/30 33/108/30 34/109/30
o Cube.006
v 0.394376 0.325166 -0.206679
v 0.394376 0.325166 -0.046679
v 0.364376 0.325166 -0.206679
v 0.364376 0.325166 -0.046679
v 0.394376 -0.502241 -0.206679
v 0.394376 -0.502241 -0.046679
v 0.364376 -0.502241 -0.206679
v 0.364376 -0.502241 -0.046679
vn -0.0000 -0.0000 -1.0000
vn -1.0000 -0.0000 -0.0000
vn -0.0000 -1.0000 -0.0000
vn -0.0000 -0.0000 1.0000
vn -0.0000 1.0000 -0.0000
vn 1.0000 -0.0000 -0.0000
vt 1.102412 0.876240
vt 0.894875 0.876240
vt 0.894875 0.625413
vt 1.102412 0.625413
vt 0.055813 1.127067
vt 0.055813 0.876240
vt 0.263349 0.876240
vt 0.263349 1.127067
vt 0.393221 0.876240
vt 0.142394 0.876240
vt 0.142394 0.625413
vt 0.393221 0.625413
vt 1.102412 1.127067
vt 0.894875 1.127067
vt 0.644048 0.876240
vt 0.393221 0.876240
vt 0.393221 0.625413
vt 0.644048 0.625413
vt 0.263349 1.127067
vt 0.263349 0.876240
vt 0.470885 0.876240
vt 0.470885 1.127067
s 0
usemtl Material
f 41/110/31 45/111/31 47/112/31 43/113/31
f 44/114/32 43/115/32 47/116/32 48/117/32
f 48/118/33 47/119/33 45/120/33 46/121/33
f 46/122/34 42/123/34 44/111/34 48/110/34
f 42/124/35 41/125/35 43/126/35 44/127/35
f 46/128/36 45/129/36 41/130/36 42/131/36
o Cube.008
v 0.396617 0.325166 0.037640
v 0.396617 0.325166 0.197640
v 0.366617 0.325166 0.037640
v 0.366617 0.325166 0.197640
v 0.396617 -0.502241 0.037640
v 0.396617 -0.502241 0.197640
v 0.366617 -0.502241 0.037640
v 0.366617 -0.502241 0.197640
vn -0.0000 -0.0000 -1.0000
vn -1.0000 -0.0000 -0.0000
vn -0.0000 -1.0000 -0.0000
vn -0.0000 -0.0000 1.0000
vn -0.0000 1.0000 -0.0000
vn 1.0000 -0.0000 -0.0000
vt 1.309948 -0.127068
vt 1.102412 -0.127068
vt 1.102412 -0.377895
vt 1.309948 -0.377895
vt 0.470885 1.127067
vt 0.470885 0.876240
vt 0.678421 0.876240
vt 0.678421 1.127067
vt 0.894875 -0.127068
vt 0.644048 -0.127068
vt 0.644048 -0.377895
vt 0.894875 -0.377895
vt 1.309948 0.123759
vt 1.102412 0.123759
vt 0.894875 0.123759
vt 0.644048 0.123759
vt 0.644048 -0.127068
vt 0.894875 -0.127068
vt 0.885957 0.876240
vt 0.885957 1.127067
s 0
usemtl Material
f 49/132/37 53/133/37 55/134/37 51/135/37
f 52/136/38 51/137/38 55/138/38 56/139/38
f 56/140/39 55/141/39 53/142/39 54/143/39
f 54/144/40 50/145/40 52/133/40 56/132/40
f 50/146/41 49/147/41 51/148/41 52/149/41
f 54/139/42 53/138/42 49/150/42 50/151/42
o Cube.010
v 0.396617 0.325166 0.281959
v 0.396617 0.325166 0.441959
v 0.366617 0.325166 0.281959
v 0.366617 0.325166 0.441959
v 0.396617 -0.502241 0.281959
v 0.396617 -0.502241 0.441959
v 0.366617 -0.502241 0.281959
v 0.366617 -0.502241 0.441959
vn -0.0000 -0.0000 -1.0000
vn -1.0000 -0.0000 -0.0000
vn -0.0000 -1.0000 -0.0000
vn -0.0000 -0.0000 1.0000
vn -0.0000 1.0000 -0.0000
vn 1.0000 -0.0000 -0.0000
vt 1.309948 0.374586
vt 1.102412 0.374586
vt 1.102412 0.123759
vt 1.309948 0.123759
vt 0.894875 -0.127068
vt 0.894875 -0.377895
vt 1.102412 -0.377895
vt 1.102412 -0.127068
vt 0.894875 0.374586
vt 0.644048 0.374586
vt 0.644048 0.123759
vt 0.894875 0.123759
vt 1.309948 0.625413
vt 1.102412 0.625413
vt 0.894875 0.625413
vt 0.644048 0.625413
vt 0.644048 0.374586
vt 0.894875 0.374586
vt 0.894875 0.123759
vt 1.102412 -0.127068
vt 1.102412 0.123759
s 0
usemtl Material
f 57/152/43 61/153/43 63/154/43 59/155/43
f 60/156/44 59/157/44 63/158/44 64/159/44
f 64/160/45 63/161/45 61/162/45 62/163/45
f 62/164/46 58/165/46 60/153/46 64/152/46
f 58/166/47 57/167/47 59/168/47 60/169/47
f 62/170/48 61/156/48 57/171/48 58/172/48
