# Blender 4.3.2
# www.blender.org
mtllib myfences_short2.mtl
o Cube
v 0.500000 0.039112 0.396265
v 0.500000 -0.010888 0.396265
v 0.500000 0.039112 0.496265
v 0.500000 -0.010888 0.496265
v -0.500000 0.039112 0.396265
v -0.500000 -0.010888 0.396265
v -0.500000 0.039112 0.496265
v -0.500000 -0.010888 0.496265
vn -0.0000 1.0000 -0.0000
vn -0.0000 -0.0000 1.0000
vn -1.0000 -0.0000 -0.0000
vn -0.0000 -1.0000 -0.0000
vn 1.0000 -0.0000 -0.0000
vn -0.0000 -0.0000 -1.0000
vt -0.057524 -0.291188
vt -0.057524 -0.037955
vt -0.310757 -0.037955
vt -0.310757 -0.291188
vt -0.057524 0.215279
vt -0.310757 0.215279
vt -0.310757 -0.037955
vt -0.057524 -0.037954
vt 0.195710 -0.037955
vt -0.057524 -0.037955
vt -0.057524 -0.291188
vt 0.195710 -0.291188
vt 0.195710 -0.037954
vt 0.195710 0.215279
vt -0.057524 0.215279
vt -0.057524 -0.037955
vt -0.057524 0.468513
vt -0.310757 0.468513
vt 0.448944 -0.037955
vt 0.448944 -0.291188
s 0
usemtl Material
f 1/1/1 5/2/1 7/3/1 3/4/1
f 4/5/2 3/6/2 7/7/2 8/8/2
f 8/9/3 7/10/3 5/11/3 6/12/3
f 6/13/4 2/14/4 4/15/4 8/16/4
f 2/17/5 1/18/5 3/6/5 4/5/5
f 6/19/6 5/9/6 1/12/6 2/20/6
o Cube.001
v 0.447948 -0.013509 0.396265
v 0.497948 -0.013509 0.396265
v 0.447948 -0.013509 0.496265
v 0.497948 -0.013509 0.496265
v 0.447947 -0.502241 0.396265
v 0.497947 -0.502241 0.396265
v 0.447947 -0.502241 0.496265
v 0.497947 -0.502241 0.496265
vn -1.0000 -0.0000 -0.0000
vn -0.0000 -0.0000 1.0000
vn -0.0000 -1.0000 -0.0000
vn 1.0000 -0.0000 -0.0000
vn -0.0000 1.0000 -0.0000
vn -0.0000 -0.0000 -1.0000
vt 1.202939 0.215279
vt 1.079175 0.215279
vt 1.079175 -0.037955
vt 1.202939 -0.037955
vt 0.955412 0.215280
vt 0.955412 -0.037954
vt 0.448944 0.215279
vt 0.195710 0.215279
vt 0.195710 -0.037955
vt 0.448944 -0.037955
vt 1.202939 0.468513
vt 1.079175 0.468513
vt 1.079175 0.215280
vt 1.202939 0.215280
vt 0.195710 0.974981
vt -0.057524 0.974981
vt -0.057524 0.721747
vt 0.195710 0.721747
vt 0.955412 0.468513
vt 0.955412 0.215280
vt 1.079175 0.215280
vt 1.079175 0.468514
s 0
usemtl Material
f 9/21/7 13/22/7 15/23/7 11/24/7
f 12/25/8 11/26/8 15/23/8 16/22/8
f 16/27/9 15/28/9 13/29/9 14/30/9
f 14/31/10 10/32/10 12/33/10 16/34/10
f 10/35/11 9/36/11 11/37/11 12/38/11
f 14/39/12 13/40/12 9/41/12 10/42/12
o Cube.002
v -0.497947 -0.013509 0.396265
v -0.447947 -0.013509 0.396265
v -0.497947 -0.013509 0.496265
v -0.447947 -0.013509 0.496265
v -0.497948 -0.502241 0.396265
v -0.447948 -0.502241 0.396265
v -0.497948 -0.502241 0.496265
v -0.447948 -0.502241 0.496265
vn -1.0000 -0.0000 -0.0000
vn -0.0000 -0.0000 1.0000
vn -0.0000 -1.0000 -0.0000
vn 1.0000 -0.0000 -0.0000
vn -0.0000 1.0000 -0.0000
vn -0.0000 -0.0000 -1.0000
vt 1.202939 0.721747
vt 1.079175 0.721747
vt 1.079175 0.468513
vt 1.202939 0.468513
vt 0.955412 0.721748
vt 0.955412 0.468514
vt 1.079175 0.468514
vt 1.079175 0.721748
vt 0.195710 0.468513
vt -0.057524 0.468513
vt -0.057524 0.215279
vt 0.195710 0.215279
vt 1.202939 0.974981
vt 1.079175 0.974981
vt 0.448944 0.974981
vt 0.195710 0.974981
vt 0.195710 0.721747
vt 0.448944 0.721747
vt 0.955412 0.974982
vt 0.955412 0.721748
vt 1.079175 0.721749
vt 1.079175 0.974983
s 0
usemtl Material
f 17/43/13 21/44/13 23/45/13 19/46/13
f 20/47/14 19/48/14 23/49/14 24/50/14
f 24/51/15 23/52/15 21/53/15 22/54/15
f 22/55/16 18/56/16 20/44/16 24/43/16
f 18/57/17 17/58/17 19/59/17 20/60/17
f 22/61/18 21/62/18 17/63/18 18/64/18
o Cube.003
v 0.450000 -0.415169 0.396265
v 0.450000 -0.465169 0.396265
v 0.450000 -0.415169 0.496265
v 0.450000 -0.465169 0.496265
v -0.450000 -0.415169 0.396265
v -0.450000 -0.465169 0.396265
v -0.450000 -0.415169 0.496265
v -0.450000 -0.465169 0.496265
vn -0.0000 1.0000 -0.0000
vn -0.0000 -0.0000 1.0000
vn -1.0000 -0.0000 -0.0000
vn -0.0000 -1.0000 -0.0000
vn 1.0000 -0.0000 -0.0000
vn -0.0000 -0.0000 -1.0000
vt 0.448944 0.215279
vt 0.448944 0.468513
vt 0.195710 0.468513
vt 0.195710 0.215279
vt -0.057524 0.721747
vt -0.310757 0.721747
vt -0.310757 0.468513
vt -0.057524 0.468513
vt 0.702178 -0.037955
vt 0.448944 -0.037955
vt 0.448944 -0.291188
vt 0.702178 -0.291188
vt 0.195710 0.468513
vt 0.195710 0.721747
vt -0.057524 0.721747
vt -0.057524 0.468513
vt 0.702178 0.215279
vt 0.448944 -0.037955
vt 0.702178 -0.037954
vt 0.448944 0.721747
vt 0.195710 0.721747
vt 0.195710 0.468513
vt 0.448944 0.468513
s 0
usemtl Material
f 25/65/19 29/66/19 31/67/19 27/68/19
f 28/69/20 27/70/20 31/71/20 32/72/20
f 32/73/21 31/74/21 29/75/21 30/76/21
f 30/77/22 26/78/22 28/79/22 32/80/22
f 26/81/23 25/65/23 27/82/23 28/83/23
f 30/84/24 29/85/24 25/86/24 26/87/24
o Cube.004
v -0.432181 -0.009925 0.434296
v -0.282181 -0.009925 0.434296
v -0.432181 -0.009925 0.464296
v -0.282181 -0.009925 0.464296
v -0.432181 -0.413157 0.434296
v -0.282181 -0.413157 0.434296
v -0.432181 -0.413157 0.464296
v -0.282181 -0.413157 0.464296
vn -1.0000 -0.0000 -0.0000
vn -0.0000 -0.0000 1.0000
vn -0.0000 -1.0000 -0.0000
vn 1.0000 -0.0000 -0.0000
vn -0.0000 1.0000 -0.0000
vn -0.0000 -0.0000 -1.0000
vt 0.812474 1.228214
vt 0.710362 1.228214
vt 0.710362 0.974981
vt 0.812474 0.974981
vt -0.310757 1.228215
vt -0.310757 0.974981
vt -0.208645 0.974981
vt -0.208645 1.228214
vt 0.955412 0.468513
vt 0.702178 0.468513
vt 0.702178 0.215279
vt 0.955412 0.215279
vt 0.914586 1.228214
vt 0.914586 0.974981
vt 0.702178 0.468513
vt 0.448944 0.468513
vt 0.448944 0.215279
vt -0.106533 0.974981
vt -0.106533 1.228215
s 0
usemtl Material
f 33/88/25 37/89/25 39/90/25 35/91/25
f 36/92/26 35/93/26 39/94/26 40/95/26
f 40/96/27 39/97/27 37/98/27 38/99/27
f 38/100/28 34/88/28 36/91/28 40/101/28
f 34/102/29 33/103/29 35/104/29 36/98/29
f 38/95/30 37/94/30 33/105/30 34/106/30
o Cube.005
v -0.260303 -0.009925 0.434296
v -0.100303 -0.009925 0.434296
v -0.260303 -0.009925 0.464296
v -0.100303 -0.009925 0.464296
v -0.260303 -0.413157 0.434296
v -0.100303 -0.413157 0.434296
v -0.260303 -0.413157 0.464296
v -0.100303 -0.413157 0.464296
vn -1.0000 -0.0000 -0.0000
vn -0.0000 -0.0000 1.0000
vn -0.0000 -1.0000 -0.0000
vn 1.0000 -0.0000 -0.0000
vn -0.0000 1.0000 -0.0000
vn -0.0000 -0.0000 -1.0000
vt 1.181287 1.228215
vt 1.079175 1.228215
vt 1.079175 0.974981
vt 1.181287 0.974981
vt -0.106533 1.228215
vt -0.106533 0.974981
vt -0.004422 0.974981
vt -0.004422 1.228215
vt 0.955412 0.721747
vt 0.702178 0.721747
vt 0.702178 0.468513
vt 0.955412 0.468513
vt 1.057523 1.228216
vt 0.955412 1.228216
vt 0.955412 0.974982
vt 1.057523 0.974982
vt 0.448944 0.721747
vt 0.448944 0.468513
vt 0.097690 0.974981
vt 0.097690 1.228215
s 0
usemtl Material
f 41/107/31 45/108/31 47/109/31 43/110/31
f 44/111/32 43/112/32 47/113/32 48/114/32
f 48/115/33 47/116/33 45/117/33 46/118/33
f 46/119/34 42/120/34 44/121/34 48/122/34
f 42/116/35 41/123/35 43/124/35 44/117/35
f 46/114/36 45/113/36 41/125/36 42/126/36
o Cube.006
v -0.080574 -0.009925 0.434296
v 0.079426 -0.009925 0.434296
v -0.080574 -0.009925 0.464296
v 0.079426 -0.009925 0.464296
v -0.080574 -0.413157 0.434296
v 0.079426 -0.413157 0.434296
v -0.080574 -0.413157 0.464296
v 0.079426 -0.413157 0.464296
vn -1.0000 -0.0000 -0.0000
vn -0.0000 -0.0000 1.0000
vn -0.0000 -1.0000 -0.0000
vn 1.0000 -0.0000 -0.0000
vn -0.0000 1.0000 -0.0000
vn -0.0000 -0.0000 -1.0000
vt 1.283399 1.228215
vt 1.181287 1.228215
vt 1.181287 0.974981
vt 1.283399 0.974981
vt 0.097690 1.228215
vt 0.097690 0.974981
vt 0.199802 0.974981
vt 0.199802 1.228215
vt 0.702178 0.974981
vt 0.448944 0.974981
vt 0.448944 0.721747
vt 0.702178 0.721747
vt 1.305051 0.215279
vt 1.202939 0.215279
vt 1.202939 -0.037955
vt 1.305051 -0.037955
vt -0.057524 0.974981
vt -0.310757 0.974981
vt -0.310757 0.721747
vt -0.057524 0.721747
vt 0.301914 0.974981
vt 0.301914 1.228215
s 0
usemtl Material
f 49/127/37 53/128/37 55/129/37 51/130/37
f 52/131/38 51/132/38 55/133/38 56/134/38
f 56/135/39 55/136/39 53/137/39 54/138/39
f 54/139/40 50/140/40 52/141/40 56/142/40
f 50/143/41 49/144/41 51/145/41 52/146/41
f 54/134/42 53/133/42 49/147/42 50/148/42
o Cube.007
v 0.099155 -0.009925 0.434296
v 0.259155 -0.009925 0.434296
v 0.099155 -0.009925 0.464296
v 0.259155 -0.009925 0.464296
v 0.099155 -0.413157 0.434296
v 0.259155 -0.413157 0.434296
v 0.099155 -0.413157 0.464296
v 0.259155 -0.413157 0.464296
vn -1.0000 -0.0000 -0.0000
vn -0.0000 -0.0000 1.0000
vn -0.0000 -1.0000 -0.0000
vn 1.0000 -0.0000 -0.0000
vn -0.0000 1.0000 -0.0000
vn -0.0000 -0.0000 -1.0000
vt 1.305050 0.468513
vt 1.202939 0.468513
vt 1.202939 0.215280
vt 1.305050 0.215280
vt 0.301914 1.228215
vt 0.301914 0.974981
vt 0.404026 0.974981
vt 0.404026 1.228215
vt 0.955412 0.974981
vt 0.702178 0.974981
vt 0.702178 0.721747
vt 0.955412 0.721747
vt 1.305051 0.721747
vt 1.202939 0.721747
vt 1.202939 0.468513
vt 1.305051 0.468513
vt 0.955412 -0.037955
vt 0.702178 -0.037955
vt 0.702178 -0.291188
vt 0.955412 -0.291188
vt 0.404026 1.228215
vt 0.404026 0.974981
vt 0.506138 0.974981
vt 0.506138 1.228215
s 0
usemtl Material
f 57/149/43 61/150/43 63/151/43 59/152/43
f 60/153/44 59/154/44 63/155/44 64/156/44
f 64/157/45 63/158/45 61/159/45 62/160/45
f 62/161/46 58/162/46 60/163/46 64/164/46
f 58/165/47 57/166/47 59/167/47 60/168/47
f 62/169/48 61/170/48 57/171/48 58/172/48
o Cube.008
v 0.278884 -0.009925 0.434296
v 0.438884 -0.009925 0.434296
v 0.278884 -0.009925 0.464296
v 0.438884 -0.009925 0.464296
v 0.278884 -0.413157 0.434296
v 0.438884 -0.413157 0.434296
v 0.278884 -0.413157 0.464296
v 0.438884 -0.413157 0.464296
vn -1.0000 -0.0000 -0.0000
vn -0.0000 -0.0000 1.0000
vn -0.0000 -1.0000 -0.0000
vn 1.0000 -0.0000 -0.0000
vn -0.0000 1.0000 -0.0000
vn -0.0000 -0.0000 -1.0000
vt 1.305050 0.974981
vt 1.202939 0.974981
vt 1.202939 0.721747
vt 1.305050 0.721747
vt 0.506138 1.228215
vt 0.506138 0.974981
vt 0.608250 0.974981
vt 0.608250 1.228215
vt 1.208645 -0.037955
vt 0.955412 -0.037955
vt 0.955412 -0.291188
vt 1.208645 -0.291188
vt 1.310757 -0.037955
vt 1.310757 -0.291188
vt 0.955412 0.215279
vt 0.702178 0.215279
vt 0.702178 -0.037955
vt 0.955412 -0.037954
vt 0.710362 0.974981
vt 0.710362 1.228215
s 0
usemtl Material
f 65/173/49 69/174/49 71/175/49 67/176/49
f 68/177/50 67/178/50 71/179/50 72/180/50
f 72/181/51 71/182/51 69/183/51 70/184/51
f 70/185/52 66/181/52 68/184/52 72/186/52
f 66/187/53 65/188/53 67/189/53 68/190/53
f 70/180/54 69/179/54 65/191/54 66/192/54
