# Blender 4.3.2
# www.blender.org
mtllib myfences_picketb_corner.mtl
o Cube
v 0.450000 0.206558 0.369153
v 0.450000 0.156558 0.369153
v 0.450000 0.206558 0.469153
v 0.450000 0.156558 0.469153
v -0.416378 0.206558 0.369153
v -0.416378 0.156558 0.369153
v -0.416378 0.206558 0.469153
v -0.416378 0.156558 0.469153
vn -0.0000 1.0000 -0.0000
vn -0.0000 -0.0000 1.0000
vn -1.0000 -0.0000 -0.0000
vn -0.0000 -1.0000 -0.0000
vn 1.0000 -0.0000 -0.0000
vn -0.0000 -0.0000 -1.0000
vt -0.403587 1.009022
vt -0.650471 1.009022
vt -0.650471 0.752558
vt -0.403587 0.752558
vt -0.156703 0.752558
vt -0.156703 1.009022
vt -0.137542 -0.529764
vt -0.394006 -0.529764
vt -0.394006 -0.786229
vt -0.137542 -0.786229
vt 0.090180 1.009022
vt -0.156703 1.009022
vt -0.156703 0.752558
vt 0.090180 0.752558
vt -0.137542 -0.273300
vt -0.394006 -0.273300
vt -0.394006 -0.529764
vt -0.137542 -0.529764
vt 0.090180 1.009022
vt 0.090180 0.752558
vt 0.337064 0.752558
vt 0.337064 1.009022
s 0
usemtl Material
f 1/1/1 5/2/1 7/3/1 3/4/1
f 4/1/2 3/4/2 7/5/2 8/6/2
f 8/7/3 7/8/3 5/9/3 6/10/3
f 6/11/4 2/12/4 4/13/4 8/14/4
f 2/15/5 1/16/5 3/17/5 4/18/5
f 6/19/6 5/20/6 1/21/6 2/22/6
o Cube.001
v 0.447948 0.255681 0.369153
v 0.497948 0.255681 0.369153
v 0.447948 0.255681 0.469153
v 0.497948 0.255681 0.469153
v 0.447947 -0.502241 0.369153
v 0.497947 -0.502241 0.369153
v 0.447947 -0.502241 0.469153
v 0.497947 -0.502241 0.469153
vn -1.0000 -0.0000 -0.0000
vn -0.0000 -0.0000 1.0000
vn -0.0000 -1.0000 -0.0000
vn 1.0000 -0.0000 -0.0000
vn -0.0000 1.0000 -0.0000
vn -0.0000 -0.0000 -1.0000
vt 1.725239 1.009024
vt 1.530858 1.009024
vt 1.530858 0.752559
vt 1.725239 0.752559
vt 1.047135 1.521952
vt 1.047135 1.265488
vt 1.241515 1.265487
vt 1.241515 1.521952
vt -0.394006 -0.016835
vt -0.650471 -0.016835
vt -0.650471 -0.273300
vt -0.394006 -0.273300
vt 1.725239 1.265488
vt 1.530859 1.265488
vt 1.530859 1.009024
vt 1.725239 1.009024
vt -0.137542 -0.016835
vt -0.394006 -0.016835
vt -0.394006 -0.273300
vt -0.137542 -0.273300
vt 1.241515 1.521952
vt 1.241515 1.265487
vt 1.435895 1.265488
vt 1.435895 1.521952
s 0
usemtl Material
f 9/23/7 13/24/7 15/25/7 11/26/7
f 12/27/8 11/28/8 15/29/8 16/30/8
f 16/31/9 15/32/9 13/33/9 14/34/9
f 14/35/10 10/36/10 12/37/10 16/38/10
f 10/39/11 9/40/11 11/41/11 12/42/11
f 14/43/12 13/44/12 9/45/12 10/46/12
o Cube.002
v -0.468809 0.255681 0.369153
v -0.418809 0.255681 0.369153
v -0.468809 0.255681 0.469153
v -0.418809 0.255681 0.469153
v -0.468809 -0.502241 0.369153
v -0.418809 -0.502241 0.369153
v -0.468809 -0.502241 0.469153
v -0.418809 -0.502241 0.469153
vn -1.0000 -0.0000 -0.0000
vn -0.0000 -0.0000 1.0000
vn -0.0000 -1.0000 -0.0000
vn 1.0000 -0.0000 -0.0000
vn -0.0000 1.0000 -0.0000
vn -0.0000 -0.0000 -1.0000
vt -0.456090 1.778416
vt -0.650471 1.778416
vt -0.650471 1.521952
vt -0.456090 1.521952
vt 1.530859 -0.529764
vt 1.530859 -0.786228
vt 1.725239 -0.786229
vt 1.725239 -0.529764
vt 0.118923 -0.529764
vt -0.137542 -0.529764
vt -0.137542 -0.786229
vt 0.118923 -0.786229
vt -0.261710 1.778416
vt -0.261710 1.521952
vt 0.118923 -0.273300
vt -0.137542 -0.273300
vt -0.137542 -0.529764
vt 1.530858 -0.273300
vt 1.530858 -0.529764
vt 1.725239 -0.529764
vt 1.725239 -0.273299
s 0
usemtl Material
f 17/47/13 21/48/13 23/49/13 19/50/13
f 20/51/14 19/52/14 23/53/14 24/54/14
f 24/55/15 23/56/15 21/57/15 22/58/15
f 22/59/16 18/47/16 20/50/16 24/60/16
f 18/61/17 17/62/17 19/63/17 20/55/17
f 22/64/18 21/65/18 17/66/18 18/67/18
o Cube.003
v 0.450000 -0.349323 0.369153
v 0.450000 -0.399323 0.369153
v 0.450000 -0.349323 0.469153
v 0.450000 -0.399323 0.469153
v -0.416378 -0.349323 0.369153
v -0.416378 -0.399323 0.369153
v -0.416378 -0.349323 0.469153
v -0.416378 -0.399323 0.469153
vn -0.0000 1.0000 -0.0000
vn -0.0000 -0.0000 1.0000
vn -1.0000 -0.0000 -0.0000
vn -0.0000 -1.0000 -0.0000
vn 1.0000 -0.0000 -0.0000
vn -0.0000 -0.0000 -1.0000
vt 0.878735 -0.016835
vt 0.631852 -0.016835
vt 0.631852 -0.273300
vt 0.878735 -0.273300
vt 0.631852 0.239629
vt 0.631852 -0.016835
vt 0.878735 0.239629
vt -0.394006 -0.529764
vt -0.650471 -0.529764
vt -0.650471 -0.786229
vt -0.394006 -0.786229
vt 0.878735 0.496093
vt 0.631852 0.496093
vt 0.631852 0.239629
vt 0.878735 0.239629
vt -0.394006 -0.273300
vt -0.650471 -0.273300
vt -0.650471 -0.529764
vt -0.394006 -0.529764
vt 0.631852 0.752558
vt 0.631852 0.496093
vt 0.878735 0.752558
s 0
usemtl Material
f 25/68/19 29/69/19 31/70/19 27/71/19
f 28/72/20 27/73/20 31/68/20 32/74/20
f 32/75/21 31/76/21 29/77/21 30/78/21
f 30/79/22 26/80/22 28/81/22 32/82/22
f 26/83/23 25/84/23 27/85/23 28/86/23
f 30/87/24 29/88/24 25/79/24 26/89/24
o Cube.004
v -0.447082 0.325166 0.469155
v -0.297082 0.325166 0.469155
v -0.447082 0.325166 0.499155
v -0.297082 0.325166 0.499155
v -0.447082 -0.502241 0.469155
v -0.297082 -0.502241 0.469155
v -0.447082 -0.502241 0.499155
v -0.297082 -0.502241 0.499155
vn -1.0000 -0.0000 -0.0000
vn -0.0000 -0.0000 1.0000
vn -0.0000 -1.0000 -0.0000
vn 1.0000 -0.0000 -0.0000
vn -0.0000 1.0000 -0.0000
vn -0.0000 -0.0000 -1.0000
vt 1.530858 -0.529764
vt 1.318658 -0.529764
vt 1.318658 -0.786229
vt 1.530858 -0.786229
vt 0.888316 1.009022
vt 0.888316 0.752558
vt 1.100517 0.752558
vt 1.100517 1.009022
vt 0.118923 -0.016835
vt -0.137542 -0.016835
vt -0.137542 -0.273300
vt 0.118923 -0.273300
vt 1.530858 -0.273300
vt 1.318658 -0.273300
vt -0.394006 0.239629
vt -0.650471 0.239629
vt -0.650471 -0.016835
vt -0.394006 -0.016835
vt 1.106457 -0.529764
vt 1.106457 -0.786229
vt 1.318658 -0.786229
vt 1.318658 -0.529764
s 0
usemtl Material
f 33/90/25 37/91/25 39/92/25 35/93/25
f 36/94/26 35/95/26 39/96/26 40/97/26
f 40/98/27 39/99/27 37/100/27 38/101/27
f 38/102/28 34/103/28 36/91/28 40/90/28
f 34/104/29 33/105/29 35/106/29 36/107/29
f 38/108/30 37/109/30 33/110/30 34/111/30
o Cube.006
v -0.205522 0.325166 0.471396
v -0.045522 0.325166 0.471396
v -0.205522 0.325166 0.501396
v -0.045522 0.325166 0.501396
v -0.205522 -0.502241 0.471396
v -0.045522 -0.502241 0.471396
v -0.205522 -0.502241 0.501396
v -0.045522 -0.502241 0.501396
vn -1.0000 -0.0000 -0.0000
vn -0.0000 -0.0000 1.0000
vn -0.0000 -1.0000 -0.0000
vn 1.0000 -0.0000 -0.0000
vn -0.0000 1.0000 -0.0000
vn -0.0000 -0.0000 -1.0000
vt 1.530858 -0.016835
vt 1.318658 -0.016835
vt 1.318658 -0.273300
vt 1.530858 -0.273300
vt 1.106457 -0.273300
vt 1.106457 -0.529764
vt 1.318658 -0.529764
vt 1.318658 -0.273300
vt -0.137542 0.239629
vt -0.394006 0.239629
vt -0.394006 -0.016835
vt -0.137542 -0.016835
vt 1.530858 0.239629
vt 1.318658 0.239629
vt 0.118923 0.239629
vt -0.137542 0.239629
vt -0.137542 -0.016835
vt 0.118923 -0.016835
vt 1.106457 -0.016835
vt 1.106457 -0.273300
vt 1.318658 -0.273300
vt 1.318658 -0.016835
s 0
usemtl Material
f 41/112/31 45/113/31 47/114/31 43/115/31
f 44/116/32 43/117/32 47/118/32 48/119/32
f 48/120/33 47/121/33 45/122/33 46/123/33
f 46/124/34 42/125/34 44/113/34 48/112/34
f 42/126/35 41/127/35 43/128/35 44/129/35
f 46/130/36 45/131/36 41/132/36 42/133/36
o Cube.008
v 0.038797 0.325166 0.469155
v 0.198797 0.325166 0.469155
v 0.038797 0.325166 0.499155
v 0.198797 0.325166 0.499155
v 0.038797 -0.502241 0.469155
v 0.198797 -0.502241 0.469155
v 0.038797 -0.502241 0.499155
v 0.198797 -0.502241 0.499155
vn -1.0000 -0.0000 -0.0000
vn -0.0000 -0.0000 1.0000
vn -0.0000 -1.0000 -0.0000
vn 1.0000 -0.0000 -0.0000
vn -0.0000 1.0000 -0.0000
vn -0.0000 -0.0000 -1.0000
vt 1.530858 0.496093
vt 1.318658 0.496093
vt 1.318658 0.239629
vt 1.530858 0.239629
vt 1.106457 0.239629
vt 1.106457 -0.016835
vt 1.318658 -0.016835
vt 1.318658 0.239629
vt 0.375387 -0.529764
vt 0.118923 -0.529764
vt 0.118923 -0.786229
vt 0.375387 -0.786229
vt 1.530858 0.752558
vt 1.318658 0.752558
vt 0.375387 -0.273300
vt 0.118923 -0.273300
vt 0.118923 -0.529764
vt 0.375387 -0.529764
vt 1.106457 0.496094
vt 1.106457 0.239629
vt 1.318658 0.239629
vt 1.318658 0.496094
s 0
usemtl Material
f 49/134/37 53/135/37 55/136/37 51/137/37
f 52/138/38 51/139/38 55/140/38 56/141/38
f 56/142/39 55/143/39 53/144/39 54/145/39
f 54/146/40 50/147/40 52/135/40 56/134/40
f 50/148/41 49/149/41 51/150/41 52/151/41
f 54/152/42 53/153/42 49/154/42 50/155/42
o Cube.010
v 0.283116 0.325166 0.469155
v 0.443116 0.325166 0.469155
v 0.283116 0.325166 0.499155
v 0.443116 0.325166 0.499155
v 0.283116 -0.502241 0.469155
v 0.443116 -0.502241 0.469155
v 0.283116 -0.502241 0.499155
v 0.443116 -0.502241 0.499155
vn -1.0000 -0.0000 -0.0000
vn -0.0000 -0.0000 1.0000
vn -0.0000 -1.0000 -0.0000
vn 1.0000 -0.0000 -0.0000
vn -0.0000 1.0000 -0.0000
vn -0.0000 -0.0000 -1.0000
vt 1.530858 1.009022
vt 1.318658 1.009022
vt 1.318658 0.752558
vt 1.530858 0.752558
vt 1.106457 0.752558
vt 1.106457 0.496094
vt 1.318658 0.496094
vt 1.318658 0.752558
vt 0.375387 -0.016835
vt 0.118923 -0.016835
vt 0.118923 -0.273300
vt 0.375387 -0.273300
vt 1.530858 1.265487
vt 1.318658 1.265487
vt 0.375387 0.239629
vt 0.118923 0.239629
vt 0.118923 -0.016835
vt -0.650471 1.265487
vt -0.650471 1.009022
vt -0.438270 1.009022
vt -0.438270 1.265487
s 0
usemtl Material
f 57/156/43 61/157/43 63/158/43 59/159/43
f 60/160/44 59/161/44 63/162/44 64/163/44
f 64/164/45 63/165/45 61/166/45 62/167/45
f 62/168/46 58/169/46 60/157/46 64/156/46
f 58/170/47 57/171/47 59/172/47 60/164/47
f 62/173/48 61/174/48 57/175/48 58/176/48
o Cube.005
v -0.367149 0.206558 0.317673
v -0.367149 0.156558 0.317673
v -0.467149 0.206558 0.317673
v -0.467149 0.156558 0.317673
v -0.367149 0.206558 -0.447840
v -0.367149 0.156558 -0.447840
v -0.467149 0.206558 -0.447840
v -0.467149 0.156558 -0.447840
vn -0.0000 1.0000 -0.0000
vn -1.0000 -0.0000 -0.0000
vn -0.0000 -0.0000 -1.0000
vn -0.0000 -1.0000 -0.0000
vn -0.0000 -0.0000 1.0000
vn 1.0000 -0.0000 -0.0000
vt 0.555204 1.009022
vt 0.337064 1.009022
vt 0.337064 0.752558
vt 0.555204 0.752558
vt 0.555204 1.009022
vt 0.555204 0.752558
vt 0.773345 0.752558
vt 0.773345 1.009022
vt -0.394006 0.496094
vt -0.650471 0.496094
vt -0.650471 0.239629
vt -0.394006 0.239629
vt 1.106457 -0.529764
vt 0.888316 -0.529764
vt 0.888316 -0.786229
vt 1.106457 -0.786229
vt -0.137542 0.496094
vt -0.394006 0.496094
vt -0.394006 0.239629
vt -0.137542 0.239629
vt 0.888316 -0.273300
vt 0.888316 -0.529764
vt 1.106457 -0.273300
s 0
usemtl Material
f 65/177/49 69/178/49 71/179/49 67/180/49
f 68/181/50 67/182/50 71/183/50 72/184/50
f 72/185/51 71/186/51 69/187/51 70/188/51
f 70/189/52 66/190/52 68/191/52 72/192/52
f 66/193/53 65/194/53 67/195/53 68/196/53
f 70/197/54 69/198/54 65/189/54 66/199/54
o Cube.007
v -0.367149 0.255681 0.320103
v -0.367149 0.255681 0.370103
v -0.467149 0.255681 0.320103
v -0.467149 0.255681 0.370103
v -0.367149 -0.502241 0.320103
v -0.367149 -0.502241 0.370103
v -0.467149 -0.502241 0.320103
v -0.467149 -0.502241 0.370103
vn -0.0000 -0.0000 -1.0000
vn -1.0000 -0.0000 -0.0000
vn -0.0000 -1.0000 -0.0000
vn -0.0000 -0.0000 1.0000
vn -0.0000 1.0000 -0.0000
vn 1.0000 -0.0000 -0.0000
vt -0.067330 1.778416
vt -0.261710 1.778416
vt -0.261710 1.521952
vt -0.067330 1.521952
vt 1.530859 -0.016835
vt 1.530859 -0.273299
vt 1.725239 -0.273299
vt 1.725239 -0.016835
vt 0.118923 0.496094
vt -0.137542 0.496094
vt -0.137542 0.239629
vt 0.118923 0.239629
vt 0.127050 1.778416
vt 0.127050 1.521952
vt 0.375387 0.496094
vt 0.118923 0.496094
vt 0.118923 0.239629
vt 0.375387 0.239629
vt 1.530858 0.239630
vt 1.530858 -0.016835
vt 1.725239 -0.016834
vt 1.725239 0.239630
s 0
usemtl Material
f 73/200/55 77/201/55 79/202/55 75/203/55
f 76/204/56 75/205/56 79/206/56 80/207/56
f 80/208/57 79/209/57 77/210/57 78/211/57
f 78/212/58 74/200/58 76/203/58 80/213/58
f 74/214/59 73/215/59 75/216/59 76/217/59
f 78/218/60 77/219/60 73/220/60 74/221/60
o Cube.009
v -0.367149 0.255681 -0.495787
v -0.367149 0.255681 -0.445787
v -0.467149 0.255681 -0.495787
v -0.467149 0.255681 -0.445787
v -0.367149 -0.502241 -0.495788
v -0.367149 -0.502241 -0.445788
v -0.467149 -0.502241 -0.495788
v -0.467149 -0.502241 -0.445788
vn -0.0000 -0.0000 -1.0000
vn -1.0000 -0.0000 -0.0000
vn -0.0000 -1.0000 -0.0000
vn -0.0000 -0.0000 1.0000
vn -0.0000 1.0000 -0.0000
vn 1.0000 -0.0000 -0.0000
vt 0.321430 1.778416
vt 0.127050 1.778416
vt 0.127050 1.521952
vt 0.321430 1.521952
vt 1.530859 0.496095
vt 1.530859 0.239630
vt 1.725239 0.239630
vt 1.725239 0.496095
vt 0.631852 -0.529764
vt 0.375387 -0.529764
vt 0.375387 -0.786229
vt 0.631852 -0.786229
vt 0.515810 1.778416
vt 0.515810 1.521952
vt 0.631852 -0.273300
vt 0.375387 -0.273300
vt 0.375387 -0.529764
vt 1.530858 0.752559
vt 1.530858 0.496095
vt 1.725239 0.496095
vt 1.725239 0.752559
s 0
usemtl Material
f 81/222/61 85/223/61 87/224/61 83/225/61
f 84/226/62 83/227/62 87/228/62 88/229/62
f 88/230/63 87/231/63 85/232/63 86/233/63
f 86/234/64 82/222/64 84/225/64 88/235/64
f 82/236/65 81/237/65 83/238/65 84/230/65
f 86/239/66 85/240/66 81/241/66 82/242/66
o Cube.011
v -0.367149 -0.349323 0.317673
v -0.367149 -0.399323 0.317673
v -0.467149 -0.349323 0.317673
v -0.467149 -0.399323 0.317673
v -0.367149 -0.349323 -0.447840
v -0.367149 -0.399323 -0.447840
v -0.467149 -0.349323 -0.447840
v -0.467149 -0.399323 -0.447840
vn -0.0000 1.0000 -0.0000
vn -1.0000 -0.0000 -0.0000
vn -0.0000 -0.0000 -1.0000
vn -0.0000 -1.0000 -0.0000
vn -0.0000 -0.0000 1.0000
vn 1.0000 -0.0000 -0.0000
vt 1.106457 -0.016835
vt 0.888316 -0.016835
vt 0.888316 -0.273300
vt 1.106457 -0.273300
vt 0.888316 0.239629
vt 0.888316 -0.016835
vt 1.106457 -0.016835
vt 1.106457 0.239629
vt 0.631852 -0.016835
vt 0.375387 -0.016835
vt 0.375387 -0.273300
vt 0.631852 -0.273300
vt 1.106457 0.496093
vt 0.888316 0.496093
vt 0.631852 0.239629
vt 0.375387 0.239629
vt 0.375387 -0.016835
vt 0.631852 -0.016835
vt 0.888316 0.752558
vt 0.888316 0.496093
vt 1.106457 0.752558
s 0
usemtl Material
f 89/243/67 93/244/67 95/245/67 91/246/67
f 92/247/68 91/248/68 95/249/68 96/250/68
f 96/251/69 95/252/69 93/253/69 94/254/69
f 94/255/70 90/256/70 92/247/70 96/250/70
f 90/257/71 89/258/71 91/259/71 92/260/71
f 94/261/72 93/262/72 89/255/72 90/263/72
o Cube.012
v -0.467151 0.325166 -0.444922
v -0.467151 0.325166 -0.294922
v -0.497151 0.325166 -0.444922
v -0.497151 0.325166 -0.294922
v -0.467151 -0.502241 -0.444922
v -0.467151 -0.502241 -0.294922
v -0.497151 -0.502241 -0.444922
v -0.497151 -0.502241 -0.294922
vn -0.0000 -0.0000 -1.0000
vn -1.0000 -0.0000 -0.0000
vn -0.0000 -1.0000 -0.0000
vn -0.0000 -0.0000 1.0000
vn -0.0000 1.0000 -0.0000
vn 1.0000 -0.0000 -0.0000
vt -0.438270 1.521951
vt -0.650471 1.521951
vt -0.650471 1.265487
vt -0.438270 1.265487
vt -0.438270 1.265487
vt -0.438270 1.009022
vt -0.226069 1.009022
vt -0.226069 1.265487
vt 0.631852 0.496094
vt 0.375387 0.496094
vt 0.375387 0.239629
vt 0.631852 0.239629
vt -0.226069 1.521951
vt -0.226069 1.265487
vt -0.394006 0.752558
vt -0.650471 0.752558
vt -0.650471 0.496094
vt -0.394006 0.496094
vt -0.013869 1.009022
vt -0.013869 1.265487
s 0
usemtl Material
f 97/264/73 101/265/73 103/266/73 99/267/73
f 100/268/74 99/269/74 103/270/74 104/271/74
f 104/272/75 103/273/75 101/274/75 102/275/75
f 102/276/76 98/264/76 100/267/76 104/277/76
f 98/278/77 97/279/77 99/280/77 100/281/77
f 102/271/78 101/270/78 97/282/78 98/283/78
o Cube.013
v -0.469393 0.325166 -0.203362
v -0.469393 0.325166 -0.043362
v -0.499393 0.325166 -0.203362
v -0.499393 0.325166 -0.043362
v -0.469393 -0.502241 -0.203362
v -0.469393 -0.502241 -0.043362
v -0.499393 -0.502241 -0.203362
v -0.499393 -0.502241 -0.043362
vn -0.0000 -0.0000 -1.0000
vn -1.0000 -0.0000 -0.0000
vn -0.0000 -1.0000 -0.0000
vn -0.0000 -0.0000 1.0000
vn -0.0000 1.0000 -0.0000
vn 1.0000 -0.0000 -0.0000
vt -0.013869 1.521951
vt -0.226069 1.521951
vt -0.226069 1.265487
vt -0.013869 1.265487
vt -0.013869 1.265487
vt -0.013869 1.009022
vt 0.198332 1.009022
vt 0.198332 1.265487
vt -0.137542 0.752558
vt -0.394006 0.752558
vt -0.394006 0.496094
vt -0.137542 0.496094
vt 0.198332 1.521951
vt 0.198332 1.265487
vt 0.118923 0.752558
vt -0.137542 0.752558
vt -0.137542 0.496094
vt 0.118923 0.496094
vt 0.410533 1.009022
vt 0.410533 1.265487
s 0
usemtl Material
f 105/284/79 109/285/79 111/286/79 107/287/79
f 108/288/80 107/289/80 111/290/80 112/291/80
f 112/292/81 111/293/81 109/294/81 110/295/81
f 110/296/82 106/284/82 108/287/82 112/297/82
f 106/298/83 105/299/83 107/300/83 108/301/83
f 110/291/84 109/290/84 105/302/84 106/303/84
o Cube.014
v -0.467151 0.325166 0.040957
v -0.467151 0.325166 0.200957
v -0.497151 0.325166 0.040957
v -0.497151 0.325166 0.200957
v -0.467151 -0.502241 0.040957
v -0.467151 -0.502241 0.200957
v -0.497151 -0.502241 0.040957
v -0.497151 -0.502241 0.200957
vn -0.0000 -0.0000 -1.0000
vn -1.0000 -0.0000 -0.0000
vn -0.0000 -1.0000 -0.0000
vn -0.0000 -0.0000 1.0000
vn -0.0000 1.0000 -0.0000
vn 1.0000 -0.0000 -0.0000
vt 0.410533 1.521951
vt 0.198332 1.521951
vt 0.198332 1.265487
vt 0.410533 1.265487
vt 0.410533 1.265487
vt 0.410533 1.009022
vt 0.622733 1.009022
vt 0.622733 1.265487
vt 0.375387 0.752558
vt 0.118923 0.752558
vt 0.118923 0.496094
vt 0.375387 0.496094
vt 0.622733 1.521951
vt 0.410533 1.521951
vt 0.410533 1.265487
vt 0.622733 1.265487
vt 0.631852 0.752558
vt 0.375387 0.752558
vt 0.375387 0.496094
vt 0.631852 0.496094
vt 0.834934 1.009022
vt 0.834934 1.265487
s 0
usemtl Material
f 113/304/85 117/305/85 119/306/85 115/307/85
f 116/308/86 115/309/86 119/310/86 120/311/86
f 120/312/87 119/313/87 117/314/87 118/315/87
f 118/316/88 114/317/88 116/318/88 120/319/88
f 114/320/89 113/321/89 115/322/89 116/323/89
f 118/311/90 117/310/90 113/324/90 114/325/90
o Cube.015
v -0.467151 0.325166 0.285276
v -0.467151 0.325166 0.445276
v -0.497151 0.325166 0.285276
v -0.497151 0.325166 0.445276
v -0.467151 -0.502241 0.285276
v -0.467151 -0.502241 0.445276
v -0.497151 -0.502241 0.285276
v -0.497151 -0.502241 0.445276
vn -0.0000 -0.0000 -1.0000
vn -1.0000 -0.0000 -0.0000
vn -0.0000 -1.0000 -0.0000
vn -0.0000 -0.0000 1.0000
vn -0.0000 1.0000 -0.0000
vn 1.0000 -0.0000 -0.0000
vt 0.834934 1.521951
vt 0.622733 1.521951
vt 0.622733 1.265487
vt 0.834934 1.265487
vt 0.834934 1.265487
vt 0.834934 1.009022
vt 1.047135 1.009022
vt 1.047135 1.265487
vt 0.888316 -0.529764
vt 0.631852 -0.529764
vt 0.631852 -0.786229
vt 0.888316 -0.786229
vt 1.047135 1.521951
vt 1.047135 1.265487
vt 0.888316 -0.273300
vt 0.631852 -0.273300
vt 0.631852 -0.529764
vt 0.888316 -0.529764
vt 1.259335 1.009022
vt 1.259335 1.265487
s 0
usemtl Material
f 121/326/91 125/327/91 127/328/91 123/329/91
f 124/330/92 123/331/92 127/332/92 128/333/92
f 128/334/93 127/335/93 125/336/93 126/337/93
f 126/338/94 122/326/94 124/329/94 128/339/94
f 122/340/95 121/341/95 123/342/95 124/343/95
f 126/333/96 125/332/96 121/344/96 122/345/96
